<svg width="61" height="60" viewBox="0 0 61 60" fill="none" xmlns="http://www.w3.org/2000/svg">
<path d="M19.25 45C21.3211 45 23 46.679 23 48.75C23 50.821 21.3211 52.5 19.25 52.5C17.1789 52.5 15.5 50.821 15.5 48.75C15.5 46.679 17.1789 45 19.25 45Z" stroke="white" stroke-width="2"/>
<path d="M41.75 45C43.821 45 45.5 46.6788 45.5 48.75C45.5 50.821 43.821 52.5 41.75 52.5C39.679 52.5 38 50.821 38 48.75C38 46.6788 39.679 45 41.75 45Z" stroke="white" stroke-width="2"/>
<path d="M5.5 7.5L6.15302 7.7296C9.407 8.87363 11.034 9.44565 11.9646 10.8074C12.8952 12.1693 12.8952 13.9782 12.8952 17.5959V24.4C12.8952 31.754 13.0533 34.1807 15.2193 36.4655C17.3853 38.75 20.8714 38.75 27.8438 38.75H30.5M41.101 38.75C45.0035 38.75 46.9548 38.75 48.334 37.626C49.7133 36.502 50.1073 34.591 50.895 30.7687L52.1445 24.7069C53.0123 20.3592 53.446 18.1854 52.3363 16.7427C51.2265 15.3 47.4345 15.3 43.222 15.3H28.0588M12.8952 15.3H18" stroke="white" stroke-width="2" stroke-linecap="round"/>
</svg>
