<svg width="61" height="60" viewBox="0 0 61 60" fill="none" xmlns="http://www.w3.org/2000/svg">
<path d="M30.5 19.6875C24.3125 19.6875 19.25 24.75 19.25 30.9375C19.25 37.125 24.3125 42.1875 30.5 42.1875C36.6875 42.1875 41.75 37.125 41.75 30.9375C41.75 24.75 36.6875 19.6875 30.5 19.6875ZM30.5 38.4375C26.375 38.4375 23 35.0625 23 30.9375C23 26.8125 26.375 23.4375 30.5 23.4375C34.625 23.4375 38 26.8125 38 30.9375C38 35.0625 34.625 38.4375 30.5 38.4375Z" fill="white"/>
<path d="M30.5 47.25C23.5156 47.25 16.8125 50.1562 12.0313 55.2656C11.3308 56.0179 11.3787 57.2064 12.1246 57.9137C12.8669 58.6176 14.0529 58.5925 14.75 57.8437C18.875 53.4375 24.4531 51 30.5 51C36.5469 51 42.125 53.4375 46.25 57.8437C46.9471 58.5925 48.1331 58.6176 48.8754 57.9137C49.6213 57.2064 49.6692 56.0179 48.9688 55.2656C44.1875 50.2031 37.4844 47.25 30.5 47.25Z" fill="white"/>
<path d="M47.841 22.5437C46.8103 22.4438 45.9688 23.2926 45.9688 24.3281C45.9688 25.3637 46.8112 26.1913 47.8397 26.3118C50.9075 26.6712 53.7567 27.9142 56.1318 29.9214C56.9267 30.5932 58.1135 30.6369 58.8687 29.9208C59.6166 29.2116 59.6597 28.0245 58.8881 27.3412C55.8197 24.6239 51.9322 22.9399 47.841 22.5437Z" fill="white"/>
<path d="M54.9219 9.375C54.9219 4.45312 50.8906 0.421875 45.9687 0.421875C41.0469 0.421875 37.0156 4.45312 37.0156 9.375C37.0156 14.2969 41.0469 18.3281 45.9687 18.3281C50.8906 18.3281 54.9219 14.2969 54.9219 9.375ZM40.7656 9.375C40.7656 6.51562 43.1094 4.17187 45.9687 4.17187C48.8281 4.17187 51.1719 6.51562 51.1719 9.375C51.1719 12.2344 48.8281 14.5781 45.9687 14.5781C43.1094 14.5781 40.7656 12.2344 40.7656 9.375Z" fill="white"/>
<path d="M15.0312 24.3281C15.0312 23.2926 14.1897 22.4438 13.159 22.5437C9.06535 22.9401 5.17571 24.6259 2.10647 27.346C1.33814 28.0269 1.38105 29.2094 2.126 29.9158C2.88238 30.6331 4.07243 30.5845 4.86703 29.9098C7.22378 27.9089 10.09 26.6698 13.1602 26.3115C14.1888 26.1914 15.0312 25.3637 15.0312 24.3281Z" fill="white"/>
<path d="M23.9844 9.375C23.9844 4.45312 19.9531 0.421875 15.0312 0.421875C10.1094 0.421875 6.07812 4.45312 6.07812 9.375C6.07812 14.2969 10.1094 18.3281 15.0312 18.3281C19.9531 18.3281 23.9844 14.2969 23.9844 9.375ZM15.0312 14.5781C12.1719 14.5781 9.82812 12.2344 9.82812 9.375C9.82812 6.51562 12.1719 4.17187 15.0312 4.17187C17.8906 4.17187 20.2344 6.51562 20.2344 9.375C20.2344 12.2344 17.8906 14.5781 15.0312 14.5781Z" fill="white"/>
</svg>
