<svg width="61" height="60" viewBox="0 0 61 60" fill="none" xmlns="http://www.w3.org/2000/svg">
<path d="M54.25 30C53.5 30 53 30.5 53 31.25V36.25C53 37 53.5 37.5 54.25 37.5C55 37.5 55.5 37 55.5 36.25V31.25C55.5 30.5 55 30 54.25 30ZM53.375 25.375C53.125 25.625 53 25.875 53 26.25C53 26.375 53 26.625 53.125 26.75C53.25 26.875 53.25 27 53.375 27.125C53.625 27.375 54 27.5 54.25 27.5H54.5C54.625 27.5 54.625 27.5 54.75 27.375C54.875 27.375 54.875 27.25 55 27.25C55.125 27.25 55.125 27.125 55.25 27.125C55.375 27 55.5 26.875 55.5 26.75V26.25C55.5 25.875 55.375 25.625 55.125 25.375C54.625 24.875 53.875 24.875 53.375 25.375Z" fill="white"/>
<path d="M55.5 17.5C55.5 17.375 55.5 17.25 55.375 17C55.25 16.875 55.25 16.75 55.125 16.625L40.125 1.625C40 1.5 39.875 1.375 39.75 1.375C39.625 1.25 39.375 1.25 39.25 1.25H13C8.875 1.25 5.5 4.625 5.5 8.75V51.25C5.5 55.375 8.875 58.75 13 58.75H48C52.125 58.75 55.5 55.375 55.5 51.25V41.25C55.5 40.5 55 40 54.25 40C53.5 40 53 40.5 53 41.25V51.25C53 54 50.75 56.25 48 56.25H13C10.25 56.25 8 54 8 51.25V8.75C8 6 10.25 3.75 13 3.75H38V11.25C38 15.375 41.375 18.75 45.5 18.75H53V21.25C53 22 53.5 22.5 54.25 22.5C55 22.5 55.5 22 55.5 21.25V17.5ZM40.5 11.25V5.5L51.25 16.25H45.5C42.75 16.25 40.5 14 40.5 11.25Z" fill="white"/>
<path d="M14.25 17.5H30.5C31.25 17.5 31.75 17 31.75 16.25C31.75 15.5 31.25 15 30.5 15H14.25C13.5 15 13 15.5 13 16.25C13 17 13.5 17.5 14.25 17.5ZM45.5 28.75H14.25C13.5 28.75 13 29.25 13 30C13 30.75 13.5 31.25 14.25 31.25H45.5C46.25 31.25 46.75 30.75 46.75 30C46.75 29.25 46.25 28.75 45.5 28.75ZM45.5 42.5H14.25C13.5 42.5 13 43 13 43.75C13 44.5 13.5 45 14.25 45H45.5C46.25 45 46.75 44.5 46.75 43.75C46.75 43 46.25 42.5 45.5 42.5Z" fill="white"/>
</svg>
