<svg width="61" height="60" viewBox="0 0 61 60" fill="none" xmlns="http://www.w3.org/2000/svg">
<path d="M20.4242 31.3257C21.1564 32.058 22.3436 32.058 23.0758 31.3257C23.808 30.5935 23.808 29.4065 23.0758 28.6742L20.4242 31.3257ZM14.3258 19.9242C13.5936 19.1919 12.4064 19.1919 11.6742 19.9242C10.9419 20.6564 10.9419 21.8436 11.6742 22.5758L14.3258 19.9242ZM13 19.375C11.9645 19.375 11.125 20.2145 11.125 21.25C11.125 22.2855 11.9645 23.125 13 23.125V19.375ZM48 23.125C49.0355 23.125 49.875 22.2855 49.875 21.25C49.875 20.2145 49.0355 19.375 48 19.375V23.125ZM11.6742 19.9242C10.9419 20.6564 10.9419 21.8436 11.6742 22.5758C12.4064 23.308 13.5936 23.308 14.3258 22.5758L11.6742 19.9242ZM23.0758 13.8258C23.808 13.0936 23.808 11.9064 23.0758 11.1742C22.3436 10.4419 21.1564 10.4419 20.4242 11.1742L23.0758 13.8258ZM40.5758 28.6742C39.8435 27.942 38.6565 27.942 37.9242 28.6742C37.192 29.4065 37.192 30.5935 37.9242 31.3257L40.5758 28.6742ZM46.6742 40.0757C47.4065 40.808 48.5935 40.808 49.3258 40.0757C50.058 39.3435 50.058 38.1565 49.3258 37.4242L46.6742 40.0757ZM48 40.625C49.0355 40.625 49.875 39.7855 49.875 38.75C49.875 37.7145 49.0355 36.875 48 36.875V40.625ZM13 36.875C11.9645 36.875 11.125 37.7145 11.125 38.75C11.125 39.7855 11.9645 40.625 13 40.625V36.875ZM49.3258 40.0757C50.058 39.3435 50.058 38.1565 49.3258 37.4242C48.5935 36.692 47.4065 36.692 46.6742 37.4242L49.3258 40.0757ZM37.9242 46.1742C37.192 46.9065 37.192 48.0935 37.9242 48.8257C38.6565 49.558 39.8435 49.558 40.5758 48.8257L37.9242 46.1742ZM23.0758 28.6742L14.3258 19.9242L11.6742 22.5758L20.4242 31.3257L23.0758 28.6742ZM13 23.125H48V19.375H13V23.125ZM14.3258 22.5758L23.0758 13.8258L20.4242 11.1742L11.6742 19.9242L14.3258 22.5758ZM37.9242 31.3257L46.6742 40.0757L49.3258 37.4242L40.5758 28.6742L37.9242 31.3257ZM48 36.875H13V40.625H48V36.875ZM46.6742 37.4242L37.9242 46.1742L40.5758 48.8257L49.3258 40.0757L46.6742 37.4242Z" fill="white"/>
</svg>
