<svg width="61" height="60" viewBox="0 0 61 60" fill="none" xmlns="http://www.w3.org/2000/svg">
<g clip-path="url(#clip0_1035_7544)">
<path d="M47.2619 20.9487C46.2935 22.3701 44.2373 22.3701 43.2689 20.9487C42.7308 20.1591 42.7308 19.0731 43.2689 18.2835C44.2373 16.8621 46.2935 16.8621 47.2619 18.2835C47.8001 19.0731 47.8001 20.1591 47.2619 20.9487ZM52.7479 26.3447C51.7796 27.7662 49.7233 27.7662 48.755 26.3447C48.2168 25.5551 48.2168 24.4692 48.755 23.6796C49.7233 22.2581 51.7796 22.2581 52.7479 23.6796C53.2861 24.4692 53.2861 25.5551 52.7479 26.3447ZM41.6559 26.3447C40.6875 27.7662 38.6312 27.7662 37.6629 26.3447C37.1247 25.5551 37.1247 24.4692 37.6629 23.6796C38.6312 22.2581 40.6875 22.2581 41.6559 23.6796C42.194 24.4692 42.194 25.5551 41.6559 26.3447ZM47.2619 31.9208C46.2935 33.3422 44.2373 33.3422 43.2689 31.9208C42.7308 31.1312 42.7308 30.0452 43.2689 29.2556C44.2373 27.8341 46.2935 27.8341 47.2619 29.2556C47.8001 30.0452 47.8001 31.1312 47.2619 31.9208ZM21.605 25.1021C21.605 21.9957 19.0864 19.4771 15.98 19.4771C12.8735 19.4771 10.355 21.9957 10.355 25.1021C10.355 28.2086 12.8735 30.7271 15.98 30.7271C19.0864 30.7271 21.605 28.2086 21.605 25.1021ZM24.005 25.1021C24.005 29.5341 20.4119 33.1271 15.98 33.1271C11.548 33.1271 7.95496 29.5341 7.95496 25.1021C7.95496 20.6702 11.548 17.0771 15.98 17.0771C20.4119 17.0771 24.005 20.6702 24.005 25.1021Z" fill="white"/>
<path d="M58.0999 42.629C58.0792 46.2615 55.127 49.2003 51.488 49.2003C49.1443 49.2003 47.0145 47.9729 45.8242 46.0043C45.4813 45.4371 44.7436 45.2553 44.1765 45.5983C43.6093 45.9412 43.4275 46.6789 43.7705 47.2461C45.3911 49.9265 48.2956 51.6004 51.488 51.6004C56.4651 51.6004 60.5 47.5666 60.5 42.5908L60.4265 41.4479L58.0456 24.9668C56.6696 15.4568 48.516 8.40039 38.9035 8.40039H27.8833C27.2206 8.40039 26.6833 8.93764 26.6833 9.60039C26.6833 10.2631 27.2206 10.8004 27.8833 10.8004H38.9035C47.3234 10.8004 54.4651 16.981 55.6703 25.3104L58.0349 41.6536L58.0999 42.6291V42.629Z" fill="white"/>
<path d="M30.4944 40.2954C35.7987 40.2954 40.6689 42.8671 43.6819 47.1108C44.0656 47.6512 44.8147 47.7782 45.3551 47.3945C45.8954 47.0109 46.0225 46.2617 45.6389 45.7214C42.1804 40.8503 36.5845 37.8955 30.4944 37.8955C29.8317 37.8955 29.2944 38.4327 29.2944 39.0955C29.2944 39.7582 29.8317 40.2954 30.4944 40.2954ZM2.96515 41.6536L5.3297 25.3104C6.53491 16.9811 13.6766 10.8004 22.0965 10.8004H33.1167C33.7794 10.8004 34.3167 10.2631 34.3167 9.60039C34.3167 8.93764 33.7794 8.40039 33.1167 8.40039H22.0965C12.4841 8.40039 4.33044 15.4568 2.95443 24.9668L0.583195 41.3558L0.502687 42.5111C0.50005 47.5666 4.53493 51.6004 9.51206 51.6004C12.7044 51.6004 15.6089 49.9265 17.2296 47.2461C17.5725 46.679 17.3907 45.9412 16.8236 45.5983C16.2564 45.2554 15.5187 45.4372 15.1758 46.0043C13.9855 47.973 11.8557 49.2004 9.51206 49.2004C5.8731 49.2004 2.92079 46.2616 2.90017 42.629L2.96515 41.6536Z" fill="white"/>
<path d="M30.5056 37.8956C24.4155 37.8956 18.8197 40.8504 15.3612 45.7215C14.9775 46.2619 15.1045 47.0109 15.6449 47.3946C16.1853 47.7783 16.9344 47.6512 17.3181 47.1108C20.3311 42.8672 25.2013 40.2955 30.5056 40.2955C31.1684 40.2955 31.7056 39.7583 31.7056 39.0955C31.7056 38.4328 31.1684 37.8956 30.5056 37.8956Z" fill="white"/>
</g>
<defs>
<clipPath id="clip0_1035_7544">
<rect width="60" height="60" fill="white" transform="translate(0.5)"/>
</clipPath>
</defs>
</svg>
