<svg width="61" height="60" viewBox="0 0 61 60" fill="none" xmlns="http://www.w3.org/2000/svg">
<g clip-path="url(#clip0_1027_8155)">
<path d="M30.4254 1.5H30.4254C29.0984 1.49997 28.0595 1.50067 27.2207 1.55484L30.4254 1.5ZM30.4254 1.5H30.5743H30.5743M30.4254 1.5H30.5743M15.0992 11.2363L15.0992 11.2363C14.093 10.7328 13.2762 10.4059 12.4258 10.2999C10.6643 10.0803 8.89179 10.5345 7.50064 11.5452L6.61898 10.3317L7.50064 11.5452C6.95081 11.9447 6.50009 12.4584 6.02419 13.1289L6.02416 13.1289C5.55915 13.784 5.04251 14.6298 4.37789 15.7197L4.30351 15.8417L4.30344 15.8418C3.63864 16.932 3.12362 17.7781 2.75731 18.4862C2.3812 19.2132 2.14291 19.8292 2.05536 20.4587C1.8333 22.0558 2.28751 23.6817 3.34049 24.9812L15.0992 11.2363ZM15.0992 11.2363C16.3452 11.8599 17.7949 11.8693 18.9696 11.2271C20.1551 10.5791 20.9184 9.34144 20.9742 7.92887C21.0166 6.85745 21.1251 6.05454 21.4382 5.33875C22.0947 3.83811 23.3659 2.62081 24.9983 1.98063C25.6491 1.7254 26.358 1.61059 27.2206 1.55484L15.0992 11.2363ZM5.51241 33.3146L5.51234 33.3147C4.54504 33.89 3.84874 34.3914 3.34033 35.0186C2.28731 36.3179 1.83302 37.9439 2.05507 39.541L5.51241 33.3146ZM5.51241 33.3146C6.71313 32.6003 7.50015 31.3712 7.50022 30.0001L5.51241 33.3146ZM2.75699 41.5136L2.75702 41.5136C3.12332 42.2217 3.63832 43.0677 4.30312 44.1579L4.30352 44.1586L4.37758 44.2802C5.04217 45.37 5.55884 46.2157 6.02385 46.8708L6.0239 46.8709C6.49985 47.5414 6.95053 48.0551 7.50023 48.4544L7.50035 48.4545C8.89151 49.4652 10.6639 49.9194 12.4253 49.6999C13.2759 49.5938 14.0927 49.2671 15.0986 48.7637C16.3447 48.14 17.7948 48.1304 18.9698 48.7731C20.1551 49.4211 20.9184 50.6586 20.9742 52.0713C21.0165 53.1425 21.1251 53.9455 21.4382 54.6613C22.0947 56.1619 23.366 57.3793 24.9983 58.0195L24.9984 58.0195C25.649 58.2747 26.3578 58.3894 27.2205 58.4451L27.2207 58.4451C28.0595 58.4993 29.0984 58.5 30.4254 58.5H30.5743C31.9015 58.5 32.9402 58.4993 33.7793 58.4451L33.7795 58.4451C34.6422 58.3894 35.3509 58.2747 36.0017 58.0195L36.0017 58.0195C37.634 57.3793 38.9054 56.1619 39.5618 54.6613C39.8749 53.9456 39.9833 53.1428 40.0256 52.0711L40.0256 52.0709C40.0815 50.6584 40.8448 49.4211 42.0298 48.7728L42.0302 48.7726C43.2051 48.1305 44.6549 48.14 45.9007 48.7632L45.901 48.7633C46.9072 49.2669 47.7237 49.5937 48.5741 49.6996L48.5743 49.6996C50.3358 49.9192 52.1082 49.4651 53.4992 48.4545L2.75699 41.5136ZM2.75699 41.5136C2.38097 40.7868 2.14264 40.1706 2.05507 39.5411L2.75699 41.5136ZM56.6219 44.2802L56.6221 44.28L56.6965 44.158C57.3613 43.0677 57.8764 42.2214 58.2427 41.5134L58.2427 41.5134C58.6186 40.7869 58.8568 40.1708 58.9446 39.5411C59.1667 37.9437 58.7123 36.3177 57.6592 35.0183L57.6592 35.0182C57.151 34.3912 56.4549 33.8902 55.4876 33.3147C55.4875 33.3147 55.4875 33.3146 55.4874 33.3146L56.2544 32.0255L56.6219 44.2802ZM56.6219 44.2802C55.9574 45.37 55.4408 46.2158 54.9758 46.8708M56.6219 44.2802L54.9758 46.8708M56.6969 15.8424L56.6958 15.8406L56.6226 15.7202C55.9576 14.63 55.4411 13.7842 54.9761 13.1291C54.5 12.4584 54.0495 11.9449 53.4997 11.5455L53.4996 11.5454C52.1086 10.5348 50.3361 10.0805 48.5743 10.3001C48.5743 10.3001 48.5743 10.3001 48.5743 10.3001M56.6969 15.8424L45.23 9.89503C46.2778 9.37066 47.2793 8.94994 48.3888 8.81163L48.5743 10.3001M56.6969 15.8424C57.3618 16.9323 57.8768 17.7785 58.243 18.4864C58.6189 19.213 58.8571 19.8291 58.9449 20.4589L56.6969 15.8424ZM48.5743 10.3001C47.724 10.4061 46.9074 10.7329 45.9012 11.2364C44.6552 11.86 43.2053 11.8694 42.0305 11.2272M48.5743 10.3001L42.0305 11.2272M42.0305 11.2272C40.8452 10.5792 40.0815 9.34159 40.0256 7.92881L40.0256 7.92861C39.9833 6.85713 39.8749 6.05438 39.5618 5.33876L39.5618 5.33873C38.9054 3.83816 37.634 2.62084 36.0017 1.98064L42.0305 11.2272ZM30.5743 1.5C31.9015 1.49997 32.9402 1.50066 33.7793 1.55484L30.5743 1.5ZM5.51235 26.6851C6.71327 27.3994 7.5003 28.6286 7.50022 30.0001L5.51235 26.6851ZM5.51235 26.6851C4.54532 26.1098 3.84908 25.6085 3.34069 24.9815L5.51235 26.6851ZM54.9758 46.8708C54.4998 47.5413 54.0493 48.0548 53.4993 48.4545L54.9758 46.8708ZM30.5005 18.0349C23.646 18.0349 17.9475 23.3157 17.9475 30C17.9475 36.6845 23.646 41.9652 30.5005 41.9652C37.3551 41.9652 43.0535 36.6845 43.0535 30C43.0535 23.3157 37.3551 18.0349 30.5005 18.0349ZM33.7794 1.55485C34.642 1.61059 35.3508 1.7254 36.0017 1.98062L33.7794 1.55485Z" stroke="white" stroke-width="3"/>
</g>
<defs>
<clipPath id="clip0_1027_8155">
<rect width="60" height="60" fill="white" transform="translate(0.5)"/>
</clipPath>
</defs>
</svg>
