<svg width="61" height="60" viewBox="0 0 61 60" fill="none" xmlns="http://www.w3.org/2000/svg">
<path d="M13 32.5H48V16.25C48 14.1789 46.3211 12.5 44.25 12.5H16.75C14.6789 12.5 13 14.1789 13 16.25V32.5ZM50.5 33.5L55.2115 44.8077C55.402 45.2647 55.5 45.7549 55.5 46.25C55.5 48.3211 53.8211 50 51.75 50H9.25C8.7549 50 8.26471 49.902 7.80769 49.7115C5.89594 48.915 4.9919 46.7194 5.78846 44.8077L10.5 33.5V16.25C10.5 12.7982 13.2982 10 16.75 10H44.25C47.7018 10 50.5 12.7982 50.5 16.25V33.5ZM12.5833 35L8.09616 45.7692C7.83063 46.4065 8.13198 47.1383 8.76923 47.4038C8.92157 47.4673 9.08497 47.5 9.25 47.5H51.75C52.4404 47.5 53 46.9404 53 46.25C53 46.085 52.9673 45.9216 52.9038 45.7692L48.4167 35H12.5833ZM16.75 40C16.0596 40 15.5 39.4404 15.5 38.75C15.5 38.0596 16.0596 37.5 16.75 37.5H19.25C19.9404 37.5 20.5 38.0596 20.5 38.75C20.5 39.4404 19.9404 40 19.25 40H16.75ZM14.25 45C13.5596 45 13 44.4404 13 43.75C13 43.0596 13.5596 42.5 14.25 42.5H16.75C17.4404 42.5 18 43.0596 18 43.75C18 44.4404 17.4404 45 16.75 45H14.25ZM21.75 45C21.0596 45 20.5 44.4404 20.5 43.75C20.5 43.0596 21.0596 42.5 21.75 42.5H31.75C32.4404 42.5 33 43.0596 33 43.75C33 44.4404 32.4404 45 31.75 45H21.75ZM36.75 45C36.0596 45 35.5 44.4404 35.5 43.75C35.5 43.0596 36.0596 42.5 36.75 42.5H39.25C39.9404 42.5 40.5 43.0596 40.5 43.75C40.5 44.4404 39.9404 45 39.25 45H36.75ZM44.25 45C43.5596 45 43 44.4404 43 43.75C43 43.0596 43.5596 42.5 44.25 42.5H46.75C47.4404 42.5 48 43.0596 48 43.75C48 44.4404 47.4404 45 46.75 45H44.25ZM24.25 40C23.5596 40 23 39.4404 23 38.75C23 38.0596 23.5596 37.5 24.25 37.5H26.75C27.4404 37.5 28 38.0596 28 38.75C28 39.4404 27.4404 40 26.75 40H24.25ZM31.75 40C31.0596 40 30.5 39.4404 30.5 38.75C30.5 38.0596 31.0596 37.5 31.75 37.5H34.25C34.9404 37.5 35.5 38.0596 35.5 38.75C35.5 39.4404 34.9404 40 34.25 40H31.75ZM39.25 40C38.5596 40 38 39.4404 38 38.75C38 38.0596 38.5596 37.5 39.25 37.5H41.75C42.4404 37.5 43 38.0596 43 38.75C43 39.4404 42.4404 40 41.75 40H39.25Z" fill="white"/>
</svg>
