<svg width="280" height="115" viewBox="0 0 280 115" fill="none" xmlns="http://www.w3.org/2000/svg">
<rect width="280" height="115" rx="20" fill="white"/>
<path d="M125.833 43.834V48.834C125.833 55.1193 125.833 58.2622 127.786 60.2147C129.738 62.1673 132.881 62.1673 139.166 62.1673H140.833C147.118 62.1673 150.261 62.1673 152.214 60.2147M154.166 43.834V48.834C154.166 50.7837 154.166 52.4308 154.108 53.834" stroke="#252525" stroke-width="2" stroke-linecap="round"/>
<path d="M135.833 28.834H144.167M135.833 28.834L134.747 39.6963C134.436 42.804 136.877 45.5007 140 45.5007C143.123 45.5007 145.564 42.804 145.253 39.6963L144.167 28.834M135.833 28.834H132.363C130.849 28.834 130.093 28.834 129.444 29.0119C128.076 29.3868 126.932 30.3246 126.296 31.5921M135.833 28.834L134.626 40.9094C134.365 43.5158 132.172 45.5007 129.552 45.5007C126.335 45.5007 123.922 42.5572 124.553 39.4022L124.667 38.834M144.167 28.834H147.637C149.151 28.834 149.907 28.834 150.556 29.0119C151.924 29.3868 153.068 30.3246 153.703 31.5921C154.005 32.1935 154.154 32.9355 154.45 34.4195L155.447 39.4022C156.078 42.5572 153.665 45.5007 150.447 45.5007C147.828 45.5007 145.635 43.5158 145.374 40.9094L144.167 28.834Z" stroke="#252525" stroke-width="2" stroke-linecap="round"/>
<path d="M135.833 61.3327V56.3327C135.833 54.775 135.833 53.9962 136.168 53.416C136.387 53.036 136.703 52.7203 137.083 52.501C137.663 52.166 138.442 52.166 140 52.166C141.557 52.166 142.336 52.166 142.916 52.501C143.296 52.7203 143.612 53.036 143.831 53.416C144.166 53.9962 144.166 54.775 144.166 56.3327V61.3327" stroke="#252525" stroke-width="2" stroke-linecap="round"/>
<path d="M66.092 87.5V77.63H74.73V87.5H72.938V79.1H67.87V87.5H66.092ZM80.2805 87.64C79.0951 87.64 78.1665 87.3133 77.4945 86.66C76.8225 86.0067 76.4865 85.1107 76.4865 83.972C76.4865 83.2347 76.6311 82.5907 76.9205 82.04C77.2098 81.4893 77.6111 81.06 78.1245 80.752C78.6471 80.444 79.2538 80.29 79.9445 80.29C80.6258 80.29 81.1951 80.4347 81.6525 80.724C82.1098 81.0133 82.4551 81.4193 82.6885 81.942C82.9311 82.4647 83.0525 83.076 83.0525 83.776V84.238H77.9005V83.314H81.8065L81.5685 83.51C81.5685 82.8567 81.4285 82.3573 81.1485 82.012C80.8778 81.6667 80.4811 81.494 79.9585 81.494C79.3798 81.494 78.9318 81.6993 78.6145 82.11C78.3065 82.5207 78.1525 83.0947 78.1525 83.832V84.014C78.1525 84.7793 78.3391 85.3533 78.7125 85.736C79.0951 86.1093 79.6318 86.296 80.3225 86.296C80.7238 86.296 81.0971 86.2447 81.4425 86.142C81.7971 86.03 82.1331 85.8527 82.4505 85.61L82.9685 86.786C82.6325 87.0567 82.2311 87.2667 81.7645 87.416C81.2978 87.5653 80.8031 87.64 80.2805 87.64ZM84.7258 90.524V82.194C84.7258 81.9047 84.7164 81.6107 84.6978 81.312C84.6791 81.0133 84.6511 80.7193 84.6138 80.43H86.3078L86.4618 81.914H86.3078C86.4478 81.4193 86.7418 81.0273 87.1898 80.738C87.6471 80.4393 88.1744 80.29 88.7718 80.29C89.3971 80.29 89.9431 80.4393 90.4098 80.738C90.8764 81.0273 91.2404 81.4473 91.5018 81.998C91.7631 82.5393 91.8938 83.1927 91.8938 83.958C91.8938 84.7233 91.7631 85.3813 91.5018 85.932C91.2404 86.4827 90.8764 86.9073 90.4098 87.206C89.9431 87.4953 89.3971 87.64 88.7718 87.64C88.1838 87.64 87.6658 87.4953 87.2178 87.206C86.7698 86.9167 86.4711 86.5293 86.3218 86.044H86.4758V90.524H84.7258ZM88.2818 86.296C88.8418 86.296 89.2898 86.1047 89.6258 85.722C89.9618 85.33 90.1298 84.742 90.1298 83.958C90.1298 83.174 89.9618 82.5907 89.6258 82.208C89.2898 81.8253 88.8418 81.634 88.2818 81.634C87.7311 81.634 87.2878 81.8253 86.9518 82.208C86.6158 82.5907 86.4478 83.174 86.4478 83.958C86.4478 84.742 86.6158 85.33 86.9518 85.722C87.2878 86.1047 87.7311 86.296 88.2818 86.296ZM97.0148 87.64C95.8295 87.64 94.9008 87.3133 94.2288 86.66C93.5568 86.0067 93.2208 85.1107 93.2208 83.972C93.2208 83.2347 93.3655 82.5907 93.6548 82.04C93.9442 81.4893 94.3455 81.06 94.8588 80.752C95.3815 80.444 95.9882 80.29 96.6788 80.29C97.3602 80.29 97.9295 80.4347 98.3868 80.724C98.8442 81.0133 99.1895 81.4193 99.4228 81.942C99.6655 82.4647 99.7868 83.076 99.7868 83.776V84.238H94.6348V83.314H98.5408L98.3028 83.51C98.3028 82.8567 98.1628 82.3573 97.8828 82.012C97.6122 81.6667 97.2155 81.494 96.6928 81.494C96.1142 81.494 95.6662 81.6993 95.3488 82.11C95.0408 82.5207 94.8868 83.0947 94.8868 83.832V84.014C94.8868 84.7793 95.0735 85.3533 95.4468 85.736C95.8295 86.1093 96.3662 86.296 97.0568 86.296C97.4582 86.296 97.8315 86.2447 98.1768 86.142C98.5315 86.03 98.8675 85.8527 99.1848 85.61L99.7028 86.786C99.3668 87.0567 98.9655 87.2667 98.4988 87.416C98.0322 87.5653 97.5375 87.64 97.0148 87.64ZM101.404 87.5V80.43H102.986V85.778H102.566L106.584 80.43H108.026V87.5H106.444V82.138H106.878L102.846 87.5H101.404ZM104.708 79.786C104.241 79.786 103.831 79.7113 103.476 79.562C103.121 79.4033 102.827 79.184 102.594 78.904C102.361 78.6147 102.193 78.274 102.09 77.882L102.986 77.574C103.145 78.0033 103.364 78.3207 103.644 78.526C103.924 78.722 104.283 78.82 104.722 78.82C105.161 78.82 105.52 78.722 105.8 78.526C106.08 78.33 106.309 78.0173 106.486 77.588L107.34 77.882C107.144 78.5073 106.817 78.9833 106.36 79.31C105.912 79.6273 105.361 79.786 104.708 79.786ZM111.543 87.5V81.802H109.121V80.43H115.715V81.802H113.279V87.5H111.543ZM116.799 87.5V80.43H118.381V85.778H117.961L121.979 80.43H123.421V87.5H121.839V82.138H122.273L118.241 87.5H116.799ZM128.624 89.32V86.17H129.436C129.716 85.7313 129.916 85.218 130.038 84.63C130.168 84.0327 130.234 83.3047 130.234 82.446V80.43H135.68V86.17H136.828V89.32H135.344V87.5H130.108V89.32H128.624ZM131.004 86.184H134.042V81.746H131.718V82.838C131.718 83.4633 131.657 84.0747 131.536 84.672C131.414 85.2693 131.237 85.7733 131.004 86.184ZM141.361 87.64C140.633 87.64 140.003 87.4907 139.471 87.192C138.939 86.8933 138.524 86.4687 138.225 85.918C137.936 85.3673 137.791 84.714 137.791 83.958C137.791 83.202 137.936 82.5533 138.225 82.012C138.524 81.4613 138.939 81.0367 139.471 80.738C140.003 80.4393 140.633 80.29 141.361 80.29C142.089 80.29 142.719 80.4393 143.251 80.738C143.792 81.0367 144.208 81.4613 144.497 82.012C144.796 82.5533 144.945 83.202 144.945 83.958C144.945 84.714 144.796 85.3673 144.497 85.918C144.208 86.4687 143.792 86.8933 143.251 87.192C142.719 87.4907 142.089 87.64 141.361 87.64ZM141.361 86.296C141.912 86.296 142.35 86.1047 142.677 85.722C143.004 85.33 143.167 84.742 143.167 83.958C143.167 83.174 143.004 82.5907 142.677 82.208C142.35 81.8253 141.912 81.634 141.361 81.634C140.81 81.634 140.372 81.8253 140.045 82.208C139.718 82.5907 139.555 83.174 139.555 83.958C139.555 84.742 139.718 85.33 140.045 85.722C140.372 86.1047 140.81 86.296 141.361 86.296ZM150.445 87.5V80.43H152.181V83.202H153.245L155.317 80.43H157.193L154.589 83.958L154.211 83.412C154.473 83.44 154.701 83.51 154.897 83.622C155.103 83.734 155.294 83.8927 155.471 84.098C155.658 84.294 155.84 84.546 156.017 84.854L157.501 87.5H155.639L154.435 85.372C154.314 85.1573 154.193 84.9893 154.071 84.868C153.95 84.7467 153.815 84.6627 153.665 84.616C153.516 84.5693 153.334 84.546 153.119 84.546H152.181V87.5H150.445ZM158.486 90.524V82.194C158.486 81.9047 158.476 81.6107 158.458 81.312C158.439 81.0133 158.411 80.7193 158.374 80.43H160.068L160.222 81.914H160.068C160.208 81.4193 160.502 81.0273 160.95 80.738C161.407 80.4393 161.934 80.29 162.532 80.29C163.157 80.29 163.703 80.4393 164.17 80.738C164.636 81.0273 165 81.4473 165.262 81.998C165.523 82.5393 165.654 83.1927 165.654 83.958C165.654 84.7233 165.523 85.3813 165.262 85.932C165 86.4827 164.636 86.9073 164.17 87.206C163.703 87.4953 163.157 87.64 162.532 87.64C161.944 87.64 161.426 87.4953 160.978 87.206C160.53 86.9167 160.231 86.5293 160.082 86.044H160.236V90.524H158.486ZM162.042 86.296C162.602 86.296 163.05 86.1047 163.386 85.722C163.722 85.33 163.89 84.742 163.89 83.958C163.89 83.174 163.722 82.5907 163.386 82.208C163.05 81.8253 162.602 81.634 162.042 81.634C161.491 81.634 161.048 81.8253 160.712 82.208C160.376 82.5907 160.208 83.174 160.208 83.958C160.208 84.742 160.376 85.33 160.712 85.722C161.048 86.1047 161.491 86.296 162.042 86.296ZM170.089 87.64C169.473 87.64 168.931 87.4953 168.465 87.206C167.998 86.9073 167.634 86.4827 167.373 85.932C167.111 85.3813 166.981 84.7233 166.981 83.958C166.981 83.1927 167.111 82.5393 167.373 81.998C167.634 81.4473 167.998 81.0273 168.465 80.738C168.931 80.4393 169.473 80.29 170.089 80.29C170.686 80.29 171.209 80.4393 171.657 80.738C172.114 81.0273 172.417 81.4193 172.567 81.914H172.413L172.567 80.43H174.247C174.219 80.7193 174.191 81.0133 174.163 81.312C174.144 81.6107 174.135 81.9047 174.135 82.194V87.5H172.399L172.385 86.044H172.553C172.403 86.5293 172.1 86.9167 171.643 87.206C171.185 87.4953 170.667 87.64 170.089 87.64ZM170.579 86.296C171.129 86.296 171.573 86.1047 171.909 85.722C172.245 85.33 172.413 84.742 172.413 83.958C172.413 83.174 172.245 82.5907 171.909 82.208C171.573 81.8253 171.129 81.634 170.579 81.634C170.028 81.634 169.585 81.8253 169.249 82.208C168.913 82.5907 168.745 83.174 168.745 83.958C168.745 84.742 168.908 85.33 169.235 85.722C169.571 86.1047 170.019 86.296 170.579 86.296ZM176.176 87.5V80.43H177.632L180.068 84.658L182.504 80.43H183.96V87.5H182.42V82.39H182.742L180.474 86.352H179.662L177.394 82.39H177.716V87.5H176.176ZM185.951 87.5V80.43H187.687V83.202H190.879V80.43H192.615V87.5H190.879V84.546H187.687V87.5H185.951ZM194.605 87.5V80.43H196.187V85.778H195.767L199.785 80.43H201.227V87.5H199.645V82.138H200.079L196.047 87.5H194.605ZM209.351 89.32V87.5H203.219V80.43H204.955V86.156H207.951V80.43H209.673V86.156H210.821V89.32H209.351ZM212.161 87.5V80.43H213.911V87.5H212.161ZM212.063 79.1V77.392H214.009V79.1H212.063Z" fill="#252525"/>
</svg>
