<svg width="420" height="561" viewBox="0 0 420 561" fill="none" xmlns="http://www.w3.org/2000/svg">
<rect width="420" height="561" rx="50" fill="white"/>
<path d="M188.75 259V266.5C188.75 275.928 188.75 280.642 191.679 283.571C194.608 286.5 199.322 286.5 208.75 286.5H211.25C220.678 286.5 225.392 286.5 228.321 283.571M231.25 259V266.5C231.25 269.425 231.25 271.895 231.163 274" stroke="#252525" stroke-width="2" stroke-linecap="round"/>
<path d="M203.75 236.5H216.25M203.75 236.5L202.12 252.793C201.654 257.455 205.315 261.5 210 261.5C214.685 261.5 218.345 257.455 217.879 252.793L216.25 236.5M203.75 236.5H198.544C196.274 236.5 195.139 236.5 194.165 236.767C192.114 237.329 190.398 238.736 189.445 240.637M203.75 236.5L201.938 254.613C201.548 258.523 198.258 261.5 194.329 261.5C189.503 261.5 185.883 257.085 186.829 252.352L187 251.5M216.25 236.5H221.456C223.726 236.5 224.861 236.5 225.834 236.767C227.885 237.329 229.602 238.736 230.555 240.637C231.008 241.539 231.23 242.652 231.676 244.878L233.17 252.352C234.117 257.085 230.497 261.5 225.671 261.5C221.742 261.5 218.452 258.523 218.061 254.613L216.25 236.5Z" stroke="#252525" stroke-width="2" stroke-linecap="round"/>
<path d="M203.75 285.25V277.75C203.75 275.414 203.75 274.245 204.252 273.375C204.582 272.805 205.055 272.332 205.625 272.003C206.495 271.5 207.664 271.5 210 271.5C212.336 271.5 213.505 271.5 214.375 272.003C214.945 272.332 215.418 272.805 215.747 273.375C216.25 274.245 216.25 275.414 216.25 277.75V285.25" stroke="#252525" stroke-width="2" stroke-linecap="round"/>
<path d="M114.904 327.5V314.81H126.01V327.5H123.706V316.7H117.19V327.5H114.904ZM133.146 327.68C131.622 327.68 130.428 327.26 129.564 326.42C128.7 325.58 128.268 324.428 128.268 322.964C128.268 322.016 128.454 321.188 128.826 320.48C129.198 319.772 129.714 319.22 130.374 318.824C131.046 318.428 131.826 318.23 132.714 318.23C133.59 318.23 134.322 318.416 134.91 318.788C135.498 319.16 135.942 319.682 136.242 320.354C136.554 321.026 136.71 321.812 136.71 322.712V323.306H130.086V322.118H135.108L134.802 322.37C134.802 321.53 134.622 320.888 134.262 320.444C133.914 320 133.404 319.778 132.732 319.778C131.988 319.778 131.412 320.042 131.004 320.57C130.608 321.098 130.41 321.836 130.41 322.784V323.018C130.41 324.002 130.65 324.74 131.13 325.232C131.622 325.712 132.312 325.952 133.2 325.952C133.716 325.952 134.196 325.886 134.64 325.754C135.096 325.61 135.528 325.382 135.936 325.07L136.602 326.582C136.17 326.93 135.654 327.2 135.054 327.392C134.454 327.584 133.818 327.68 133.146 327.68ZM138.862 331.388V320.678C138.862 320.306 138.85 319.928 138.826 319.544C138.802 319.16 138.766 318.782 138.718 318.41H140.896L141.094 320.318H140.896C141.076 319.682 141.454 319.178 142.03 318.806C142.618 318.422 143.296 318.23 144.064 318.23C144.868 318.23 145.57 318.422 146.17 318.806C146.77 319.178 147.238 319.718 147.574 320.426C147.91 321.122 148.078 321.962 148.078 322.946C148.078 323.93 147.91 324.776 147.574 325.484C147.238 326.192 146.77 326.738 146.17 327.122C145.57 327.494 144.868 327.68 144.064 327.68C143.308 327.68 142.642 327.494 142.066 327.122C141.49 326.75 141.106 326.252 140.914 325.628H141.112V331.388H138.862ZM143.434 325.952C144.154 325.952 144.73 325.706 145.162 325.214C145.594 324.71 145.81 323.954 145.81 322.946C145.81 321.938 145.594 321.188 145.162 320.696C144.73 320.204 144.154 319.958 143.434 319.958C142.726 319.958 142.156 320.204 141.724 320.696C141.292 321.188 141.076 321.938 141.076 322.946C141.076 323.954 141.292 324.71 141.724 325.214C142.156 325.706 142.726 325.952 143.434 325.952ZM154.662 327.68C153.138 327.68 151.944 327.26 151.08 326.42C150.216 325.58 149.784 324.428 149.784 322.964C149.784 322.016 149.97 321.188 150.342 320.48C150.714 319.772 151.23 319.22 151.89 318.824C152.562 318.428 153.342 318.23 154.23 318.23C155.106 318.23 155.838 318.416 156.426 318.788C157.014 319.16 157.458 319.682 157.758 320.354C158.07 321.026 158.226 321.812 158.226 322.712V323.306H151.602V322.118H156.624L156.318 322.37C156.318 321.53 156.138 320.888 155.778 320.444C155.43 320 154.92 319.778 154.248 319.778C153.504 319.778 152.928 320.042 152.52 320.57C152.124 321.098 151.926 321.836 151.926 322.784V323.018C151.926 324.002 152.166 324.74 152.646 325.232C153.138 325.712 153.828 325.952 154.716 325.952C155.232 325.952 155.712 325.886 156.156 325.754C156.612 325.61 157.044 325.382 157.452 325.07L158.118 326.582C157.686 326.93 157.17 327.2 156.57 327.392C155.97 327.584 155.334 327.68 154.662 327.68ZM160.305 327.5V318.41H162.339V325.286H161.799L166.965 318.41H168.819V327.5H166.785V320.606H167.343L162.159 327.5H160.305ZM164.553 317.582C163.953 317.582 163.425 317.486 162.969 317.294C162.513 317.09 162.135 316.808 161.835 316.448C161.535 316.076 161.319 315.638 161.187 315.134L162.339 314.738C162.543 315.29 162.825 315.698 163.185 315.962C163.545 316.214 164.007 316.34 164.571 316.34C165.135 316.34 165.597 316.214 165.957 315.962C166.317 315.71 166.611 315.308 166.839 314.756L167.937 315.134C167.685 315.938 167.265 316.55 166.677 316.97C166.101 317.378 165.393 317.582 164.553 317.582ZM173.342 327.5V320.174H170.228V318.41H178.706V320.174H175.574V327.5H173.342ZM180.098 327.5V318.41H182.132V325.286H181.592L186.758 318.41H188.612V327.5H186.578V320.606H187.136L181.952 327.5H180.098ZM195.302 329.84V325.79H196.346C196.706 325.226 196.964 324.566 197.12 323.81C197.288 323.042 197.372 322.106 197.372 321.002V318.41H204.374V325.79H205.85V329.84H203.942V327.5H197.21V329.84H195.302ZM198.362 325.808H202.268V320.102H199.28V321.506C199.28 322.31 199.202 323.096 199.046 323.864C198.89 324.632 198.662 325.28 198.362 325.808ZM211.679 327.68C210.743 327.68 209.933 327.488 209.249 327.104C208.565 326.72 208.031 326.174 207.647 325.466C207.275 324.758 207.089 323.918 207.089 322.946C207.089 321.974 207.275 321.14 207.647 320.444C208.031 319.736 208.565 319.19 209.249 318.806C209.933 318.422 210.743 318.23 211.679 318.23C212.615 318.23 213.425 318.422 214.109 318.806C214.805 319.19 215.339 319.736 215.711 320.444C216.095 321.14 216.287 321.974 216.287 322.946C216.287 323.918 216.095 324.758 215.711 325.466C215.339 326.174 214.805 326.72 214.109 327.104C213.425 327.488 212.615 327.68 211.679 327.68ZM211.679 325.952C212.387 325.952 212.951 325.706 213.371 325.214C213.791 324.71 214.001 323.954 214.001 322.946C214.001 321.938 213.791 321.188 213.371 320.696C212.951 320.204 212.387 319.958 211.679 319.958C210.971 319.958 210.407 320.204 209.987 320.696C209.567 321.188 209.357 321.938 209.357 322.946C209.357 323.954 209.567 324.71 209.987 325.214C210.407 325.706 210.971 325.952 211.679 325.952ZM223.358 327.5V318.41H225.59V321.974H226.958L229.622 318.41H232.034L228.686 322.946L228.2 322.244C228.536 322.28 228.83 322.37 229.082 322.514C229.346 322.658 229.592 322.862 229.82 323.126C230.06 323.378 230.294 323.702 230.522 324.098L232.43 327.5H230.036L228.488 324.764C228.332 324.488 228.176 324.272 228.02 324.116C227.864 323.96 227.69 323.852 227.498 323.792C227.306 323.732 227.072 323.702 226.796 323.702H225.59V327.5H223.358ZM233.696 331.388V320.678C233.696 320.306 233.684 319.928 233.66 319.544C233.636 319.16 233.6 318.782 233.552 318.41H235.73L235.928 320.318H235.73C235.91 319.682 236.288 319.178 236.864 318.806C237.452 318.422 238.13 318.23 238.898 318.23C239.702 318.23 240.404 318.422 241.004 318.806C241.604 319.178 242.072 319.718 242.408 320.426C242.744 321.122 242.912 321.962 242.912 322.946C242.912 323.93 242.744 324.776 242.408 325.484C242.072 326.192 241.604 326.738 241.004 327.122C240.404 327.494 239.702 327.68 238.898 327.68C238.142 327.68 237.476 327.494 236.9 327.122C236.324 326.75 235.94 326.252 235.748 325.628H235.946V331.388H233.696ZM238.268 325.952C238.988 325.952 239.564 325.706 239.996 325.214C240.428 324.71 240.644 323.954 240.644 322.946C240.644 321.938 240.428 321.188 239.996 320.696C239.564 320.204 238.988 319.958 238.268 319.958C237.56 319.958 236.99 320.204 236.558 320.696C236.126 321.188 235.91 321.938 235.91 322.946C235.91 323.954 236.126 324.71 236.558 325.214C236.99 325.706 237.56 325.952 238.268 325.952ZM248.614 327.68C247.822 327.68 247.126 327.494 246.526 327.122C245.926 326.738 245.458 326.192 245.122 325.484C244.786 324.776 244.618 323.93 244.618 322.946C244.618 321.962 244.786 321.122 245.122 320.426C245.458 319.718 245.926 319.178 246.526 318.806C247.126 318.422 247.822 318.23 248.614 318.23C249.382 318.23 250.054 318.422 250.63 318.806C251.218 319.178 251.608 319.682 251.8 320.318H251.602L251.8 318.41H253.96C253.924 318.782 253.888 319.16 253.852 319.544C253.828 319.928 253.816 320.306 253.816 320.678V327.5H251.584L251.566 325.628H251.782C251.59 326.252 251.2 326.75 250.612 327.122C250.024 327.494 249.358 327.68 248.614 327.68ZM249.244 325.952C249.952 325.952 250.522 325.706 250.954 325.214C251.386 324.71 251.602 323.954 251.602 322.946C251.602 321.938 251.386 321.188 250.954 320.696C250.522 320.204 249.952 319.958 249.244 319.958C248.536 319.958 247.966 320.204 247.534 320.696C247.102 321.188 246.886 321.938 246.886 322.946C246.886 323.954 247.096 324.71 247.516 325.214C247.948 325.706 248.524 325.952 249.244 325.952ZM256.44 327.5V318.41H258.312L261.444 323.846L264.576 318.41H266.448V327.5H264.468V320.93H264.882L261.966 326.024H260.922L258.006 320.93H258.42V327.5H256.44ZM269.008 327.5V318.41H271.24V321.974H275.344V318.41H277.576V327.5H275.344V323.702H271.24V327.5H269.008ZM280.135 327.5V318.41H282.169V325.286H281.629L286.795 318.41H288.649V327.5H286.615V320.606H287.173L281.989 327.5H280.135ZM299.094 329.84V327.5H291.21V318.41H293.442V325.772H297.294V318.41H299.508V325.772H300.984V329.84H299.094ZM302.707 327.5V318.41H304.957V327.5H302.707ZM302.581 316.7V314.504H305.083V316.7H302.581Z" fill="#252525"/>
</svg>
