<svg width="61" height="60" viewBox="0 0 61 60" fill="none" xmlns="http://www.w3.org/2000/svg">
<path d="M18.9625 40.8372C21.329 42.4374 24.0009 43.531 26.8102 44.0494C29.6195 44.5678 32.5057 44.4998 35.2875 43.8497C37.7665 43.2665 40.1095 42.2096 42.1875 40.7372M21.05 28.1372C20.2811 28.1372 19.5295 28.3652 18.8902 28.7924C18.2509 29.2195 17.7526 29.8267 17.4584 30.537C17.1642 31.2474 17.0872 32.029 17.2372 32.7831C17.3872 33.5372 17.7574 34.2299 18.3011 34.7736C18.8448 35.3173 19.5375 35.6875 20.2916 35.8375C21.0457 35.9875 21.8273 35.9105 22.5377 35.6163C23.248 35.322 23.8552 34.8238 24.2823 34.1845C24.7095 33.5452 24.9375 32.7936 24.9375 32.0247C24.9342 30.9947 24.5236 30.0078 23.7952 29.2795C23.0669 28.5511 22.08 28.1405 21.05 28.1372ZM39.9375 28.1372C39.4276 28.1372 38.9226 28.2378 38.4517 28.4334C37.9807 28.6289 37.553 28.9154 37.193 29.2766C36.833 29.6377 36.5479 30.0664 36.3539 30.538C36.1599 31.0095 36.0608 31.5148 36.0625 32.0247C36.0625 32.7941 36.2908 33.5462 36.7185 34.1858C37.1462 34.8253 37.7541 35.3236 38.4652 35.6175C39.1763 35.9113 39.9586 35.9876 40.713 35.8366C41.4674 35.6856 42.1601 35.3141 42.7033 34.7691C43.2465 34.2242 43.6157 33.5303 43.7643 32.7754C43.9129 32.0205 43.8341 31.2385 43.538 30.5283C43.2418 29.8182 42.7416 29.2119 42.1007 28.7863C41.4597 28.3606 40.7069 28.1347 39.9375 28.1372ZM25.5 21.3497C26.175 21.2747 27.55 21.1497 28.225 21.0997C28.9 21.0497 29.7375 21.0372 30.4875 21.0372C35.3165 21.0002 40.1049 21.9222 44.575 23.7497C45.0557 22.9342 45.7384 22.2563 46.5572 21.7812C47.376 21.3061 48.3034 21.0499 49.25 21.0372C50.7896 21.0862 52.2468 21.7443 53.3015 22.8669C54.3562 23.9896 54.9221 25.485 54.875 27.0247C54.8803 28.4343 54.4089 29.8043 53.5375 30.9122C54.3865 32.3396 54.8476 33.9641 54.875 35.6247C54.875 43.7497 43.9625 50.2122 30.5 50.2247C17.0375 50.2247 6.12498 43.7497 6.12498 35.6247C6.15421 33.9605 6.61508 32.3323 7.46248 30.8997C6.59368 29.7951 6.12249 28.43 6.12498 27.0247C6.07783 25.485 6.64376 23.9896 7.69846 22.8669C8.75316 21.7443 10.2104 21.0862 11.75 21.0372C12.6984 21.0489 13.6279 21.3046 14.4489 21.7797C15.2699 22.2548 15.9547 22.9332 16.4375 23.7497C19.3254 22.5129 22.3784 21.7044 25.5 21.3497Z" stroke="white" stroke-width="2" stroke-linecap="round" stroke-linejoin="round"/>
<path d="M31.9875 13.775L26.0125 12.75L27.7 21.0375" stroke="white" stroke-width="2" stroke-linecap="round" stroke-linejoin="round"/>
<path d="M36.375 18.5621C38.7981 18.5621 40.7625 16.5978 40.7625 14.1746C40.7625 11.7515 38.7981 9.78711 36.375 9.78711C33.9518 9.78711 31.9875 11.7515 31.9875 14.1746C31.9875 16.5978 33.9518 18.5621 36.375 18.5621Z" stroke="white" stroke-width="2" stroke-linecap="round" stroke-linejoin="round"/>
</svg>
