<svg width="61" height="60" viewBox="0 0 61 60" fill="none" xmlns="http://www.w3.org/2000/svg">
<path fill-rule="evenodd" clip-rule="evenodd" d="M59.3768 32.2294C60.4066 33.2592 60.0258 35.009 58.6612 35.5177L23.9591 48.4531C23.3968 48.6627 22.7805 48.6061 22.274 48.3189L22.223 48.37L21.8463 47.9933L17.1764 43.3234L12.5065 38.6535C11.9529 38.0999 11.7732 37.2742 12.0466 36.5407L24.9821 1.83855C25.4907 0.47398 27.2406 0.0931507 28.2703 1.12289L43.8236 16.6762L59.3768 32.2294ZM18.5906 41.9092L23.2605 46.5791L57.9626 33.6436L47.456 23.137L42.4094 18.0904L26.8561 2.53711L13.9207 37.2392L18.5906 41.9092Z" fill="white"/>
<rect x="12.6119" y="37.3447" width="14.9876" height="7.85067" rx="1" transform="rotate(45 12.6119 37.3447)" stroke="white" stroke-width="2" stroke-linejoin="round"/>
<path d="M44.974 40.7852L43.9958 40.9929L44.974 40.7852ZM43.7412 40.1575L43.3919 39.2205L43.7412 40.1575ZM29.7546 46.457L30.6303 45.9743L29.7546 46.457ZM30.2761 45.1767L29.9268 44.2397L30.2761 45.1767ZM31.8495 47.5935C31.356 47.1 30.9499 46.554 30.6303 45.9743L28.8788 46.9398C29.2883 47.6826 29.8075 48.3799 30.4353 49.0077L31.8495 47.5935ZM42.0425 47.5935C39.2278 50.4082 34.6642 50.4082 31.8495 47.5935L30.4353 49.0077C34.0311 52.6035 39.8609 52.6035 43.4567 49.0077L42.0425 47.5935ZM43.9958 40.9929C44.4861 43.3029 43.8337 45.8023 42.0425 47.5935L43.4567 49.0077C45.7466 46.7178 46.5771 43.5218 45.9522 40.5776L43.9958 40.9929ZM43.3919 39.2205L29.9268 44.2397L30.6254 46.1137L44.0904 41.0945L43.3919 39.2205ZM45.9522 40.5776C45.6911 39.3471 44.4067 38.8422 43.3919 39.2205L44.0904 41.0945C44.0945 41.093 44.0867 41.0977 44.0675 41.0882C44.0568 41.0829 44.041 41.0722 44.0255 41.0529C44.0089 41.0322 43.9994 41.0097 43.9958 40.9929L45.9522 40.5776ZM30.6303 45.9743C30.6387 45.9895 30.6463 46.0128 30.6473 46.0395C30.6482 46.0643 30.6432 46.0829 30.6385 46.094C30.6302 46.1138 30.6212 46.1153 30.6254 46.1137L29.9268 44.2397C28.9133 44.6175 28.2716 45.8383 28.8788 46.9398L30.6303 45.9743Z" fill="white"/>
<line x1="23.6146" y1="11.6074" x2="30.275" y2="18.2678" stroke="white" stroke-width="2" stroke-linecap="round"/>
<line x1="21.596" y1="16.6533" x2="24.7237" y2="19.781" stroke="white" stroke-width="2" stroke-linecap="round"/>
<path d="M45.5937 2.4707L43.4693 10.399" stroke="white" stroke-width="2" stroke-linecap="round"/>
<path d="M54.4986 6.56055L48.695 12.3641" stroke="white" stroke-width="2" stroke-linecap="round"/>
<path d="M58.5886 15.4658L50.6603 17.5902" stroke="white" stroke-width="2" stroke-linecap="round"/>
</svg>
