<svg width="61" height="60" viewBox="0 0 61 60" fill="none" xmlns="http://www.w3.org/2000/svg">
<path d="M26.7252 5.57539L14.2504 10.2504C11.3754 11.3254 9.02539 14.7253 9.02539 17.8003V36.3752C9.02539 39.3252 10.9754 43.2002 13.3504 44.9752L24.1004 53.0005C27.6255 55.6505 33.4252 55.6505 36.9502 53.0005L47.7005 44.9752C50.0755 43.2002 52.0252 39.3252 52.0252 36.3752V17.8003C52.0252 14.7253 49.6752 11.3254 46.8002 10.2504L34.3255 5.57539C32.2005 4.80039 28.8002 4.80039 26.7252 5.57539Z" stroke="white" stroke-width="2" stroke-linecap="round" stroke-linejoin="round"/>
<path d="M30.4992 27.3C30.3992 27.3 30.2742 27.3 30.1742 27.3C27.8242 27.225 25.9492 25.275 25.9492 22.9C25.9492 20.475 27.9242 18.5 30.3492 18.5C32.7742 18.5 34.7492 20.475 34.7492 22.9C34.7242 25.3 32.8492 27.225 30.4992 27.3Z" stroke="white" stroke-width="2" stroke-linecap="round" stroke-linejoin="round"/>
<path d="M25.5227 34.2994C23.1226 35.8994 23.1226 38.5244 25.5227 40.1242C28.2477 41.9494 32.7227 41.9494 35.4477 40.1242C37.8477 38.5244 37.8477 35.8994 35.4477 34.2994C32.7477 32.4744 28.2727 32.4744 25.5227 34.2994Z" stroke="white" stroke-width="2" stroke-linecap="round" stroke-linejoin="round"/>
</svg>
