<svg width="61" height="60" viewBox="0 0 61 60" fill="none" xmlns="http://www.w3.org/2000/svg">
<g clip-path="url(#clip0_1031_8185)">
<path fill-rule="evenodd" clip-rule="evenodd" d="M12.5 15.0074C12.5 13.3465 13.8673 12 15.5074 12H45.4926C47.1535 12 48.5 13.3673 48.5 15.0074V44.9926C48.5 46.6535 47.1327 48 45.4926 48H15.5074C13.8465 48 12.5 46.6327 12.5 44.9926V15.0074ZM15.5 15H45.5V45H15.5V15ZM51.5 13.5013C51.5 12.6722 52.1958 12 53 12C53.8284 12 54.5 12.6924 54.5 13.5013V34.4987C54.5 35.3278 53.8042 36 53 36C52.1716 36 51.5 35.3076 51.5 34.4987V13.5013ZM57.5 13.4714C57.5 12.6588 58.1958 12 59 12C59.8284 12 60.5 12.6452 60.5 13.4714V22.5286C60.5 23.3412 59.8042 24 59 24C58.1716 24 57.5 23.3548 57.5 22.5286V13.4714ZM6.5 46.4987C6.5 47.3278 7.1958 48 8 48C8.82843 48 9.5 47.3076 9.5 46.4987V25.5013C9.5 24.6722 8.8042 24 8 24C7.17157 24 6.5 24.6924 6.5 25.5013V46.4987ZM0.5 46.5286C0.5 47.3412 1.1958 48 2 48C2.82843 48 3.5 47.3548 3.5 46.5286V37.4714C3.5 36.6588 2.8042 36 2 36C1.17157 36 0.5 36.6452 0.5 37.4714V46.5286Z" fill="white"/>
</g>
<defs>
<clipPath id="clip0_1031_8185">
<rect width="60" height="60" fill="white" transform="translate(0.5)"/>
</clipPath>
</defs>
</svg>
