<svg width="61" height="60" viewBox="0 0 61 60" fill="none" xmlns="http://www.w3.org/2000/svg">
<path d="M48.925 20.6871V21.9371C48.925 34.5246 39.375 48.9496 21.9 48.9496C16.7412 48.9608 11.6919 47.4616 7.375 44.6371C8.12472 44.7389 8.88097 44.7849 9.6375 44.7746C13.9138 44.7864 18.0698 43.3599 21.4375 40.7246C19.4508 40.6953 17.524 40.0406 15.9307 38.8535C14.3374 37.6664 13.1589 36.0074 12.5625 34.1121C13.1543 34.2376 13.7576 34.3004 14.3625 34.2996C15.2072 34.2998 16.0481 34.1863 16.8625 33.9621C14.7107 33.5332 12.7749 32.3698 11.3862 30.671C9.99759 28.9723 9.24244 26.8437 9.25 24.6496V24.5246C10.5665 25.26 12.0425 25.6633 13.55 25.6996C11.5432 24.3791 10.1165 22.3421 9.56121 20.0049C9.00595 17.6677 9.3641 15.2066 10.5625 13.1246C12.9503 16.0615 15.9295 18.4629 19.3063 20.1729C22.6831 21.8828 26.382 22.863 30.1625 23.0496C29.9754 22.3401 29.887 21.6082 29.9 20.8746C29.8296 18.9358 30.3585 17.0223 31.4146 15.3948C32.4708 13.7673 34.0028 12.5049 35.8022 11.7794C37.6016 11.0539 39.5809 10.9006 41.4705 11.3404C43.3602 11.7802 45.0684 12.7917 46.3625 14.2371C48.4897 13.8078 50.5303 13.0262 52.4 11.9246C51.6909 14.1638 50.1826 16.0637 48.1625 17.2621C50.0495 17.0021 51.8892 16.4717 53.625 15.6871C52.367 17.6192 50.7756 19.3122 48.925 20.6871Z" stroke="white" stroke-width="2" stroke-linecap="round" stroke-linejoin="round"/>
</svg>
