<svg width="41" height="41" viewBox="0 0 41 41" fill="none" xmlns="http://www.w3.org/2000/svg">
<g id="apple-173_svgrepo.com" clip-path="url(#clip0_297_3074)">
<g id="Page-1">
<g id="Dribbble-Light-Preview">
<g id="icons">
<path id="apple-[#173]" fill-rule="evenodd" clip-rule="evenodd" d="M26.6418 6.88574C28.0999 5.19576 29.0828 2.84196 28.8138 0.5C26.7126 0.58 24.1704 1.84229 22.6637 3.53027C21.3107 5.02825 20.1297 7.42179 20.4472 9.71777C22.7911 9.89175 25.1836 8.5777 26.6418 6.88574ZM31.898 21.75C31.9566 27.8039 37.4393 29.8178 37.5 29.8438C37.4555 29.9858 36.6243 32.7132 34.612 35.5332C32.8707 37.9692 31.0647 40.3953 28.2192 40.4473C25.4243 40.4973 24.5243 38.8594 21.3269 38.8594C18.1315 38.8594 17.1325 40.3951 14.4872 40.4971C11.7408 40.5951 9.64761 37.8616 7.89419 35.4336C4.30647 30.4677 1.56613 21.4002 5.24689 15.2803C7.07513 12.2423 10.3413 10.3156 13.8886 10.2676C16.5844 10.2176 19.1306 12.0059 20.7789 12.0059C22.4271 12.0059 25.5214 9.85588 28.7734 10.1719C30.1344 10.2259 33.9568 10.6977 36.4099 14.1396C36.2117 14.2576 31.8494 16.6901 31.898 21.75Z" fill="white"/>
</g>
</g>
</g>
</g>
<defs>
<clipPath id="clip0_297_3074">
<rect width="40" height="40" fill="white" transform="translate(0.5 0.5)"/>
</clipPath>
</defs>
</svg>
