<svg width="128" height="16" viewBox="0 0 128 16" fill="none" xmlns="http://www.w3.org/2000/svg">
<path d="M1 7C0.447715 7 -4.82823e-08 7.44772 0 8C4.82823e-08 8.55228 0.447715 9 1 9L1 7ZM127.707 8.7071C128.098 8.31657 128.098 7.68341 127.707 7.29288L121.343 0.928922C120.953 0.538397 120.319 0.538397 119.929 0.928922C119.538 1.31945 119.538 1.95261 119.929 2.34314L125.586 7.99999L119.929 13.6568C119.538 14.0474 119.538 14.6805 119.929 15.0711C120.319 15.4616 120.953 15.4616 121.343 15.0711L127.707 8.7071ZM1 9L127 8.99999L127 6.99999L1 7L1 9Z" fill="white"/>
</svg>
