<svg width="1300" height="415" viewBox="0 0 1300 415" fill="none" xmlns="http://www.w3.org/2000/svg">
<path d="M0 100C0 44.7715 44.7715 0 100 0H1300V415H100C44.7715 415 0 370.228 0 315V100Z" fill="#5773F1"/>
<mask id="mask0_1064_8375" style="mask-type:alpha" maskUnits="userSpaceOnUse" x="0" y="0" width="1300" height="415">
<path d="M0 100C0 44.7715 44.7715 0 100 0H1300V415H100C44.7715 415 0 370.228 0 315V100Z" fill="#5773F1"/>
</mask>
<g mask="url(#mask0_1064_8375)">
<path d="M45.1329 365.803L105.694 399.577L45.1336 429.857L-15.4265 399.577L45.1329 365.803Z" stroke="#6F09BC" stroke-opacity="0.18" stroke-width="8" stroke-linejoin="round"/>
<path d="M45.1329 228.927L105.694 262.701L45.1336 292.981L-15.4265 262.701L45.1329 228.927Z" stroke="#6F09BC" stroke-opacity="0.18" stroke-width="8" stroke-linejoin="round"/>
<path d="M45.1329 92.0513L105.694 125.825L45.1336 156.105L-15.4265 125.825L45.1329 92.0513Z" stroke="#6F09BC" stroke-opacity="0.18" stroke-width="8" stroke-linejoin="round"/>
<path d="M45.1329 -44.8237L105.694 -11.0499L45.1336 19.2301L-15.4265 -11.0499L45.1329 -44.8237Z" stroke="#6F09BC" stroke-opacity="0.18" stroke-width="8" stroke-linejoin="round"/>
<path d="M166.332 365.803L226.893 399.577L166.333 429.857L105.773 399.577L166.332 365.803Z" stroke="#6F09BC" stroke-opacity="0.18" stroke-width="8" stroke-linejoin="round"/>
<path d="M166.332 228.927L226.893 262.701L166.333 292.981L105.773 262.701L166.332 228.927Z" stroke="#6F09BC" stroke-opacity="0.18" stroke-width="8" stroke-linejoin="round"/>
<path d="M166.332 92.0513L226.893 125.825L166.333 156.105L105.773 125.825L166.332 92.0513Z" stroke="#6F09BC" stroke-opacity="0.18" stroke-width="8" stroke-linejoin="round"/>
<path d="M166.332 -44.8237L226.893 -11.0499L166.333 19.2301L105.773 -11.0499L166.332 -44.8237Z" stroke="#6F09BC" stroke-opacity="0.18" stroke-width="8" stroke-linejoin="round"/>
<path d="M287.532 365.803L348.092 399.577L287.532 429.857L226.972 399.577L287.532 365.803Z" stroke="#6F09BC" stroke-opacity="0.18" stroke-width="8" stroke-linejoin="round"/>
<path d="M287.532 228.927L348.092 262.701L287.532 292.981L226.972 262.701L287.532 228.927Z" stroke="#6F09BC" stroke-opacity="0.18" stroke-width="8" stroke-linejoin="round"/>
<path d="M287.532 92.0513L348.092 125.825L287.532 156.105L226.972 125.825L287.532 92.0513Z" stroke="#6F09BC" stroke-opacity="0.18" stroke-width="8" stroke-linejoin="round"/>
<path d="M287.532 -44.8237L348.092 -11.0499L287.532 19.2301L226.972 -11.0499L287.532 -44.8237Z" stroke="#6F09BC" stroke-opacity="0.18" stroke-width="8" stroke-linejoin="round"/>
<path d="M408.731 365.803L469.292 399.577L408.732 429.857L348.171 399.577L408.731 365.803Z" stroke="#6F09BC" stroke-opacity="0.18" stroke-width="8" stroke-linejoin="round"/>
<path d="M408.731 228.927L469.292 262.701L408.732 292.981L348.171 262.701L408.731 228.927Z" stroke="#6F09BC" stroke-opacity="0.18" stroke-width="8" stroke-linejoin="round"/>
<path d="M408.731 92.0513L469.292 125.825L408.732 156.105L348.171 125.825L408.731 92.0513Z" stroke="#6F09BC" stroke-opacity="0.18" stroke-width="8" stroke-linejoin="round"/>
<path d="M408.731 -44.8237L469.292 -11.0499L408.732 19.2301L348.171 -11.0499L408.731 -44.8237Z" stroke="#6F09BC" stroke-opacity="0.18" stroke-width="8" stroke-linejoin="round"/>
<path d="M529.93 365.803L590.491 399.577L529.931 429.857L469.371 399.577L529.93 365.803Z" stroke="#6F09BC" stroke-opacity="0.18" stroke-width="8" stroke-linejoin="round"/>
<path d="M529.93 228.927L590.491 262.701L529.931 292.981L469.371 262.701L529.93 228.927Z" stroke="#6F09BC" stroke-opacity="0.18" stroke-width="8" stroke-linejoin="round"/>
<path d="M529.93 92.0513L590.491 125.825L529.931 156.105L469.371 125.825L529.93 92.0513Z" stroke="#6F09BC" stroke-opacity="0.18" stroke-width="8" stroke-linejoin="round"/>
<path d="M529.93 -44.8237L590.491 -11.0499L529.931 19.2301L469.371 -11.0499L529.93 -44.8237Z" stroke="#6F09BC" stroke-opacity="0.18" stroke-width="8" stroke-linejoin="round"/>
<path d="M651.129 365.803L711.69 399.577L651.13 429.857L590.57 399.577L651.129 365.803Z" stroke="#6F09BC" stroke-opacity="0.18" stroke-width="8" stroke-linejoin="round"/>
<path d="M651.129 228.927L711.69 262.701L651.13 292.981L590.57 262.701L651.129 228.927Z" stroke="#6F09BC" stroke-opacity="0.18" stroke-width="8" stroke-linejoin="round"/>
<path d="M651.129 92.0513L711.69 125.825L651.13 156.105L590.57 125.825L651.129 92.0513Z" stroke="#6F09BC" stroke-opacity="0.18" stroke-width="8" stroke-linejoin="round"/>
<path d="M651.129 -44.8237L711.69 -11.0499L651.13 19.2301L590.57 -11.0499L651.129 -44.8237Z" stroke="#6F09BC" stroke-opacity="0.18" stroke-width="8" stroke-linejoin="round"/>
<path d="M772.328 365.803L832.889 399.577L772.329 429.857L711.769 399.577L772.328 365.803Z" stroke="#6F09BC" stroke-opacity="0.18" stroke-width="8" stroke-linejoin="round"/>
<path d="M772.328 228.927L832.889 262.701L772.329 292.981L711.769 262.701L772.328 228.927Z" stroke="#6F09BC" stroke-opacity="0.18" stroke-width="8" stroke-linejoin="round"/>
<path d="M772.328 92.0513L832.889 125.825L772.329 156.105L711.769 125.825L772.328 92.0513Z" stroke="#6F09BC" stroke-opacity="0.18" stroke-width="8" stroke-linejoin="round"/>
<path d="M772.328 -44.8237L832.889 -11.0499L772.329 19.2301L711.769 -11.0499L772.328 -44.8237Z" stroke="#6F09BC" stroke-opacity="0.18" stroke-width="8" stroke-linejoin="round"/>
<path d="M893.528 365.803L954.089 399.577L893.528 429.857L832.968 399.577L893.528 365.803Z" stroke="#6F09BC" stroke-opacity="0.18" stroke-width="8" stroke-linejoin="round"/>
<path d="M893.528 228.927L954.089 262.701L893.528 292.981L832.968 262.701L893.528 228.927Z" stroke="#6F09BC" stroke-opacity="0.18" stroke-width="8" stroke-linejoin="round"/>
<path d="M893.528 92.0513L954.089 125.825L893.528 156.105L832.968 125.825L893.528 92.0513Z" stroke="#6F09BC" stroke-opacity="0.18" stroke-width="8" stroke-linejoin="round"/>
<path d="M893.528 -44.8237L954.089 -11.0499L893.528 19.2301L832.968 -11.0499L893.528 -44.8237Z" stroke="#6F09BC" stroke-opacity="0.18" stroke-width="8" stroke-linejoin="round"/>
<path d="M1014.73 365.803L1075.29 399.577L1014.73 429.857L954.168 399.577L1014.73 365.803Z" stroke="#6F09BC" stroke-opacity="0.18" stroke-width="8" stroke-linejoin="round"/>
<path d="M1014.73 228.927L1075.29 262.701L1014.73 292.981L954.168 262.701L1014.73 228.927Z" stroke="#6F09BC" stroke-opacity="0.18" stroke-width="8" stroke-linejoin="round"/>
<path d="M1014.73 92.0513L1075.29 125.825L1014.73 156.105L954.168 125.825L1014.73 92.0513Z" stroke="#6F09BC" stroke-opacity="0.18" stroke-width="8" stroke-linejoin="round"/>
<path d="M1014.73 -44.8237L1075.29 -11.0499L1014.73 19.2301L954.168 -11.0499L1014.73 -44.8237Z" stroke="#6F09BC" stroke-opacity="0.18" stroke-width="8" stroke-linejoin="round"/>
<path d="M1135.93 365.803L1196.49 399.577L1135.93 429.857L1075.37 399.577L1135.93 365.803Z" stroke="#6F09BC" stroke-opacity="0.18" stroke-width="8" stroke-linejoin="round"/>
<path d="M1135.93 228.927L1196.49 262.701L1135.93 292.981L1075.37 262.701L1135.93 228.927Z" stroke="#6F09BC" stroke-opacity="0.18" stroke-width="8" stroke-linejoin="round"/>
<path d="M1135.93 92.0513L1196.49 125.825L1135.93 156.105L1075.37 125.825L1135.93 92.0513Z" stroke="#6F09BC" stroke-opacity="0.18" stroke-width="8" stroke-linejoin="round"/>
<path d="M1135.93 -44.8237L1196.49 -11.0499L1135.93 19.2301L1075.37 -11.0499L1135.93 -44.8237Z" stroke="#6F09BC" stroke-opacity="0.18" stroke-width="8" stroke-linejoin="round"/>
<path d="M1257.13 365.803L1317.69 399.577L1257.13 429.857L1196.57 399.577L1257.13 365.803Z" stroke="#6F09BC" stroke-opacity="0.18" stroke-width="8" stroke-linejoin="round"/>
<path d="M1257.13 228.927L1317.69 262.701L1257.13 292.981L1196.57 262.701L1257.13 228.927Z" stroke="#6F09BC" stroke-opacity="0.18" stroke-width="8" stroke-linejoin="round"/>
<path d="M1257.13 92.0513L1317.69 125.825L1257.13 156.105L1196.57 125.825L1257.13 92.0513Z" stroke="#6F09BC" stroke-opacity="0.18" stroke-width="8" stroke-linejoin="round"/>
<path d="M1257.13 -44.8237L1317.69 -11.0499L1257.13 19.2301L1196.57 -11.0499L1257.13 -44.8237Z" stroke="#6F09BC" stroke-opacity="0.18" stroke-width="8" stroke-linejoin="round"/>
<path d="M45.1331 429.856L105.693 399.576V472.648L45.1331 502.928V429.856Z" stroke="#6F09BC" stroke-opacity="0.18" stroke-width="8" stroke-linejoin="round"/>
<path d="M45.1331 292.981L105.693 262.701V335.773L45.1331 366.053V292.981Z" stroke="#6F09BC" stroke-opacity="0.18" stroke-width="8" stroke-linejoin="round"/>
<path d="M45.1331 156.105L105.693 125.825V198.897L45.1331 229.177V156.105Z" stroke="#6F09BC" stroke-opacity="0.18" stroke-width="8" stroke-linejoin="round"/>
<path d="M45.1331 19.2305L105.693 -11.0496V62.0216L45.1331 92.3017V19.2305Z" stroke="#6F09BC" stroke-opacity="0.18" stroke-width="8" stroke-linejoin="round"/>
<path d="M166.332 429.856L226.892 399.576V472.648L166.332 502.928V429.856Z" stroke="#6F09BC" stroke-opacity="0.18" stroke-width="8" stroke-linejoin="round"/>
<path d="M166.332 292.981L226.892 262.701V335.773L166.332 366.053V292.981Z" stroke="#6F09BC" stroke-opacity="0.18" stroke-width="8" stroke-linejoin="round"/>
<path d="M166.332 156.105L226.892 125.825V198.897L166.332 229.177V156.105Z" stroke="#6F09BC" stroke-opacity="0.18" stroke-width="8" stroke-linejoin="round"/>
<path d="M166.332 19.2305L226.892 -11.0496V62.0216L166.332 92.3017V19.2305Z" stroke="#6F09BC" stroke-opacity="0.18" stroke-width="8" stroke-linejoin="round"/>
<path d="M287.531 429.856L348.092 399.576V472.648L287.531 502.928V429.856Z" stroke="#6F09BC" stroke-opacity="0.18" stroke-width="8" stroke-linejoin="round"/>
<path d="M287.531 292.981L348.092 262.701V335.773L287.531 366.053V292.981Z" stroke="#6F09BC" stroke-opacity="0.18" stroke-width="8" stroke-linejoin="round"/>
<path d="M287.531 156.105L348.092 125.825V198.897L287.531 229.177V156.105Z" stroke="#6F09BC" stroke-opacity="0.18" stroke-width="8" stroke-linejoin="round"/>
<path d="M287.531 19.2305L348.092 -11.0496V62.0216L287.531 92.3017V19.2305Z" stroke="#6F09BC" stroke-opacity="0.18" stroke-width="8" stroke-linejoin="round"/>
<path d="M408.731 429.856L469.291 399.576V472.648L408.731 502.928V429.856Z" stroke="#6F09BC" stroke-opacity="0.18" stroke-width="8" stroke-linejoin="round"/>
<path d="M408.731 292.981L469.291 262.701V335.773L408.731 366.053V292.981Z" stroke="#6F09BC" stroke-opacity="0.18" stroke-width="8" stroke-linejoin="round"/>
<path d="M408.731 156.105L469.291 125.825V198.897L408.731 229.177V156.105Z" stroke="#6F09BC" stroke-opacity="0.18" stroke-width="8" stroke-linejoin="round"/>
<path d="M408.731 19.2305L469.291 -11.0496V62.0216L408.731 92.3017V19.2305Z" stroke="#6F09BC" stroke-opacity="0.18" stroke-width="8" stroke-linejoin="round"/>
<path d="M529.93 429.856L590.49 399.576V472.648L529.93 502.928V429.856Z" stroke="#6F09BC" stroke-opacity="0.18" stroke-width="8" stroke-linejoin="round"/>
<path d="M529.93 292.981L590.49 262.701V335.773L529.93 366.053V292.981Z" stroke="#6F09BC" stroke-opacity="0.18" stroke-width="8" stroke-linejoin="round"/>
<path d="M529.93 156.105L590.49 125.825V198.897L529.93 229.177V156.105Z" stroke="#6F09BC" stroke-opacity="0.18" stroke-width="8" stroke-linejoin="round"/>
<path d="M529.93 19.2305L590.49 -11.0496V62.0216L529.93 92.3017V19.2305Z" stroke="#6F09BC" stroke-opacity="0.18" stroke-width="8" stroke-linejoin="round"/>
<path d="M651.129 429.856L711.689 399.576V472.648L651.129 502.928V429.856Z" stroke="#6F09BC" stroke-opacity="0.18" stroke-width="8" stroke-linejoin="round"/>
<path d="M651.129 292.981L711.689 262.701V335.773L651.129 366.053V292.981Z" stroke="#6F09BC" stroke-opacity="0.18" stroke-width="8" stroke-linejoin="round"/>
<path d="M651.129 156.105L711.689 125.825V198.897L651.129 229.177V156.105Z" stroke="#6F09BC" stroke-opacity="0.18" stroke-width="8" stroke-linejoin="round"/>
<path d="M651.129 19.2305L711.689 -11.0496V62.0216L651.129 92.3017V19.2305Z" stroke="#6F09BC" stroke-opacity="0.18" stroke-width="8" stroke-linejoin="round"/>
<path d="M772.328 429.856L832.888 399.576V472.648L772.328 502.928V429.856Z" stroke="#6F09BC" stroke-opacity="0.18" stroke-width="8" stroke-linejoin="round"/>
<path d="M772.328 292.981L832.888 262.701V335.773L772.328 366.053V292.981Z" stroke="#6F09BC" stroke-opacity="0.18" stroke-width="8" stroke-linejoin="round"/>
<path d="M772.328 156.105L832.888 125.825V198.897L772.328 229.177V156.105Z" stroke="#6F09BC" stroke-opacity="0.18" stroke-width="8" stroke-linejoin="round"/>
<path d="M772.328 19.2305L832.888 -11.0496V62.0216L772.328 92.3017V19.2305Z" stroke="#6F09BC" stroke-opacity="0.18" stroke-width="8" stroke-linejoin="round"/>
<path d="M893.528 429.856L954.088 399.576V472.648L893.528 502.928V429.856Z" stroke="#6F09BC" stroke-opacity="0.18" stroke-width="8" stroke-linejoin="round"/>
<path d="M893.528 292.981L954.088 262.701V335.773L893.528 366.053V292.981Z" stroke="#6F09BC" stroke-opacity="0.18" stroke-width="8" stroke-linejoin="round"/>
<path d="M893.528 156.105L954.088 125.825V198.897L893.528 229.177V156.105Z" stroke="#6F09BC" stroke-opacity="0.18" stroke-width="8" stroke-linejoin="round"/>
<path d="M893.528 19.2305L954.088 -11.0496V62.0216L893.528 92.3017V19.2305Z" stroke="#6F09BC" stroke-opacity="0.18" stroke-width="8" stroke-linejoin="round"/>
<path d="M1014.73 429.856L1075.29 399.576V472.648L1014.73 502.928V429.856Z" stroke="#6F09BC" stroke-opacity="0.18" stroke-width="8" stroke-linejoin="round"/>
<path d="M1014.73 292.981L1075.29 262.701V335.773L1014.73 366.053V292.981Z" stroke="#6F09BC" stroke-opacity="0.18" stroke-width="8" stroke-linejoin="round"/>
<path d="M1014.73 156.105L1075.29 125.825V198.897L1014.73 229.177V156.105Z" stroke="#6F09BC" stroke-opacity="0.18" stroke-width="8" stroke-linejoin="round"/>
<path d="M1014.73 19.2305L1075.29 -11.0496V62.0216L1014.73 92.3017V19.2305Z" stroke="#6F09BC" stroke-opacity="0.18" stroke-width="8" stroke-linejoin="round"/>
<path d="M1135.93 429.856L1196.49 399.576V472.648L1135.93 502.928V429.856Z" stroke="#6F09BC" stroke-opacity="0.18" stroke-width="8" stroke-linejoin="round"/>
<path d="M1135.93 292.981L1196.49 262.701V335.773L1135.93 366.053V292.981Z" stroke="#6F09BC" stroke-opacity="0.18" stroke-width="8" stroke-linejoin="round"/>
<path d="M1135.93 156.105L1196.49 125.825V198.897L1135.93 229.177V156.105Z" stroke="#6F09BC" stroke-opacity="0.18" stroke-width="8" stroke-linejoin="round"/>
<path d="M1135.93 19.2305L1196.49 -11.0496V62.0216L1135.93 92.3017V19.2305Z" stroke="#6F09BC" stroke-opacity="0.18" stroke-width="8" stroke-linejoin="round"/>
<path d="M1257.13 429.856L1317.69 399.576V472.648L1257.13 502.928V429.856Z" stroke="#6F09BC" stroke-opacity="0.18" stroke-width="8" stroke-linejoin="round"/>
<path d="M1257.13 292.981L1317.69 262.701V335.773L1257.13 366.053V292.981Z" stroke="#6F09BC" stroke-opacity="0.18" stroke-width="8" stroke-linejoin="round"/>
<path d="M1257.13 156.105L1317.69 125.825V198.897L1257.13 229.177V156.105Z" stroke="#6F09BC" stroke-opacity="0.18" stroke-width="8" stroke-linejoin="round"/>
<path d="M1257.13 19.2305L1317.69 -11.0496V62.0216L1257.13 92.3017V19.2305Z" stroke="#6F09BC" stroke-opacity="0.18" stroke-width="8" stroke-linejoin="round"/>
<path d="M45.1331 429.856L-15.4271 399.576V472.648L45.1331 502.928V429.856Z" stroke="#6F09BC" stroke-opacity="0.18" stroke-width="8" stroke-linejoin="round"/>
<path d="M45.1331 292.981L-15.4271 262.701V335.773L45.1331 366.053V292.981Z" stroke="#6F09BC" stroke-opacity="0.18" stroke-width="8" stroke-linejoin="round"/>
<path d="M45.1331 156.105L-15.4271 125.825V198.897L45.1331 229.177V156.105Z" stroke="#6F09BC" stroke-opacity="0.18" stroke-width="8" stroke-linejoin="round"/>
<path d="M45.1331 19.2305L-15.4271 -11.0496V62.0216L45.1331 92.3017V19.2305Z" stroke="#6F09BC" stroke-opacity="0.18" stroke-width="8" stroke-linejoin="round"/>
<path d="M166.332 429.856L105.772 399.576V472.648L166.332 502.928V429.856Z" stroke="#6F09BC" stroke-opacity="0.18" stroke-width="8" stroke-linejoin="round"/>
<path d="M166.332 292.981L105.772 262.701V335.773L166.332 366.053V292.981Z" stroke="#6F09BC" stroke-opacity="0.18" stroke-width="8" stroke-linejoin="round"/>
<path d="M166.332 156.105L105.772 125.825V198.897L166.332 229.177V156.105Z" stroke="#6F09BC" stroke-opacity="0.18" stroke-width="8" stroke-linejoin="round"/>
<path d="M166.332 19.2305L105.772 -11.0496V62.0216L166.332 92.3017V19.2305Z" stroke="#6F09BC" stroke-opacity="0.18" stroke-width="8" stroke-linejoin="round"/>
<path d="M287.531 429.856L226.971 399.576V472.648L287.531 502.928V429.856Z" stroke="#6F09BC" stroke-opacity="0.18" stroke-width="8" stroke-linejoin="round"/>
<path d="M287.531 292.981L226.971 262.701V335.773L287.531 366.053V292.981Z" stroke="#6F09BC" stroke-opacity="0.18" stroke-width="8" stroke-linejoin="round"/>
<path d="M287.531 156.105L226.971 125.825V198.897L287.531 229.177V156.105Z" stroke="#6F09BC" stroke-opacity="0.18" stroke-width="8" stroke-linejoin="round"/>
<path d="M287.531 19.2305L226.971 -11.0496V62.0216L287.531 92.3017V19.2305Z" stroke="#6F09BC" stroke-opacity="0.18" stroke-width="8" stroke-linejoin="round"/>
<path d="M408.731 429.856L348.171 399.576V472.648L408.731 502.928V429.856Z" stroke="#6F09BC" stroke-opacity="0.18" stroke-width="8" stroke-linejoin="round"/>
<path d="M408.731 292.981L348.171 262.701V335.773L408.731 366.053V292.981Z" stroke="#6F09BC" stroke-opacity="0.18" stroke-width="8" stroke-linejoin="round"/>
<path d="M408.731 156.105L348.171 125.825V198.897L408.731 229.177V156.105Z" stroke="#6F09BC" stroke-opacity="0.18" stroke-width="8" stroke-linejoin="round"/>
<path d="M408.731 19.2305L348.171 -11.0496V62.0216L408.731 92.3017V19.2305Z" stroke="#6F09BC" stroke-opacity="0.18" stroke-width="8" stroke-linejoin="round"/>
<path d="M529.93 429.856L469.37 399.576V472.648L529.93 502.928V429.856Z" stroke="#6F09BC" stroke-opacity="0.18" stroke-width="8" stroke-linejoin="round"/>
<path d="M529.93 292.981L469.37 262.701V335.773L529.93 366.053V292.981Z" stroke="#6F09BC" stroke-opacity="0.18" stroke-width="8" stroke-linejoin="round"/>
<path d="M529.93 156.105L469.37 125.825V198.897L529.93 229.177V156.105Z" stroke="#6F09BC" stroke-opacity="0.18" stroke-width="8" stroke-linejoin="round"/>
<path d="M529.93 19.2305L469.37 -11.0496V62.0216L529.93 92.3017V19.2305Z" stroke="#6F09BC" stroke-opacity="0.18" stroke-width="8" stroke-linejoin="round"/>
<path d="M651.129 429.856L590.569 399.576V472.648L651.129 502.928V429.856Z" stroke="#6F09BC" stroke-opacity="0.18" stroke-width="8" stroke-linejoin="round"/>
<path d="M651.129 292.981L590.569 262.701V335.773L651.129 366.053V292.981Z" stroke="#6F09BC" stroke-opacity="0.18" stroke-width="8" stroke-linejoin="round"/>
<path d="M651.129 156.105L590.569 125.825V198.897L651.129 229.177V156.105Z" stroke="#6F09BC" stroke-opacity="0.18" stroke-width="8" stroke-linejoin="round"/>
<path d="M651.129 19.2305L590.569 -11.0496V62.0216L651.129 92.3017V19.2305Z" stroke="#6F09BC" stroke-opacity="0.18" stroke-width="8" stroke-linejoin="round"/>
<path d="M772.328 429.856L711.768 399.576V472.648L772.328 502.928V429.856Z" stroke="#6F09BC" stroke-opacity="0.18" stroke-width="8" stroke-linejoin="round"/>
<path d="M772.328 292.981L711.768 262.701V335.773L772.328 366.053V292.981Z" stroke="#6F09BC" stroke-opacity="0.18" stroke-width="8" stroke-linejoin="round"/>
<path d="M772.328 156.105L711.768 125.825V198.897L772.328 229.177V156.105Z" stroke="#6F09BC" stroke-opacity="0.18" stroke-width="8" stroke-linejoin="round"/>
<path d="M772.328 19.2305L711.768 -11.0496V62.0216L772.328 92.3017V19.2305Z" stroke="#6F09BC" stroke-opacity="0.18" stroke-width="8" stroke-linejoin="round"/>
<path d="M893.528 429.856L832.967 399.576V472.648L893.528 502.928V429.856Z" stroke="#6F09BC" stroke-opacity="0.18" stroke-width="8" stroke-linejoin="round"/>
<path d="M893.528 292.981L832.967 262.701V335.773L893.528 366.053V292.981Z" stroke="#6F09BC" stroke-opacity="0.18" stroke-width="8" stroke-linejoin="round"/>
<path d="M893.528 156.105L832.967 125.825V198.897L893.528 229.177V156.105Z" stroke="#6F09BC" stroke-opacity="0.18" stroke-width="8" stroke-linejoin="round"/>
<path d="M893.528 19.2305L832.967 -11.0496V62.0216L893.528 92.3017V19.2305Z" stroke="#6F09BC" stroke-opacity="0.18" stroke-width="8" stroke-linejoin="round"/>
<path d="M1014.73 429.856L954.167 399.576V472.648L1014.73 502.928V429.856Z" stroke="#6F09BC" stroke-opacity="0.18" stroke-width="8" stroke-linejoin="round"/>
<path d="M1014.73 292.981L954.167 262.701V335.773L1014.73 366.053V292.981Z" stroke="#6F09BC" stroke-opacity="0.18" stroke-width="8" stroke-linejoin="round"/>
<path d="M1014.73 156.105L954.167 125.825V198.897L1014.73 229.177V156.105Z" stroke="#6F09BC" stroke-opacity="0.18" stroke-width="8" stroke-linejoin="round"/>
<path d="M1014.73 19.2305L954.167 -11.0496V62.0216L1014.73 92.3017V19.2305Z" stroke="#6F09BC" stroke-opacity="0.18" stroke-width="8" stroke-linejoin="round"/>
<path d="M1135.93 429.856L1075.37 399.576V472.648L1135.93 502.928V429.856Z" stroke="#6F09BC" stroke-opacity="0.18" stroke-width="8" stroke-linejoin="round"/>
<path d="M1135.93 292.981L1075.37 262.701V335.773L1135.93 366.053V292.981Z" stroke="#6F09BC" stroke-opacity="0.18" stroke-width="8" stroke-linejoin="round"/>
<path d="M1135.93 156.105L1075.37 125.825V198.897L1135.93 229.177V156.105Z" stroke="#6F09BC" stroke-opacity="0.18" stroke-width="8" stroke-linejoin="round"/>
<path d="M1135.93 19.2305L1075.37 -11.0496V62.0216L1135.93 92.3017V19.2305Z" stroke="#6F09BC" stroke-opacity="0.18" stroke-width="8" stroke-linejoin="round"/>
<path d="M1257.13 429.856L1196.57 399.576V472.648L1257.13 502.928V429.856Z" stroke="#6F09BC" stroke-opacity="0.18" stroke-width="8" stroke-linejoin="round"/>
<path d="M1257.13 292.981L1196.57 262.701V335.773L1257.13 366.053V292.981Z" stroke="#6F09BC" stroke-opacity="0.18" stroke-width="8" stroke-linejoin="round"/>
<path d="M1257.13 156.105L1196.57 125.825V198.897L1257.13 229.177V156.105Z" stroke="#6F09BC" stroke-opacity="0.18" stroke-width="8" stroke-linejoin="round"/>
<path d="M1257.13 19.2305L1196.57 -11.0496V62.0216L1257.13 92.3017V19.2305Z" stroke="#6F09BC" stroke-opacity="0.18" stroke-width="8" stroke-linejoin="round"/>
</g>
<mask id="mask1_1064_8375" style="mask-type:alpha" maskUnits="userSpaceOnUse" x="0" y="0" width="1300" height="415">
<path d="M0 100C0 44.7715 44.7715 0 100 0H1300V415H100C44.7715 415 0 370.228 0 315V100Z" fill="#777777"/>
</mask>
<g mask="url(#mask1_1064_8375)">
<path d="M1016.42 157.826C1073.17 200.95 1117.13 140.258 1018.82 147.445C970.166 151.001 1000.7 150.107 1016.42 157.826Z" fill="#4EADDF"/>
<path d="M942.741 157.826C885.991 200.95 842.031 140.258 940.343 147.445C988.998 151.001 958.46 150.107 942.741 157.826Z" fill="#67D3F2"/>
<path d="M442.536 264.036C555.375 180.596 862.161 159.425 939.692 159.425C1253.01 174.597 1340.31 379.809 1316.96 417.359C1229.03 558.703 199.553 443.711 442.536 264.036Z" fill="url(#paint0_linear_1064_8375)"/>
<ellipse cx="975.66" cy="117.101" rx="64.7422" ry="64.6832" fill="#5773F1"/>
<path fill-rule="evenodd" clip-rule="evenodd" d="M985.252 53.2162C960.474 90.7484 945.287 133.072 956.477 145.05C964.829 153.99 960.714 167.378 958.089 175.919C957.734 177.076 957.406 178.143 957.14 179.099C963.007 180.846 969.224 181.785 975.66 181.785C1011.42 181.785 1040.4 152.825 1040.4 117.101C1040.4 84.7081 1016.57 57.8763 985.465 53.1553C985.394 53.1755 985.323 53.1958 985.252 53.2162Z" fill="#FA3992"/>
<ellipse cx="19.9809" cy="11.9791" rx="19.9809" ry="11.9791" transform="matrix(0.965985 0.258599 -0.259039 0.965867 985.863 92.3457)" fill="white"/>
<ellipse cx="19.0124" cy="11.9791" rx="19.0124" ry="11.9791" transform="matrix(0.965985 -0.258599 0.259039 0.965867 914.115 102.18)" fill="white"/>
<ellipse cx="998.839" cy="106.719" rx="9.59144" ry="9.58269" fill="#3C0BA3"/>
<ellipse cx="938.094" cy="106.719" rx="9.59144" ry="9.58269" fill="#3C0BA3"/>
<path fill-rule="evenodd" clip-rule="evenodd" d="M911.027 113.321L905.755 113.982C901.919 114.463 899.2 117.962 899.681 121.798L903.309 150.694C903.791 154.53 907.291 157.249 911.127 156.769L923.36 155.236C915.536 144.543 910.918 131.361 910.918 117.101C910.918 115.832 910.954 114.572 911.027 113.321Z" fill="#6F09BC"/>
<path d="M972.463 69.1882C934.097 113.902 978.058 123.5 986.85 70.7853C1009.23 111.512 1030.81 115.51 1040.4 113.109C1067.58 146.648 1065.18 79.5689 1036.41 58.0083C1007.63 36.4477 972.463 46.0239 950.083 56.4062C928.502 47.6217 892.534 48.4257 892.534 61.9918C892.534 69.9817 919.71 64.3876 940.491 61.9918C908.52 67.5911 883.742 98.7348 910.918 116.303C916.513 80.368 954.079 67.5911 972.463 69.1882Z" fill="#67D3F2"/>
<path d="M950.083 56.4106C994.843 22.8724 1051.59 69.1872 1051.59 118.694L1041.2 118.694C1041.2 100.329 1010.83 26.8657 950.083 56.4106Z" fill="#3C0BA3"/>
<path fill-rule="evenodd" clip-rule="evenodd" d="M1029.95 152.356C1036.56 142.214 1040.4 130.103 1040.4 117.095C1040.4 115.756 1040.36 114.427 1040.28 113.108H1054.18C1058.05 113.108 1061.18 116.242 1061.18 120.108V149.23C1061.18 153.096 1058.05 156.23 1054.18 156.23H1036.21C1033.47 156.23 1031.1 154.653 1029.95 152.356Z" fill="#6F09BC"/>
<path d="M1003.64 381.424V165.607C1029.83 129.387 1116.59 134.325 1139.51 165.607V381.424H1003.64Z" fill="url(#paint1_linear_1064_8375)"/>
<g clip-path="url(#clip0_1064_8375)">
<path d="M472.909 297.814L-77 393.641L1715 638L1093.16 323.368L472.909 297.814Z" fill="#00FFFF"/>
<path d="M857.653 491.314C859.859 490.66 863.44 488.615 865.342 486.747C868.683 483.664 869.019 482.227 872.808 452.297C875.749 429.123 875.813 427.685 873.943 425.593C870.442 421.409 869.802 421.297 829.423 417.751C795.789 414.797 793.918 414.685 790.13 415.483C782.313 417.144 781.641 417.879 766.679 441.676C747.448 472.277 746.92 473.554 752.915 478.41C755.968 480.853 758.35 481.237 803.685 486.635C844.001 491.314 854.184 492.289 857.653 491.33V491.314Z" fill="#3C0BA3"/>
<path d="M701.745 472.789C704.75 472.198 709.498 470.441 712.231 468.908C716.867 466.304 718.258 464.675 738.288 438.722C760.988 409.303 763.066 411.667 718.466 407.531C688.013 404.688 687.677 404.72 682.258 405.486C672.203 406.94 671.835 407.147 644.004 428.916C609.571 455.859 608.836 456.658 611.745 461.449C613.248 463.973 613.599 464.02 653.995 468.828C690.075 473.124 697.237 473.651 701.745 472.789Z" fill="#3C0BA3"/>
<path d="M566.026 456.371C578.942 454.262 578.703 454.422 618.603 426.361C639.299 411.806 648.374 403.719 645.827 402.101C644.1 400.951 641.686 400.695 615.31 398.379C584.617 395.68 583.434 395.696 574.243 398.252C569.543 399.561 569.175 399.753 534.23 417.864C470.911 450.701 472.861 447.299 523.152 453.288C556.738 457.281 559.456 457.504 566.026 456.386V456.371Z" fill="#3C0BA3"/>
<path d="M442.696 442.667C449.362 442.236 462.47 438.642 470.927 435.033C474.667 433.404 495.721 423.358 515.735 413.584C550.696 396.574 551.687 395.952 550.056 393.7C549.417 392.646 547.722 392.438 522.337 390.218C493.419 387.679 493.275 387.663 483.092 389.994L477.625 391.256L435.167 407.674C385.419 426.904 383.165 427.814 380.559 429.731C378.993 430.849 377.186 432.573 376.643 433.5C375.524 435.177 376.755 435.416 406.185 439.09C423.673 441.262 440.042 442.923 442.712 442.667H442.696Z" fill="#3C0BA3"/>
<path d="M339.252 429.635C344.224 429.172 354.551 426.824 362.176 424.508C370.984 421.825 452.959 391.799 457.659 389.627C459.529 388.733 461.479 387.343 461.911 386.513L462.806 385.012L437.373 382.776C414.002 380.731 412.323 380.636 407.863 381.179C398.847 382.233 397.888 382.488 345.727 398.555C281.512 418.328 280.233 418.743 278.107 421.586C276.844 423.055 278.475 423.342 305.922 426.505C322.228 428.437 337.35 429.875 339.252 429.651V429.635Z" fill="#3C0BA3"/>
<path d="M247.526 417.736C261.882 415.724 264.008 415.165 327.375 396.511C392.821 377.234 390.982 378.511 362.496 375.828C339.204 373.608 336.982 373.544 327.775 374.822L320.821 375.796L265.958 389.739C204.285 405.439 199.649 406.637 194.949 408.329C184.575 412.051 185.278 412.29 213.669 415.66C239.821 418.759 240.077 418.791 247.51 417.736H247.526Z" fill="#3C0BA3"/>
<path d="M161.939 407.147C174.376 405.726 175.942 405.374 247.159 387.902C297.673 375.508 300.823 374.726 303.94 373.56C310.798 371.02 315.801 371.643 234.834 364.568C168.301 358.755 167.486 358.675 162.578 359.106C152.875 359.936 150.621 360.304 85.5109 371.819C8.02809 385.522 5.08672 386.081 -0.492303 388.142C-3.43368 389.228 -2.53847 389.323 71.9071 398.108C153.226 407.69 155.544 407.882 161.955 407.147H161.939Z" fill="#3C0BA3"/>
<path d="M1267.46 438.643C1268.95 438.227 1269.67 436.902 1268.98 435.72C1267.98 433.66 1267.61 433.452 1231.59 413.216C1202.03 396.591 1201.78 396.463 1196.65 394.77C1186.16 391.304 1190.51 391.703 1108.93 386.289C1043.01 381.913 1039.73 381.721 1036.65 382.169C1030.7 383.079 1030.71 383.175 1044.25 399.481C1057.86 415.836 1058.91 416.986 1062.65 419.014C1064.83 420.18 1068.97 421.841 1071.73 422.623C1076.61 424.045 1081.33 424.492 1167.57 431.551C1257.33 438.914 1265.15 439.489 1267.45 438.643H1267.46Z" fill="#3C0BA3"/>
<path d="M294.013 359.249C296.842 359.009 301.094 358.466 305.314 357.763C312.012 356.677 313.195 356.438 349.259 348.532C379.2 341.968 382.126 341.297 384.907 340.435C387.049 339.764 387.881 339.333 387.721 338.949C387.657 338.39 387.05 338.342 348.444 335.787C306.593 333.008 309.183 333.072 299.288 334.286C294.572 334.861 294.236 334.909 255.919 341.696C212.421 349.394 212.006 349.458 208.425 350.401C200.464 352.461 198.61 352.157 245.416 355.991C287.123 359.408 289.888 359.6 294.029 359.265L294.013 359.249Z" fill="#3C0BA3"/>
<path d="M1024.98 418.039C1030.81 416.075 1030.65 415.516 1018.17 397.389C1009.44 384.692 1008.69 383.749 1005.92 382.136C1000.69 379.07 1001.08 379.134 966.292 376.818C937.198 374.885 936.287 374.853 934.241 375.412C929.861 376.61 929.829 376.866 932.547 391.08C935.904 408.664 936.079 409.048 943.017 411.555C946.454 412.849 948.836 413.104 983.765 415.947C1021.63 419.046 1021.97 419.078 1024.98 418.039Z" fill="#3C0BA3"/>
<path d="M901.902 408.297C903.852 407.978 906.378 407.099 907.481 406.429C909.463 405.215 909.527 404.416 909.111 389.659C908.68 375.397 908.488 375.109 903.276 373.177C901.038 372.346 899.728 372.234 874.406 370.446C857.829 369.28 847.406 368.657 845.6 368.769C843.953 368.865 841.428 369.28 839.941 369.743L837.128 370.589L831.357 383.446L824.467 398.81L826.273 400.28C830.046 403.362 830.254 403.378 865.15 406.237C894.836 408.665 898.848 408.888 901.934 408.297H901.902Z" fill="#3C0BA3"/>
<path d="M789.602 399.56C791.153 399.433 793.567 399.033 794.893 398.65C800.456 397.037 800.84 396.542 809.616 381.784C816.266 370.605 816.57 369.95 815.691 368.848C815.195 368.209 813.869 367.362 812.702 366.931C810.719 366.181 809.217 366.053 785.542 364.488C759.149 362.731 759.005 362.731 753.538 364.12L750.821 364.807L738.096 376.179C716.308 395.759 715.045 393.683 756.24 397.197C772.785 398.602 787.94 399.688 789.586 399.576L789.602 399.56Z" fill="#3C0BA3"/>
<path d="M692.553 390.696C699.81 389.546 700.274 389.259 717.89 375.076C732.853 363.034 733.077 362.731 729.512 361.325C727.881 360.686 726.011 360.527 703.439 359.089L679.493 357.588L675.176 358.466L670.796 359.329L652.541 369.63C628.61 383.142 627.731 383.749 630.145 385.681C631.232 386.607 633.358 386.831 659.638 388.971C687.006 391.207 688.94 391.319 692.553 390.696Z" fill="#3C0BA3"/>
<path d="M600.236 383.254C607.989 382.12 608.5 381.896 633.486 368.72C651.646 359.137 652.749 358.53 653.052 357.604C653.804 355.767 653.468 355.703 628.866 354.074C612.539 352.988 602.122 353.01 597.614 354.138C594.321 354.953 592.466 355.687 572.165 364.12C544.685 375.524 543.63 376.035 543.246 378.127L543.039 379.213L569.207 381.481C594.928 383.669 596.495 383.749 600.22 383.238L600.236 383.254Z" fill="#3C0BA3"/>
<path d="M514.663 376.402C523.008 375.556 523.184 375.492 555.475 362.859L579.949 353.276L580.413 352.318C581.068 350.689 580.461 350.593 559.216 349.187C541.663 348.021 539.921 347.974 536.276 348.245C533.175 348.469 531.385 348.756 527.788 349.555C523.424 350.529 521.841 351.024 496.664 359.297C452.959 373.639 454.158 372.218 487.104 374.917C507.518 376.578 511.179 376.754 514.663 376.418V376.402Z" fill="#3C0BA3"/>
<path d="M436.542 369.935C446.021 369.072 446.229 369.008 482.868 357.621C519.508 346.234 520.659 346.633 493.499 344.844C472.398 343.455 472.142 343.455 463.19 345.084C458.218 346.01 457.899 346.074 428.501 353.996C389.448 364.505 388.824 364.696 389.624 366.181C390.055 366.916 391.798 367.14 410.677 368.673C430.403 370.286 432.034 370.366 436.558 369.935H436.542Z" fill="#3C0BA3"/>
<path d="M361.073 364.217C365.053 364.169 373.174 363.067 379.488 361.741C382.43 361.135 396.913 357.445 417.694 352.047C450.209 343.63 450.113 343.646 449.922 342.496C449.922 341.985 448.755 341.873 431.81 340.755C412.243 339.462 411.796 339.462 404.218 340.628C400.43 341.203 398.32 341.666 365.325 349.14L325.361 358.212L322.787 359.378C320.853 360.24 320.629 360.687 321.62 361.039C323.538 361.598 356.421 364.281 361.089 364.201L361.073 364.217Z" fill="#3C0BA3"/>
<path d="M1165.57 380.987C1168.88 380.923 1169.82 379.055 1167.41 377.362C1166.18 376.531 1156.76 371.149 1146.98 365.719C1131.73 357.27 1130.9 356.839 1128.05 356.04C1126.5 355.609 1123.58 354.954 1121.69 354.635C1118.46 354.06 1113.07 353.757 1044.21 350.051C967.539 345.915 971.152 346.058 968.802 347.336L967.555 348.023L972.271 356.583C978.282 367.524 978.106 367.332 984.148 369.041C986.626 369.728 990.91 370.031 1072.12 375.174C1121.72 378.336 1164.45 380.971 1165.57 380.971V380.987Z" fill="#3C0BA3"/>
<path d="M951.474 366.389C956.317 365.351 956.365 365.079 952.289 354.921C948.772 346.137 948.548 345.898 943.513 344.732C941.211 344.205 939.852 344.109 918.431 342.959C893.765 341.633 894.085 341.633 891.239 342.943C889.945 343.518 889.817 344.013 889.097 351.36C888.266 359.809 888.298 360.336 889.641 361.294C892.47 363.306 893.397 363.434 922.364 365.255C948.74 366.916 948.98 366.932 951.458 366.389H951.474Z" fill="#3C0BA3"/>
<path d="M860.85 361.134C864.719 360.911 866.413 360.527 868.124 359.457C869.643 358.483 869.994 357.621 871.785 350.146C873.719 342.097 873.639 341.889 869.611 340.723C867.596 340.132 867.405 340.132 846.687 339.014C823.891 337.784 822.964 337.784 819.751 338.886C818.217 339.413 817.753 339.956 812.59 346.904L806.259 355.432L807.762 356.503C808.577 357.109 810.336 357.796 811.646 358.052C814.508 358.579 857.845 361.294 860.85 361.166V361.134Z" fill="#3C0BA3"/>
<path d="M781.146 355.992C782.504 355.88 784.822 355.433 786.261 355.05L788.899 354.299L796.348 345.882L802.87 338.519L801.815 337.785C799.881 336.523 799.21 336.443 778.444 335.325C757.679 334.207 757.023 334.207 753.107 335.181L750.837 335.74L741.117 342.736C725.579 353.916 724.444 352.814 756.256 354.81C773.361 355.864 779.291 356.152 781.146 355.976V355.992Z" fill="#3C0BA3"/>
<path d="M704.35 351.263C705.725 351.215 708.315 350.832 710.137 350.433L713.494 349.682L725.531 341.84C735.634 335.276 736.13 334.909 735.922 334.27C735.538 333.056 734.691 332.976 714.134 331.874C688.54 330.501 691.801 329.99 674.265 338.438C652.365 348.995 652.045 348.101 681.059 350.002C692.505 350.752 702.991 351.327 704.334 351.247L704.35 351.263Z" fill="#3C0BA3"/>
<path d="M637.642 346.281C639.944 345.93 642.374 345.387 643.924 344.876C645.619 344.317 651.885 341.554 660.757 337.433C674.809 330.933 674.761 330.949 672.682 330.054C671.803 329.639 670.62 329.559 653.835 328.665C629.361 327.355 632.494 326.94 612.64 334.207C593.106 341.33 591.619 341.953 591.315 343.167L591.123 344.077L612.24 345.482L633.821 346.92L637.658 346.313L637.642 346.281Z" fill="#3C0BA3"/>
<path d="M569.831 342.256C576.401 341.538 577.12 341.33 597.198 334.287C620.218 326.205 620.33 326.78 597.902 325.503C588.294 324.944 581.548 324.64 580.125 324.672C578.751 324.704 576.305 324.928 574.69 325.135L571.605 325.535L551.927 331.332C527.213 338.615 526.925 338.727 527.772 339.701C528.124 340.196 529.259 340.292 547.131 341.41C566.282 342.608 566.458 342.624 569.831 342.256Z" fill="#3C0BA3"/>
<path d="M506.271 338.407C507.933 338.295 510.763 337.96 512.409 337.688C515.431 337.193 516.31 336.97 538.21 330.741C565.274 323.043 565.082 323.698 542.814 322.5C526.573 321.637 525.821 321.621 520.45 322.276L517.685 322.612L495.177 328.154L469.887 334.366L468.912 335.037C467.538 335.931 473.127 336.773 485.681 337.561C501.283 338.535 503.521 338.631 506.271 338.407Z" fill="#3C0BA3"/>
<path d="M446.037 334.909C446.676 334.877 448.547 334.702 450.113 334.526C456.3 333.823 456.811 333.712 482.452 327.595C506.271 321.909 506.847 321.733 506.191 320.999C505.807 320.631 505.28 320.599 456.603 317.98C410.245 315.488 409.749 315.473 406.872 315.648C401.165 316.016 400.286 316.159 371.751 321.19C340.979 326.636 340.803 326.668 338.533 327.658L337.414 328.154L389.527 331.46C419.533 333.36 445.397 334.941 446.037 334.909Z" fill="#3C0BA3"/>
<path d="M989.967 340.931C992.514 340.516 992.024 338.083 988.496 333.632C985.699 330.086 983.813 328.01 983.061 327.563C982.39 327.148 980.999 326.669 979.544 326.317L977.099 325.742L950.754 324.544C921.836 323.235 922.651 323.235 920.797 324.241C919.902 324.704 919.934 325.135 920.845 329.943C922.044 336.219 922.044 336.251 925.688 337.401L927.511 337.976L957.404 339.573C986.93 341.138 988.177 341.17 989.951 340.915L989.967 340.931Z" fill="#3C0BA3"/>
<path d="M902.766 336.428C906.938 335.869 906.938 335.885 906.794 329.656C906.73 326.398 906.458 324.401 906.059 324.002C905.707 323.635 904.716 323.187 903.565 322.852L901.614 322.309L739.471 314.93C598.237 308.51 597.87 308.494 595.744 308.638C591.555 308.941 590.932 309.085 575.378 313.158C558.641 317.55 558.017 317.741 557.921 318.524L557.857 318.923L716.036 327.1C898.21 336.539 900.799 336.667 902.781 336.396L902.766 336.428Z" fill="#3C0BA3"/>
<path d="M540.8 317.853C546.06 317.454 545.996 317.47 563.66 313.03C573.044 310.682 578.591 309.229 579.422 308.941C580.205 308.67 580.621 308.35 580.573 308.111L580.429 307.711L561.822 306.865C541.216 305.923 542.095 305.923 536.948 306.657C534.342 307.025 533.143 307.28 518.308 310.49C499.429 314.579 498.646 314.771 498.118 315.489L497.815 315.873L517.813 316.943C537.539 317.997 538.434 318.029 540.784 317.853H540.8Z" fill="#3C0BA3"/>
<path d="M481.941 314.818C486.769 314.483 487.216 314.403 508.205 309.995C524.495 306.577 525.518 306.353 526.253 306.018C527.884 305.299 528.779 305.363 502.307 304.149C480.055 303.143 478.792 303.095 476.778 303.207C472.525 303.463 471.534 303.622 450.881 307.28C427.941 311.336 427.286 311.48 427.573 312.055C427.717 312.327 429.3 312.423 453.215 313.652C478.424 314.946 479.495 314.994 481.941 314.818Z" fill="#3C0BA3"/>
<path d="M1107.51 346.394C1109.76 345.531 1109.4 345.26 1096.74 338.105C1085.53 331.764 1085 331.541 1080.02 330.566L1077.19 330.023L1038.47 328.267C1002.18 326.621 1000.79 326.574 999.287 326.781C996.234 327.196 996.282 327.308 1002.23 333.553C1008.97 340.644 1009.18 340.788 1014.09 341.762C1016.58 342.273 1018.23 342.369 1060.67 344.557L1106.17 346.889L1107.51 346.41V346.394Z" fill="#3C0BA3"/>
<path d="M-1.86719 388.798V376.727C-1.86719 376.141 -1.36427 375.68 -0.779712 375.731L42.1775 379.503C43.3326 379.605 43.4182 381.261 42.2797 381.481L-0.677511 389.78C-1.29448 389.899 -1.86719 389.426 -1.86719 388.798Z" fill="#3C0BA3"/>
<path d="M188.363 411.157V399.087C188.363 398.5 188.866 398.039 189.451 398.091L232.408 401.863C233.563 401.964 233.648 403.621 232.51 403.841L189.553 412.139C188.936 412.259 188.363 411.786 188.363 411.157Z" fill="#3C0BA3"/>
<path d="M277.883 422.02V408.67C277.883 408.083 278.386 407.622 278.971 407.674L322.512 411.497C323.653 411.597 323.757 413.225 322.639 413.47L279.097 422.997C278.473 423.134 277.883 422.659 277.883 422.02Z" fill="#3C0BA3"/>
<path d="M461.719 386.283V372.932C461.719 372.346 461.216 371.885 460.632 371.936L417.09 375.76C415.949 375.86 415.845 377.488 416.964 377.733L460.505 387.26C461.129 387.396 461.719 386.921 461.719 386.283Z" fill="#3C0BA3"/>
<path d="M549.64 395.866V382.515C549.64 381.929 549.137 381.468 548.553 381.519L505.011 385.343C503.87 385.443 503.766 387.071 504.885 387.316L548.427 396.843C549.05 396.979 549.64 396.504 549.64 395.866Z" fill="#3C0BA3"/>
<path d="M645.555 403.851V390.501C645.555 389.914 645.052 389.453 644.467 389.505L600.925 393.328C599.785 393.428 599.68 395.056 600.799 395.301L644.341 404.828C644.965 404.965 645.555 404.49 645.555 403.851Z" fill="#3C0BA3"/>
<path d="M754.258 415.031V401.681C754.258 401.094 753.755 400.633 753.17 400.684L709.629 404.508C708.488 404.608 708.384 406.236 709.502 406.481L753.044 416.008C753.668 416.144 754.258 415.669 754.258 415.031Z" fill="#3C0BA3"/>
<path d="M816.602 370.311V356.961C816.602 356.374 816.099 355.913 815.515 355.965L771.973 359.788C770.832 359.888 770.728 361.516 771.847 361.761L815.388 371.288C816.012 371.425 816.602 370.95 816.602 370.311Z" fill="#3C0BA3"/>
<path d="M1027.61 415.031V401.681C1027.61 401.094 1027.11 400.633 1026.53 400.684L982.985 404.508C981.844 404.608 981.74 406.236 982.858 406.481L1026.4 416.008C1027.02 416.144 1027.61 415.669 1027.61 415.031Z" fill="#3C0BA3"/>
<path d="M802.215 339.967V326.616C802.215 326.029 801.712 325.569 801.127 325.62L757.586 329.443C756.445 329.544 756.341 331.172 757.459 331.416L801.001 340.943C801.625 341.08 802.215 340.605 802.215 339.967Z" fill="#3C0BA3"/>
<path d="M735.075 336.772V323.422C735.075 322.835 734.572 322.374 733.987 322.426L690.445 326.249C689.305 326.349 689.2 327.977 690.319 328.222L733.861 337.749C734.485 337.886 735.075 337.411 735.075 336.772Z" fill="#3C0BA3"/>
<path d="M731.878 362.635V350.565C731.878 349.981 731.38 349.522 730.797 349.568L687.843 353.025C686.687 353.118 686.59 354.774 687.727 355.002L730.681 363.616C731.3 363.74 731.878 363.266 731.878 362.635Z" fill="#3C0BA3"/>
<path d="M653.548 359.386V344.196C653.548 343.605 653.038 343.143 652.45 343.201L608.219 347.551C607.1 347.661 606.986 349.25 608.079 349.518L652.31 360.358C652.94 360.512 653.548 360.035 653.548 359.386Z" fill="#3C0BA3"/>
<path d="M580.013 354.567V337.817C580.013 337.223 579.498 336.759 578.906 336.823L534.199 341.62C533.098 341.738 532.977 343.294 534.048 343.58L578.755 355.533C579.39 355.703 580.013 355.224 580.013 354.567Z" fill="#3C0BA3"/>
<path d="M511.275 352.97V336.22C511.275 335.626 510.759 335.163 510.168 335.226L465.461 340.023C464.359 340.141 464.239 341.697 465.309 341.983L510.016 353.936C510.651 354.106 511.275 353.628 511.275 352.97Z" fill="#3C0BA3"/>
<path d="M615.182 332.208V315.458C615.182 314.863 614.666 314.4 614.075 314.463L569.368 319.26C568.266 319.379 568.146 320.935 569.217 321.221L613.924 333.174C614.559 333.343 615.182 332.865 615.182 332.208Z" fill="#3C0BA3"/>
<path d="M672.73 333.804V317.054C672.73 316.46 672.215 315.997 671.624 316.06L626.917 320.857C625.815 320.975 625.695 322.531 626.765 322.817L671.472 334.77C672.107 334.94 672.73 334.462 672.73 333.804Z" fill="#3C0BA3"/>
<path d="M559.232 332.151V312.283C559.232 311.682 558.705 311.216 558.108 311.291L512.656 316.981C511.589 317.114 511.455 318.608 512.482 318.928L557.934 333.105C558.578 333.306 559.232 332.825 559.232 332.151Z" fill="#3C0BA3"/>
<path d="M503.282 328.956V309.089C503.282 308.487 502.754 308.022 502.158 308.097L456.705 313.787C455.638 313.92 455.505 315.413 456.532 315.733L501.984 329.911C502.628 330.112 503.282 329.631 503.282 328.956Z" fill="#3C0BA3"/>
<path d="M527.26 320.997V294.706C527.26 294.108 526.738 293.643 526.144 293.713L461.819 301.242C460.736 301.369 460.609 302.89 461.655 303.195L525.98 321.957C526.62 322.143 527.26 321.663 527.26 320.997Z" fill="#3C0BA3"/>
<path d="M580.013 322.593V296.303C580.013 295.704 579.491 295.24 578.897 295.309L514.572 302.839C513.489 302.965 513.362 304.487 514.408 304.792L578.733 323.553C579.373 323.74 580.013 323.26 580.013 322.593Z" fill="#3C0BA3"/>
<path d="M872.552 343.161V329.81C872.552 329.224 872.049 328.763 871.465 328.814L827.923 332.638C826.782 332.738 826.678 334.366 827.797 334.611L871.339 344.138C871.962 344.274 872.552 343.799 872.552 343.161Z" fill="#3C0BA3"/>
<path d="M824.595 399.323V387.259C824.595 386.69 825.069 386.235 825.638 386.26L868.572 388.123C869.732 388.173 869.889 389.827 868.76 390.095L825.826 400.296C825.198 400.446 824.595 399.969 824.595 399.323Z" fill="#3C0BA3"/>
<path d="M920.509 329.05V316.986C920.509 316.416 920.984 315.962 921.553 315.987L964.487 317.85C965.646 317.9 965.804 319.553 964.675 319.822L921.74 330.023C921.112 330.172 920.509 329.696 920.509 329.05Z" fill="#3C0BA3"/>
<path d="M722.286 391.338V379.274C722.286 378.705 722.761 378.25 723.329 378.275L766.264 380.138C767.423 380.188 767.581 381.841 766.452 382.11L723.517 392.311C722.889 392.46 722.286 391.984 722.286 391.338Z" fill="#3C0BA3"/>
<path d="M629.569 384.949V372.885C629.569 372.316 630.044 371.861 630.612 371.886L673.547 373.749C674.706 373.799 674.864 375.453 673.735 375.721L630.8 385.922C630.172 386.072 629.569 385.595 629.569 384.949Z" fill="#3C0BA3"/>
<path d="M541.647 378.561V366.496C541.647 365.927 542.122 365.473 542.691 365.497L585.625 367.36C586.785 367.411 586.942 369.064 585.813 369.332L542.879 379.534C542.25 379.683 541.647 379.206 541.647 378.561Z" fill="#3C0BA3"/>
<path d="M463.317 370.575V358.511C463.317 357.942 463.792 357.487 464.361 357.512L507.295 359.375C508.455 359.425 508.612 361.079 507.483 361.347L464.549 371.548C463.92 371.698 463.317 371.221 463.317 370.575Z" fill="#3C0BA3"/>
<path d="M807.011 354.604V342.539C807.011 341.97 807.485 341.516 808.054 341.54L850.988 343.403C852.148 343.454 852.305 345.107 851.176 345.375L808.242 355.577C807.614 355.726 807.011 355.249 807.011 354.604Z" fill="#3C0BA3"/>
<path d="M730.279 351.409V339.345C730.279 338.776 730.754 338.321 731.322 338.346L774.257 340.209C775.416 340.259 775.574 341.913 774.445 342.181L731.51 352.382C730.882 352.532 730.279 352.055 730.279 351.409Z" fill="#3C0BA3"/>
<path d="M658.343 346.618V334.554C658.343 333.985 658.818 333.53 659.387 333.555L702.321 335.418C703.48 335.468 703.638 337.122 702.509 337.39L659.574 347.591C658.946 347.741 658.343 347.264 658.343 346.618Z" fill="#3C0BA3"/>
<path d="M591.203 343.424V331.36C591.203 330.79 591.678 330.336 592.246 330.361L635.181 332.224C636.34 332.274 636.498 333.927 635.369 334.196L592.434 344.397C591.806 344.546 591.203 344.07 591.203 343.424Z" fill="#3C0BA3"/>
<path d="M527.26 338.633V326.569C527.26 325.999 527.735 325.545 528.304 325.57L571.238 327.433C572.397 327.483 572.555 329.136 571.426 329.405L528.491 339.606C527.863 339.755 527.26 339.279 527.26 338.633Z" fill="#3C0BA3"/>
<path d="M468.113 333.842V321.778C468.113 321.208 468.588 320.754 469.157 320.779L512.091 322.642C513.25 322.692 513.408 324.345 512.279 324.614L469.344 334.815C468.716 334.964 468.113 334.488 468.113 333.842Z" fill="#3C0BA3"/>
<path d="M498.486 316.274V304.209C498.486 303.64 498.961 303.186 499.529 303.21L542.464 305.073C543.623 305.123 543.781 306.777 542.652 307.045L499.717 317.247C499.089 317.396 498.486 316.919 498.486 316.274Z" fill="#3C0BA3"/>
<path d="M557.633 319.603V307.382C557.633 306.821 558.095 306.37 558.656 306.382L642.923 308.269C644.164 308.297 644.254 310.111 643.023 310.262L558.755 320.596C558.159 320.669 557.633 320.204 557.633 319.603Z" fill="#3C0BA3"/>
<path d="M1029.5 500.856C1037.08 500.153 1041.23 497.486 1041.52 493.014C1041.71 489.692 1038.05 481.994 1023.17 453.517L1008.75 426.079L1002.74 423.06L996.985 420.058L955.55 416.224C918.495 412.839 915.442 412.631 911.893 413.382C904.14 415.043 903.916 415.665 904.348 443.248C905.083 490.73 899.76 485.779 971.792 494.723C1000.44 498.268 1026.81 501.031 1029.48 500.856H1029.5Z" fill="#6F09BC"/>
<path d="M857.238 478.544C859.444 477.889 863.025 475.845 864.927 473.976C868.268 470.894 868.604 469.456 872.392 439.526C875.334 416.352 875.398 414.915 873.527 412.823C870.027 408.638 869.387 408.526 829.007 404.981C795.373 402.026 793.503 401.914 789.714 402.713C781.897 404.374 781.226 405.109 766.263 428.906C747.032 459.506 746.505 460.784 752.5 465.639C755.553 468.083 757.935 468.466 803.27 473.864C843.586 478.544 853.769 479.518 857.238 478.56V478.544Z" fill="#6F09BC"/>
<path d="M701.313 460.018C704.318 459.427 709.066 457.67 711.8 456.137C716.436 453.534 717.826 451.905 737.856 425.952C760.556 396.533 762.634 398.897 718.034 394.76C687.581 391.917 687.246 391.949 681.826 392.716C671.771 394.169 671.404 394.377 643.573 416.145C609.139 443.089 608.404 443.887 611.313 448.679C612.816 451.202 613.168 451.25 653.564 456.057C689.643 460.354 696.805 460.881 701.313 460.018Z" fill="#6F09BC"/>
<path d="M565.594 443.583C578.511 441.475 578.271 441.635 618.171 413.574C638.867 399.019 647.942 390.932 645.395 389.313C643.668 388.164 641.255 387.908 614.878 385.592C584.186 382.893 583.003 382.909 573.811 385.464C569.111 386.774 568.743 386.966 533.799 405.077C470.479 437.914 472.429 434.512 522.72 440.501C556.306 444.494 559.024 444.717 565.594 443.599V443.583Z" fill="#6F09BC"/>
<path d="M442.28 429.896C448.947 429.464 462.055 425.871 470.511 422.261C474.252 420.632 495.305 410.587 515.319 400.812C550.28 383.803 551.271 383.18 549.641 380.928C549.001 379.874 547.307 379.666 521.921 377.446C493.003 374.907 492.859 374.891 482.676 377.223L477.209 378.485L434.751 394.903C385.004 414.132 382.75 415.043 380.144 416.959C378.577 418.077 376.771 419.802 376.227 420.728C375.108 422.405 376.339 422.645 405.769 426.318C423.257 428.49 439.627 430.151 442.296 429.896H442.28Z" fill="#6F09BC"/>
<path d="M338.821 416.848C343.792 416.385 354.119 414.037 361.744 411.721C370.552 409.038 452.527 379.012 457.227 376.84C459.097 375.946 461.048 374.556 461.479 373.726L462.374 372.225L436.941 369.989C413.57 367.944 411.891 367.848 407.431 368.392C398.416 369.446 397.456 369.701 345.295 385.768C281.08 405.54 279.801 405.956 277.675 408.799C276.412 410.268 278.043 410.555 305.49 413.718C321.796 415.65 336.918 417.088 338.821 416.864V416.848Z" fill="#6F09BC"/>
<path d="M247.111 404.949C261.466 402.937 263.592 402.378 326.959 383.724C392.405 364.447 390.566 365.724 362.08 363.041C338.789 360.821 336.567 360.757 327.359 362.035L320.405 363.009L265.542 376.952C203.869 392.652 199.233 393.849 194.533 395.542C184.159 399.264 184.862 399.503 213.253 402.873C239.405 405.972 239.661 406.003 247.095 404.949H247.111Z" fill="#6F09BC"/>
<path d="M161.507 394.36C173.944 392.939 175.511 392.587 246.727 375.115C297.242 362.721 300.391 361.939 303.508 360.773C310.366 358.233 315.37 358.856 234.402 351.781C167.869 345.967 167.054 345.888 162.146 346.319C152.443 347.149 150.189 347.517 85.0793 359.032C7.59645 372.735 4.65508 373.294 -0.923943 375.354C-3.86532 376.44 -2.97012 376.536 71.4754 385.32C152.795 394.903 155.113 395.095 161.523 394.36H161.507Z" fill="#6F09BC"/>
<path d="M1267.05 425.871C1268.53 425.456 1269.25 424.13 1268.57 422.948C1267.56 420.888 1267.19 420.68 1231.18 400.445C1201.62 383.819 1201.36 383.691 1196.23 381.998C1185.74 378.533 1190.09 378.932 1108.52 373.518C1042.59 369.142 1039.32 368.95 1036.23 369.397C1030.28 370.307 1030.3 370.403 1043.84 386.71C1057.38 403.016 1058.5 404.214 1062.24 406.243C1064.41 407.408 1068.55 409.069 1071.32 409.852C1076.19 411.273 1080.91 411.721 1167.15 418.78C1256.91 426.143 1264.73 426.718 1267.03 425.871H1267.05Z" fill="#6F09BC"/>
<path d="M293.581 346.463C296.411 346.223 300.663 345.68 304.883 344.977C311.581 343.891 312.764 343.652 348.828 335.746C378.769 329.182 381.694 328.511 384.476 327.648C386.618 326.978 387.449 326.546 387.29 326.163C387.226 325.604 386.618 325.556 348.013 323.001C306.162 320.222 308.752 320.286 298.856 321.5C294.141 322.075 293.805 322.122 255.487 328.91C211.99 336.608 211.574 336.672 207.994 337.614C200.033 339.675 198.178 339.371 244.985 343.204C286.691 346.622 289.457 346.814 293.597 346.478L293.581 346.463Z" fill="#6F09BC"/>
<path d="M1024.54 405.252C1030.38 403.288 1030.22 402.729 1017.73 384.602C1009.01 371.905 1008.26 370.962 1005.49 369.349C1000.26 366.283 1000.65 366.347 965.861 364.031C936.767 362.098 935.856 362.066 933.81 362.625C929.429 363.823 929.398 364.079 932.115 378.293C935.472 395.877 935.648 396.261 942.586 398.768C946.023 400.062 948.405 400.317 983.333 403.16C1021.2 406.258 1021.54 406.29 1024.54 405.252Z" fill="#6F09BC"/>
<path d="M901.471 395.526C903.421 395.206 905.946 394.328 907.05 393.657C909.032 392.443 909.096 391.645 908.68 376.887C908.248 362.625 908.057 362.338 902.845 360.405C900.607 359.575 899.296 359.463 873.975 357.674C857.398 356.508 846.975 355.885 845.169 355.997C843.522 356.093 840.996 356.508 839.51 356.971L836.696 357.818L830.925 370.675L824.036 386.039L825.842 387.508C829.615 390.591 829.822 390.607 864.719 393.466C894.405 395.893 898.417 396.117 901.502 395.526H901.471Z" fill="#6F09BC"/>
<path d="M789.171 386.79C790.721 386.662 793.135 386.263 794.462 385.879C800.025 384.266 800.409 383.771 809.185 369.014C815.835 357.834 816.138 357.179 815.259 356.077C814.764 355.438 813.437 354.592 812.27 354.161C810.288 353.41 808.785 353.282 785.11 351.717C758.718 349.96 758.574 349.96 753.107 351.35L750.389 352.037L737.665 363.408C715.876 382.989 714.613 380.912 755.808 384.426C772.354 385.832 787.508 386.918 789.155 386.806L789.171 386.79Z" fill="#6F09BC"/>
<path d="M692.137 377.926C699.395 376.776 699.858 376.488 717.475 362.306C732.437 350.264 732.661 349.96 729.096 348.555C727.466 347.916 725.595 347.756 703.024 346.319L679.077 344.817L674.761 345.696L670.381 346.558L652.125 356.86C628.194 370.371 627.315 370.978 629.729 372.911C630.816 373.837 632.942 374.061 659.223 376.201C686.59 378.437 688.525 378.548 692.137 377.926Z" fill="#6F09BC"/>
<path d="M599.804 370.483C607.557 369.349 608.068 369.125 633.054 355.949C651.214 346.367 652.317 345.76 652.621 344.833C653.372 342.997 653.036 342.933 628.434 341.304C612.108 340.218 601.69 340.239 597.182 341.368C593.889 342.182 592.035 342.917 571.733 351.35C544.253 362.753 543.198 363.264 542.815 365.356L542.607 366.442L568.776 368.71C594.497 370.898 596.063 370.978 599.788 370.467L599.804 370.483Z" fill="#6F09BC"/>
<path d="M514.248 363.632C522.593 362.785 522.769 362.721 555.06 350.088L579.534 340.505L579.997 339.547C580.653 337.918 580.045 337.822 558.8 336.417C541.248 335.251 539.506 335.203 535.861 335.475C532.76 335.698 530.969 335.986 527.372 336.784C523.008 337.758 521.426 338.254 496.248 346.527C452.543 360.869 453.742 359.447 486.689 362.146C507.103 363.807 510.763 363.983 514.248 363.648V363.632Z" fill="#6F09BC"/>
<path d="M436.11 357.163C445.589 356.301 445.797 356.237 482.436 344.849C519.076 333.462 520.227 333.861 493.067 332.073C471.966 330.683 471.71 330.683 462.758 332.312C457.786 333.238 457.467 333.302 428.069 341.224C389.016 351.733 388.392 351.925 389.192 353.41C389.623 354.145 391.366 354.368 410.245 355.902C429.971 357.515 431.602 357.594 436.126 357.163H436.11Z" fill="#6F09BC"/>
<path d="M360.657 351.446C364.638 351.398 372.758 350.296 379.073 348.97C382.014 348.363 396.497 344.674 417.279 339.276C449.794 330.859 449.698 330.875 449.506 329.725C449.506 329.214 448.339 329.102 431.394 327.984C411.827 326.69 411.38 326.69 403.803 327.856C400.014 328.431 397.904 328.894 364.909 336.369L324.945 345.44L322.371 346.606C320.437 347.469 320.213 347.916 321.204 348.267C323.123 348.826 356.005 351.509 360.673 351.43L360.657 351.446Z" fill="#6F09BC"/>
<path d="M1165.15 368.199C1168.46 368.135 1169.41 366.267 1166.99 364.574C1165.76 363.743 1156.35 358.361 1146.56 352.931C1131.31 344.482 1130.48 344.051 1127.64 343.252C1126.09 342.821 1123.16 342.166 1121.27 341.847C1118.04 341.272 1112.66 340.968 1043.79 337.263C967.124 333.127 970.736 333.27 968.387 334.548L967.14 335.235L971.855 343.795C977.866 354.736 977.69 354.544 983.733 356.253C986.211 356.94 990.495 357.243 1071.7 362.386C1121.31 365.548 1164.04 368.183 1165.15 368.183V368.199Z" fill="#6F09BC"/>
<path d="M951.058 353.618C955.902 352.58 955.95 352.309 951.873 342.151C948.356 333.367 948.133 333.127 943.097 331.961C940.795 331.434 939.436 331.339 918.015 330.189C893.35 328.863 893.669 328.863 890.824 330.173C889.529 330.748 889.401 331.243 888.682 338.589C887.85 347.038 887.882 347.565 889.225 348.523C892.055 350.536 892.982 350.664 921.948 352.484C948.324 354.145 948.564 354.161 951.042 353.618H951.058Z" fill="#6F09BC"/>
<path d="M860.435 348.347C864.303 348.123 865.998 347.74 867.708 346.67C869.227 345.696 869.579 344.833 871.369 337.359C873.303 329.309 873.224 329.102 869.195 327.936C867.181 327.345 866.989 327.345 846.272 326.227C823.476 324.997 822.549 324.997 819.336 326.099C817.801 326.626 817.337 327.169 812.174 334.117L805.844 342.645L807.346 343.715C808.162 344.322 809.92 345.009 811.231 345.265C814.092 345.792 857.43 348.507 860.435 348.379V348.347Z" fill="#6F09BC"/>
<path d="M780.73 343.205C782.089 343.093 784.407 342.646 785.846 342.262L788.483 341.512L795.933 333.095L802.455 325.732L801.4 324.998C799.465 323.736 798.794 323.656 778.029 322.538C757.263 321.42 756.608 321.42 752.691 322.394L750.421 322.953L740.702 329.949C725.164 341.128 724.029 340.026 755.84 342.023C772.945 343.077 778.876 343.364 780.73 343.189V343.205Z" fill="#6F09BC"/>
<path d="M703.935 338.477C705.309 338.429 707.899 338.046 709.722 337.647L713.079 336.896L725.116 329.054C735.219 322.49 735.714 322.123 735.507 321.484C735.123 320.27 734.276 320.19 713.718 319.088C688.125 317.715 691.386 317.204 673.85 325.652C651.949 336.209 651.629 335.315 680.644 337.215C692.089 337.966 702.576 338.541 703.919 338.461L703.935 338.477Z" fill="#6F09BC"/>
<path d="M637.21 333.51C639.512 333.159 641.942 332.616 643.493 332.105C645.187 331.546 651.454 328.783 660.326 324.662C674.377 318.162 674.329 318.178 672.251 317.284C671.372 316.869 670.189 316.789 653.404 315.894C628.93 314.585 632.063 314.169 612.209 321.436C592.674 328.559 591.187 329.182 590.884 330.396L590.692 331.306L611.809 332.712L633.39 334.149L637.226 333.542L637.21 333.51Z" fill="#6F09BC"/>
<path d="M569.415 329.486C575.985 328.767 576.704 328.56 596.782 321.516C619.802 313.435 619.914 314.01 597.486 312.732C587.878 312.173 581.132 311.87 579.71 311.902C578.335 311.934 575.889 312.157 574.275 312.365L571.189 312.764L551.511 318.562C526.797 325.845 526.509 325.956 527.356 326.931C527.708 327.426 528.843 327.521 546.715 328.639C565.866 329.837 566.042 329.853 569.415 329.486Z" fill="#6F09BC"/>
<path d="M505.84 325.637C507.502 325.525 510.332 325.189 511.978 324.918C514.999 324.423 515.879 324.199 537.779 317.97C564.843 310.272 564.651 310.927 542.383 309.729C526.141 308.867 525.39 308.851 520.019 309.506L517.253 309.841L494.745 315.383L469.456 321.596L468.481 322.267C467.106 323.161 472.696 324.002 485.25 324.79C500.852 325.764 503.09 325.86 505.84 325.637Z" fill="#6F09BC"/>
<path d="M445.605 322.122C446.245 322.09 448.115 321.915 449.682 321.739C455.868 321.036 456.38 320.924 482.021 314.808C505.84 309.122 506.415 308.946 505.76 308.211C505.376 307.844 504.849 307.812 456.172 305.193C409.813 302.701 409.318 302.685 406.44 302.861C400.734 303.228 399.854 303.372 371.32 308.403C340.547 313.849 340.371 313.881 338.101 314.871L336.982 315.366L389.096 318.673C419.101 320.573 444.966 322.154 445.605 322.122Z" fill="#6F09BC"/>
<path d="M989.552 328.144C992.099 327.728 991.609 325.296 988.081 320.845C985.284 317.299 983.397 315.223 982.646 314.776C981.975 314.361 980.584 313.881 979.129 313.53L976.683 312.955L950.339 311.757C921.421 310.448 922.236 310.448 920.382 311.454C919.486 311.917 919.518 312.348 920.43 317.156C921.628 323.432 921.628 323.464 925.273 324.614L927.096 325.189L956.989 326.786C986.515 328.351 987.761 328.383 989.536 328.128L989.552 328.144Z" fill="#6F09BC"/>
<path d="M902.349 323.64C906.522 323.081 906.522 323.097 906.378 316.869C906.314 313.611 906.042 311.614 905.643 311.215C905.291 310.848 904.3 310.4 903.149 310.065L901.198 309.522L739.055 302.143C597.821 295.723 597.454 295.707 595.328 295.851C591.139 296.154 590.516 296.298 574.962 300.37C558.225 304.763 557.601 304.954 557.505 305.737L557.441 306.136L715.62 314.313C897.793 323.752 900.383 323.88 902.365 323.609L902.349 323.64Z" fill="#6F09BC"/>
<path d="M540.369 305.066C545.628 304.667 545.564 304.683 563.229 300.243C572.612 297.895 578.159 296.442 578.99 296.154C579.774 295.883 580.189 295.563 580.141 295.324L579.998 294.924L561.39 294.078C540.785 293.136 541.664 293.136 536.516 293.87C533.911 294.238 532.712 294.493 517.877 297.703C498.998 301.792 498.215 301.984 497.687 302.702L497.383 303.086L517.381 304.156C537.108 305.21 538.003 305.242 540.353 305.066H540.369Z" fill="#6F09BC"/>
<path d="M481.509 302.031C486.337 301.696 486.785 301.616 507.774 297.208C524.063 293.79 525.086 293.566 525.822 293.231C527.452 292.512 528.347 292.576 501.875 291.362C479.623 290.356 478.36 290.308 476.346 290.42C472.094 290.676 471.103 290.835 450.449 294.493C427.51 298.549 426.854 298.693 427.142 299.268C427.286 299.54 428.868 299.635 452.783 300.865C477.992 302.159 479.063 302.207 481.509 302.031Z" fill="#6F09BC"/>
<path d="M1107.09 333.606C1109.35 332.743 1108.98 332.472 1096.32 325.317C1085.11 318.976 1084.59 318.753 1079.6 317.778L1076.77 317.235L1038.05 315.478C1001.76 313.833 1000.37 313.785 998.871 313.993C995.818 314.408 995.866 314.52 1001.81 320.765C1008.56 327.856 1008.77 328 1013.67 328.974C1016.17 329.485 1017.81 329.581 1060.26 331.769L1105.75 334.101L1107.09 333.622V333.606Z" fill="#6F09BC"/>
</g>
<path d="M1092.39 181.784H1069.51L1040.4 228.89H1075.23L1046.64 272.82L1104.35 214.07H1060.68L1092.39 181.784Z" fill="#6F09BC"/>
<path d="M468.113 314.345C468.113 400.589 388.312 400.589 289.872 400.589C191.433 400.589 111.632 400.589 111.632 314.345C111.632 228.101 191.433 228.101 289.872 228.101C388.312 228.101 468.113 228.101 468.113 314.345Z" fill="url(#paint2_linear_1064_8375)"/>
<path d="M1238.36 323.294C1233.3 409.389 1165.06 405.382 1080.9 400.44C996.728 395.497 928.496 391.49 933.561 305.394C938.626 219.299 1006.86 223.306 1091.03 228.248C1175.2 233.191 1243.43 237.198 1238.36 323.294Z" fill="url(#paint3_linear_1064_8375)"/>
</g>
<defs>
<linearGradient id="paint0_linear_1064_8375" x1="951.5" y1="159" x2="835.5" y2="646" gradientUnits="userSpaceOnUse">
<stop stop-color="#3C0BA3"/>
<stop offset="1" stop-color="#16043D"/>
</linearGradient>
<linearGradient id="paint1_linear_1064_8375" x1="1140" y1="140" x2="967.5" y2="140" gradientUnits="userSpaceOnUse">
<stop stop-color="#67D3F2"/>
<stop offset="1" stop-color="#5773F1"/>
</linearGradient>
<linearGradient id="paint2_linear_1064_8375" x1="415.5" y1="176.5" x2="-24.7951" y2="343.557" gradientUnits="userSpaceOnUse">
<stop stop-color="#FA3992"/>
<stop offset="0.964716" stop-color="#6F09BC"/>
</linearGradient>
<linearGradient id="paint3_linear_1064_8375" x1="1000" y1="189.5" x2="1434.03" y2="459.954" gradientUnits="userSpaceOnUse">
<stop stop-color="#FA3992"/>
<stop offset="0.964716" stop-color="#6F09BC"/>
</linearGradient>
<clipPath id="clip0_1064_8375">
<rect width="1792" height="347.612" fill="white" transform="translate(-77 290.388)"/>
</clipPath>
</defs>
</svg>
