<svg width="690" height="375" viewBox="0 0 690 375" fill="none" xmlns="http://www.w3.org/2000/svg">
<mask id="mask0_947_6480" style="mask-type:alpha" maskUnits="userSpaceOnUse" x="0" y="0" width="690" height="375">
<path d="M690 0H100C44.7715 0 0 44.7715 0 100V275C0 330.228 44.7715 375 100 375H690V0Z" fill="#777777"/>
</mask>
<g mask="url(#mask0_947_6480)">
<rect width="990" height="550" transform="matrix(-1 0 0 1 857 -55)" fill="#5773F1"/>
<path d="M362 0C362 7.2227 363.423 14.3747 366.187 21.0476C368.951 27.7205 373.002 33.7837 378.109 38.8909C383.216 43.9981 389.28 48.0494 395.952 50.8134C402.625 53.5774 409.777 55 417 55C424.223 55 431.375 53.5774 438.048 50.8134C444.72 48.0494 450.784 43.9981 455.891 38.8909C460.998 33.7836 465.049 27.7205 467.813 21.0476C470.577 14.3747 472 7.2227 472 -3.8147e-06L417 0H362Z" fill="#FA3992"/>
<path d="M582 275C582 282.223 583.423 289.375 586.187 296.048C588.951 302.72 593.002 308.784 598.109 313.891C603.216 318.998 609.28 323.049 615.952 325.813C622.625 328.577 629.777 330 637 330C644.223 330 651.375 328.577 658.048 325.813C664.72 323.049 670.784 318.998 675.891 313.891C680.998 308.784 685.049 302.72 687.813 296.048C690.577 289.375 692 282.223 692 275L637 275H582Z" fill="#6F09BC"/>
<path d="M142 55C142 62.2227 143.423 69.3747 146.187 76.0476C148.951 82.7205 153.002 88.7837 158.109 93.8909C163.216 98.9981 169.28 103.049 175.952 105.813C182.625 108.577 189.777 110 197 110C204.223 110 211.375 108.577 218.048 105.813C224.72 103.049 230.784 98.9981 235.891 93.8909C240.998 88.7836 245.049 82.7205 247.813 76.0476C250.577 69.3747 252 62.2227 252 55L197 55H142Z" fill="#6F09BC"/>
<path d="M-78 275C-78 282.223 -76.5774 289.375 -73.8134 296.048C-71.0494 302.72 -66.9981 308.784 -61.8909 313.891C-56.7837 318.998 -50.7205 323.049 -44.0476 325.813C-37.3747 328.577 -30.2227 330 -23 330C-15.7773 330 -8.62532 328.577 -1.95241 325.813C4.7205 323.049 10.7837 318.998 15.8909 313.891C20.9981 308.784 25.0494 302.72 27.8134 296.048C30.5774 289.375 32 282.223 32 275L-23 275H-78Z" fill="#FA3992"/>
<path d="M472 275C472 282.223 473.423 289.375 476.187 296.048C478.951 302.72 483.002 308.784 488.109 313.891C493.216 318.998 499.28 323.049 505.952 325.813C512.625 328.577 519.777 330 527 330C534.223 330 541.375 328.577 548.048 325.813C554.72 323.049 560.784 318.998 565.891 313.891C570.998 308.784 575.049 302.72 577.813 296.048C580.577 289.375 582 282.223 582 275L527 275H472Z" fill="#FA3992"/>
<path d="M252 330C252 337.223 253.423 344.375 256.187 351.048C258.951 357.72 263.002 363.784 268.109 368.891C273.216 373.998 279.28 378.049 285.952 380.813C292.625 383.577 299.777 385 307 385C314.223 385 321.375 383.577 328.048 380.813C334.72 378.049 340.784 373.998 345.891 368.891C350.998 363.784 355.049 357.72 357.813 351.048C360.577 344.375 362 337.223 362 330L307 330H252Z" fill="#FA3992"/>
<path d="M32 55C32 47.7773 30.5774 40.6253 27.8134 33.9524C25.0494 27.2795 20.9981 21.2163 15.8909 16.1091C10.7836 11.0019 4.72049 6.95062 -1.95242 4.18662C-8.62533 1.42261 -15.7773 -5.43968e-06 -23 -4.80825e-06C-30.2227 -4.17682e-06 -37.3747 1.42261 -44.0476 4.18663C-50.7205 6.95064 -56.7837 11.0019 -61.8909 16.1091C-66.9981 21.2164 -71.0494 27.2795 -73.8134 33.9524C-76.5774 40.6253 -78 47.7773 -78 55L-23 55L32 55Z" fill="#FA3992"/>
<path d="M692 275C692 267.777 690.577 260.625 687.813 253.952C685.049 247.279 680.998 241.216 675.891 236.109C670.784 231.002 664.72 226.951 658.048 224.187C651.375 221.423 644.223 220 637 220C629.777 220 622.625 221.423 615.952 224.187C609.279 226.951 603.216 231.002 598.109 236.109C593.002 241.216 588.951 247.28 586.187 253.952C583.423 260.625 582 267.777 582 275L637 275L692 275Z" fill="#FA3992"/>
<path d="M252 55C252 47.7773 250.577 40.6253 247.813 33.9524C245.049 27.2795 240.998 21.2163 235.891 16.1091C230.784 11.0019 224.72 6.95062 218.048 4.18662C211.375 1.42261 204.223 -5.43968e-06 197 -4.80825e-06C189.777 -4.17682e-06 182.625 1.42261 175.952 4.18663C169.279 6.95064 163.216 11.0019 158.109 16.1091C153.002 21.2164 148.951 27.2795 146.187 33.9524C143.423 40.6253 142 47.7773 142 55L197 55L252 55Z" fill="#FA3992"/>
<path d="M32 275C32 267.777 30.5774 260.625 27.8134 253.952C25.0494 247.279 20.9981 241.216 15.8909 236.109C10.7836 231.002 4.72049 226.951 -1.95242 224.187C-8.62533 221.423 -15.7773 220 -23 220C-30.2227 220 -37.3747 221.423 -44.0476 224.187C-50.7205 226.951 -56.7837 231.002 -61.8909 236.109C-66.9981 241.216 -71.0494 247.28 -73.8134 253.952C-76.5774 260.625 -78 267.777 -78 275L-23 275L32 275Z" fill="#FA3992"/>
<path d="M582 385C582 377.777 580.577 370.625 577.813 363.952C575.049 357.279 570.998 351.216 565.891 346.109C560.784 341.002 554.72 336.951 548.048 334.187C541.375 331.423 534.223 330 527 330C519.777 330 512.625 331.423 505.952 334.187C499.279 336.951 493.216 341.002 488.109 346.109C483.002 351.216 478.951 357.28 476.187 363.952C473.423 370.625 472 377.777 472 385L527 385L582 385Z" fill="#6F09BC"/>
<path d="M692 55C692 47.7773 690.577 40.6253 687.813 33.9524C685.049 27.2795 680.998 21.2163 675.891 16.1091C670.784 11.0019 664.72 6.95062 658.048 4.18662C651.375 1.42261 644.223 -5.43968e-06 637 -4.80825e-06C629.777 -4.17682e-06 622.625 1.42261 615.952 4.18663C609.279 6.95064 603.216 11.0019 598.109 16.1091C593.002 21.2164 588.951 27.2795 586.187 33.9524C583.423 40.6253 582 47.7773 582 55L637 55L692 55Z" fill="#6F09BC"/>
<path d="M692 110C692 102.777 690.577 95.6253 687.813 88.9524C685.049 82.2795 680.998 76.2163 675.891 71.1091C670.784 66.0019 664.72 61.9506 658.048 59.1866C651.375 56.4226 644.223 55 637 55C629.777 55 622.625 56.4226 615.952 59.1866C609.279 61.9506 603.216 66.0019 598.109 71.1091C593.002 76.2164 588.951 82.2795 586.187 88.9524C583.423 95.6253 582 102.777 582 110L637 110L692 110Z" fill="#FA3992"/>
<path d="M142 330C142 322.777 140.577 315.625 137.813 308.952C135.049 302.279 130.998 296.216 125.891 291.109C120.784 286.002 114.72 281.951 108.048 279.187C101.375 276.423 94.2227 275 87 275C79.7773 275 72.6253 276.423 65.9524 279.187C59.2795 281.951 53.2163 286.002 48.1091 291.109C43.0019 296.216 38.9506 302.28 36.1866 308.952C33.4226 315.625 32 322.777 32 330L87 330L142 330Z" fill="#FA3992"/>
<path d="M142 110C134.777 110 127.625 111.423 120.952 114.187C114.28 116.951 108.216 121.002 103.109 126.109C98.0019 131.216 93.9506 137.279 91.1866 143.952C88.4226 150.625 87 157.777 87 165C87 172.223 88.4226 179.375 91.1866 186.048C93.9506 192.72 98.0019 198.784 103.109 203.891C108.216 208.998 114.28 213.049 120.952 215.813C127.625 218.577 134.777 220 142 220L142 165L142 110Z" fill="#FA3992"/>
<path d="M472 330C464.777 330 457.625 331.423 450.952 334.187C444.28 336.951 438.216 341.002 433.109 346.109C428.002 351.216 423.951 357.279 421.187 363.952C418.423 370.625 417 377.777 417 385C417 392.223 418.423 399.375 421.187 406.048C423.951 412.72 428.002 418.784 433.109 423.891C438.216 428.998 444.28 433.049 450.952 435.813C457.625 438.577 464.777 440 472 440L472 385L472 330Z" fill="#6F09BC"/>
<path d="M-23 440C-15.7773 440 -8.62532 438.577 -1.95241 435.813C4.7205 433.049 10.7837 428.998 15.8909 423.891C20.9981 418.784 25.0494 412.72 27.8134 406.048C30.5774 399.375 32 392.223 32 385C32 377.777 30.5774 370.625 27.8134 363.952C25.0494 357.28 20.9981 351.216 15.8909 346.109C10.7836 341.002 4.72049 336.951 -1.95242 334.187C-8.62532 331.423 -15.7773 330 -23 330L-23 385L-23 440Z" fill="#6F09BC"/>
<circle cx="55" cy="55" r="55" transform="matrix(-1.19249e-08 1 1 1.19249e-08 527 110)" fill="#6F09BC"/>
<path d="M637 440C644.223 440 651.375 438.577 658.048 435.813C664.72 433.049 670.784 428.998 675.891 423.891C680.998 418.784 685.049 412.72 687.813 406.048C690.577 399.375 692 392.223 692 385C692 377.777 690.577 370.625 687.813 363.952C685.049 357.28 680.998 351.216 675.891 346.109C670.784 341.002 664.72 336.951 658.048 334.187C651.375 331.423 644.223 330 637 330L637 385L637 440Z" fill="#6F09BC"/>
<path d="M197 440C204.223 440 211.375 438.577 218.048 435.813C224.72 433.049 230.784 428.998 235.891 423.891C240.998 418.784 245.049 412.72 247.813 406.048C250.577 399.375 252 392.223 252 385C252 377.777 250.577 370.625 247.813 363.952C245.049 357.28 240.998 351.216 235.891 346.109C230.784 341.002 224.72 336.951 218.048 334.187C211.375 331.423 204.223 330 197 330L197 385L197 440Z" fill="#6F09BC"/>
<path d="M142 330C149.223 330 156.375 328.577 163.048 325.813C169.72 323.049 175.784 318.998 180.891 313.891C185.998 308.784 190.049 302.72 192.813 296.048C195.577 289.375 197 282.223 197 275C197 267.777 195.577 260.625 192.813 253.952C190.049 247.28 185.998 241.216 180.891 236.109C175.784 231.002 169.72 226.951 163.048 224.187C156.375 221.423 149.223 220 142 220L142 275L142 330Z" fill="#6F09BC"/>
<path d="M32 110C39.2227 110 46.3747 108.577 53.0476 105.813C59.7205 103.049 65.7837 98.9981 70.8909 93.8909C75.9981 88.7837 80.0494 82.7205 82.8134 76.0476C85.5774 69.3747 87 62.2227 87 55C87 47.7773 85.5774 40.6253 82.8134 33.9524C80.0494 27.2795 75.9981 21.2163 70.8909 16.1091C65.7836 11.0019 59.7205 6.95063 53.0476 4.18662C46.3747 1.42262 39.2227 1.1057e-07 32 6.55869e-07L32 55L32 110Z" fill="#6F09BC"/>
<path d="M582 440C589.223 440 596.375 438.577 603.048 435.813C609.72 433.049 615.784 428.998 620.891 423.891C625.998 418.784 630.049 412.72 632.813 406.048C635.577 399.375 637 392.223 637 385C637 377.777 635.577 370.625 632.813 363.952C630.049 357.28 625.998 351.216 620.891 346.109C615.784 341.002 609.72 336.951 603.048 334.187C596.375 331.423 589.223 330 582 330L582 385L582 440Z" fill="#FA3992"/>
<path d="M142 440C149.223 440 156.375 438.577 163.048 435.813C169.72 433.049 175.784 428.998 180.891 423.891C185.998 418.784 190.049 412.72 192.813 406.048C195.577 399.375 197 392.223 197 385C197 377.777 195.577 370.625 192.813 363.952C190.049 357.28 185.998 351.216 180.891 346.109C175.784 341.002 169.72 336.951 163.048 334.187C156.375 331.423 149.223 330 142 330L142 385L142 440Z" fill="#FA3992"/>
<path d="M527 110C534.223 110 541.375 108.577 548.048 105.813C554.72 103.049 560.784 98.9981 565.891 93.8909C570.998 88.7837 575.049 82.7205 577.813 76.0476C580.577 69.3747 582 62.2227 582 55C582 47.7773 580.577 40.6253 577.813 33.9524C575.049 27.2795 570.998 21.2163 565.891 16.1091C560.784 11.0019 554.72 6.95063 548.048 4.18662C541.375 1.42262 534.223 1.1057e-07 527 6.55869e-07L527 55L527 110Z" fill="#FA3992"/>
<path d="M252 110C259.223 110 266.375 108.577 273.048 105.813C279.72 103.049 285.784 98.9981 290.891 93.8909C295.998 88.7837 300.049 82.7205 302.813 76.0476C305.577 69.3747 307 62.2227 307 55C307 47.7773 305.577 40.6253 302.813 33.9524C300.049 27.2795 295.998 21.2163 290.891 16.1091C285.784 11.0019 279.72 6.95063 273.048 4.18662C266.375 1.42262 259.223 1.1057e-07 252 6.55869e-07L252 55L252 110Z" fill="#FA3992"/>
<path d="M87 110C79.7773 110 72.6253 111.423 65.9524 114.187C59.2795 116.951 53.2164 121.002 48.1091 126.109C43.0019 131.216 38.9506 137.279 36.1866 143.952C33.4226 150.625 32 157.777 32 165C32 172.223 33.4226 179.375 36.1866 186.048C38.9506 192.72 43.0019 198.784 48.1091 203.891C53.2164 208.998 59.2795 213.049 65.9524 215.813C72.6253 218.577 79.7773 220 87 220L87 165L87 110Z" fill="#6F09BC"/>
<path d="M32 110C24.7773 110 17.6253 111.423 10.9524 114.187C4.27951 116.951 -1.78365 121.002 -6.89087 126.109C-11.9981 131.216 -16.0494 137.279 -18.8134 143.952C-21.5774 150.625 -23 157.777 -23 165C-23 172.223 -21.5774 179.375 -18.8134 186.048C-16.0494 192.72 -11.9981 198.784 -6.89087 203.891C-1.78365 208.998 4.27951 213.049 10.9524 215.813C17.6253 218.577 24.7773 220 32 220L32 165L32 110Z" fill="#FA3992"/>
<path d="M362 -2.40413e-06C354.777 -2.71984e-06 347.625 1.42261 340.952 4.18662C334.28 6.95063 328.216 11.0019 323.109 16.1091C318.002 21.2163 313.951 27.2795 311.187 33.9524C308.423 40.6253 307 47.7773 307 55C307 62.2227 308.423 69.3747 311.187 76.0476C313.951 82.7205 318.002 88.7836 323.109 93.8909C328.216 98.9981 334.28 103.049 340.952 105.813C347.625 108.577 354.777 110 362 110L362 55L362 -2.40413e-06Z" fill="#6F09BC"/>
<path d="M692 110C684.777 110 677.625 111.423 670.952 114.187C664.28 116.951 658.216 121.002 653.109 126.109C648.002 131.216 643.951 137.279 641.187 143.952C638.423 150.625 637 157.777 637 165C637 172.223 638.423 179.375 641.187 186.048C643.951 192.72 648.002 198.784 653.109 203.891C658.216 208.998 664.28 213.049 670.952 215.813C677.625 218.577 684.777 220 692 220L692 165L692 110Z" fill="#FA3992"/>
<path d="M417 330C409.777 330 402.625 331.423 395.952 334.187C389.28 336.951 383.216 341.002 378.109 346.109C373.002 351.216 368.951 357.279 366.187 363.952C363.423 370.625 362 377.777 362 385C362 392.223 363.423 399.375 366.187 406.048C368.951 412.72 373.002 418.784 378.109 423.891C383.216 428.998 389.28 433.049 395.952 435.813C402.625 438.577 409.777 440 417 440L417 385L417 330Z" fill="#FA3992"/>
<path d="M87 330C79.7773 330 72.6253 331.423 65.9524 334.187C59.2795 336.951 53.2164 341.002 48.1091 346.109C43.0019 351.216 38.9506 357.279 36.1866 363.952C33.4226 370.625 32 377.777 32 385C32 392.223 33.4226 399.375 36.1866 406.048C38.9506 412.72 43.0019 418.784 48.1091 423.891C53.2164 428.998 59.2795 433.049 65.9524 435.813C72.6253 438.577 79.7773 440 87 440L87 385L87 330Z" fill="#6F09BC"/>
<path d="M142 330C134.777 330 127.625 331.423 120.952 334.187C114.28 336.951 108.216 341.002 103.109 346.109C98.0019 351.216 93.9506 357.279 91.1866 363.952C88.4226 370.625 87 377.777 87 385C87 392.223 88.4226 399.375 91.1866 406.048C93.9506 412.72 98.0019 418.784 103.109 423.891C108.216 428.998 114.28 433.049 120.952 435.813C127.625 438.577 134.777 440 142 440L142 385L142 330Z" fill="#FA3992"/>
<path d="M32 110C32 102.777 30.5774 95.6253 27.8134 88.9524C25.0494 82.2795 20.9981 76.2163 15.8909 71.1091C10.7836 66.0019 4.72049 61.9506 -1.95242 59.1866C-8.62533 56.4226 -15.7773 55 -23 55C-30.2227 55 -37.3747 56.4226 -44.0476 59.1866C-50.7205 61.9506 -56.7837 66.0019 -61.8909 71.1091C-66.9981 76.2164 -71.0494 82.2795 -73.8134 88.9524C-76.5774 95.6253 -78 102.777 -78 110L-23 110L32 110Z" fill="#FA3992"/>
</g>
<mask id="mask1_947_6480" style="mask-type:alpha" maskUnits="userSpaceOnUse" x="0" y="0" width="690" height="375">
<path d="M690 0H100C44.7715 0 0 44.7715 0 100V275C0 330.228 44.7715 375 100 375H690V0Z" fill="#777777"/>
</mask>
<g mask="url(#mask1_947_6480)">
<rect width="449" height="283" rx="20" transform="matrix(4.37114e-08 -1 -1 -4.37114e-08 486 489)" fill="#3C0BA3"/>
<rect width="429" height="253" rx="20" transform="matrix(4.37114e-08 -1 -1 -4.37114e-08 471 484)" fill="#67D3F2"/>
<circle cx="3" cy="3" r="3" transform="matrix(-1 0 0 1 325 45)" fill="#67D3F2"/>
<rect width="28" height="3" rx="1.5" transform="matrix(-1 0 0 1 358 46)" fill="#67D3F2"/>
<path d="M303.102 126.017C302.54 125.067 302.856 123.84 303.807 123.278C304.758 122.716 305.984 123.032 306.546 123.983L303.102 126.017ZM319.037 145.122L320.055 146.843L316.611 148.878L315.594 147.157L319.037 145.122ZM306.546 123.983L319.037 145.122L315.594 147.157L303.102 126.017L306.546 123.983Z" fill="#5773F1"/>
<path d="M387.722 126.017C388.284 125.067 387.968 123.84 387.017 123.278C386.067 122.716 384.84 123.032 384.278 123.983L387.722 126.017ZM371.787 145.122L370.769 146.843L374.213 148.878L375.231 147.157L371.787 145.122ZM384.278 123.983L371.787 145.122L375.231 147.157L387.722 126.017L384.278 123.983Z" fill="#5773F1"/>
<rect width="30" height="92" rx="15" transform="matrix(-1 0 0 1 276 196.315)" fill="#5773F1"/>
<rect width="30" height="92" rx="15" transform="matrix(-1 0 0 1 336 263.315)" fill="#5773F1"/>
<rect width="30" height="92" rx="15" transform="matrix(-1 0 0 1 384 263.315)" fill="#5773F1"/>
<rect width="30" height="92" rx="15" transform="matrix(-1 0 0 1 444 196.315)" fill="#5773F1"/>
<path d="M409 201.315H281V294.315C281 302.6 287.716 309.315 296 309.315H394C402.284 309.315 409 302.6 409 294.315V201.315Z" fill="#5773F1"/>
<path fill-rule="evenodd" clip-rule="evenodd" d="M281 195.815C281 188.133 282.655 180.526 285.872 173.428C289.088 166.331 293.802 159.882 299.745 154.45C305.688 149.017 312.743 144.708 320.508 141.768C328.273 138.829 336.595 137.315 345 137.315C353.405 137.315 361.727 138.829 369.492 141.768C377.257 144.708 384.312 149.017 390.255 154.45C396.198 159.882 400.912 166.331 404.128 173.428C407.345 180.526 409 188.133 409 195.815L345 195.815H281ZM311 171.315C311 174.629 313.686 177.315 317 177.315C320.314 177.315 323 174.629 323 171.315C323 168.002 320.314 165.315 317 165.315C313.686 165.315 311 168.002 311 171.315ZM374 177.315C370.686 177.315 368 174.629 368 171.315C368 168.002 370.686 165.315 374 165.315C377.314 165.315 380 168.002 380 171.315C380 174.629 377.314 177.315 374 177.315Z" fill="#5773F1"/>
</g>
</svg>
