<svg width="690" height="375" viewBox="0 0 690 375" fill="none" xmlns="http://www.w3.org/2000/svg">
<mask id="mask0_947_6237" style="mask-type:alpha" maskUnits="userSpaceOnUse" x="0" y="0" width="690" height="375">
<path d="M0 0H590C645.228 0 690 44.7715 690 100V275C690 330.228 645.228 375 590 375H0V0Z" fill="#777777"/>
</mask>
<g mask="url(#mask0_947_6237)">
<rect width="990" height="550" transform="translate(-167 -55)" fill="#5773F1"/>
<path d="M328 0C328 7.2227 326.577 14.3747 323.813 21.0476C321.049 27.7205 316.998 33.7837 311.891 38.8909C306.784 43.9981 300.72 48.0494 294.048 50.8134C287.375 53.5774 280.223 55 273 55C265.777 55 258.625 53.5774 251.952 50.8134C245.28 48.0494 239.216 43.9981 234.109 38.8909C229.002 33.7836 224.951 27.7205 222.187 21.0476C219.423 14.3747 218 7.2227 218 -3.8147e-06L273 0H328Z" fill="#FA3992"/>
<path d="M108 275C108 282.223 106.577 289.375 103.813 296.048C101.049 302.72 96.9981 308.784 91.8909 313.891C86.7837 318.998 80.7205 323.049 74.0476 325.813C67.3747 328.577 60.2227 330 53 330C45.7773 330 38.6253 328.577 31.9524 325.813C25.2795 323.049 19.2163 318.998 14.1091 313.891C9.0019 308.784 4.95063 302.72 2.18662 296.048C-0.577384 289.375 -2 282.223 -2 275L53 275H108Z" fill="#6F09BC"/>
<path d="M548 55C548 62.2227 546.577 69.3747 543.813 76.0476C541.049 82.7205 536.998 88.7837 531.891 93.8909C526.784 98.9981 520.72 103.049 514.048 105.813C507.375 108.577 500.223 110 493 110C485.777 110 478.625 108.577 471.952 105.813C465.28 103.049 459.216 98.9981 454.109 93.8909C449.002 88.7836 444.951 82.7205 442.187 76.0476C439.423 69.3747 438 62.2227 438 55L493 55H548Z" fill="#6F09BC"/>
<path d="M768 275C768 282.223 766.577 289.375 763.813 296.048C761.049 302.72 756.998 308.784 751.891 313.891C746.784 318.998 740.72 323.049 734.048 325.813C727.375 328.577 720.223 330 713 330C705.777 330 698.625 328.577 691.952 325.813C685.28 323.049 679.216 318.998 674.109 313.891C669.002 308.784 664.951 302.72 662.187 296.048C659.423 289.375 658 282.223 658 275L713 275H768Z" fill="#FA3992"/>
<path d="M218 275C218 282.223 216.577 289.375 213.813 296.048C211.049 302.72 206.998 308.784 201.891 313.891C196.784 318.998 190.72 323.049 184.048 325.813C177.375 328.577 170.223 330 163 330C155.777 330 148.625 328.577 141.952 325.813C135.28 323.049 129.216 318.998 124.109 313.891C119.002 308.784 114.951 302.72 112.187 296.048C109.423 289.375 108 282.223 108 275L163 275H218Z" fill="#FA3992"/>
<path d="M438 330C438 337.223 436.577 344.375 433.813 351.048C431.049 357.72 426.998 363.784 421.891 368.891C416.784 373.998 410.72 378.049 404.048 380.813C397.375 383.577 390.223 385 383 385C375.777 385 368.625 383.577 361.952 380.813C355.28 378.049 349.216 373.998 344.109 368.891C339.002 363.784 334.951 357.72 332.187 351.048C329.423 344.375 328 337.223 328 330L383 330H438Z" fill="#FA3992"/>
<path d="M658 55C658 47.7773 659.423 40.6253 662.187 33.9524C664.951 27.2795 669.002 21.2163 674.109 16.1091C679.216 11.0019 685.28 6.95062 691.952 4.18662C698.625 1.42261 705.777 -5.43968e-06 713 -4.80825e-06C720.223 -4.17682e-06 727.375 1.42261 734.048 4.18663C740.721 6.95064 746.784 11.0019 751.891 16.1091C756.998 21.2164 761.049 27.2795 763.813 33.9524C766.577 40.6253 768 47.7773 768 55L713 55L658 55Z" fill="#FA3992"/>
<path d="M-2 275C-1.99999 267.777 -0.577379 260.625 2.18663 253.952C4.95065 247.279 9.00192 241.216 14.1091 236.109C19.2164 231.002 25.2795 226.951 31.9524 224.187C38.6253 221.423 45.7773 220 53 220C60.2227 220 67.3747 221.423 74.0476 224.187C80.7205 226.951 86.7837 231.002 91.8909 236.109C96.9981 241.216 101.049 247.28 103.813 253.952C106.577 260.625 108 267.777 108 275L53 275L-2 275Z" fill="#FA3992"/>
<path d="M438 55C438 47.7773 439.423 40.6253 442.187 33.9524C444.951 27.2795 449.002 21.2163 454.109 16.1091C459.216 11.0019 465.28 6.95062 471.952 4.18662C478.625 1.42261 485.777 -5.43968e-06 493 -4.80825e-06C500.223 -4.17682e-06 507.375 1.42261 514.048 4.18663C520.721 6.95064 526.784 11.0019 531.891 16.1091C536.998 21.2164 541.049 27.2795 543.813 33.9524C546.577 40.6253 548 47.7773 548 55L493 55L438 55Z" fill="#FA3992"/>
<path d="M658 275C658 267.777 659.423 260.625 662.187 253.952C664.951 247.279 669.002 241.216 674.109 236.109C679.216 231.002 685.28 226.951 691.952 224.187C698.625 221.423 705.777 220 713 220C720.223 220 727.375 221.423 734.048 224.187C740.721 226.951 746.784 231.002 751.891 236.109C756.998 241.216 761.049 247.28 763.813 253.952C766.577 260.625 768 267.777 768 275L713 275L658 275Z" fill="#FA3992"/>
<path d="M108 385C108 377.777 109.423 370.625 112.187 363.952C114.951 357.279 119.002 351.216 124.109 346.109C129.216 341.002 135.28 336.951 141.952 334.187C148.625 331.423 155.777 330 163 330C170.223 330 177.375 331.423 184.048 334.187C190.721 336.951 196.784 341.002 201.891 346.109C206.998 351.216 211.049 357.28 213.813 363.952C216.577 370.625 218 377.777 218 385L163 385L108 385Z" fill="#6F09BC"/>
<path d="M-2 55C-1.99999 47.7773 -0.577379 40.6253 2.18663 33.9524C4.95065 27.2795 9.00192 21.2163 14.1091 16.1091C19.2164 11.0019 25.2795 6.95062 31.9524 4.18662C38.6253 1.42261 45.7773 -5.43968e-06 53 -4.80825e-06C60.2227 -4.17682e-06 67.3747 1.42261 74.0476 4.18663C80.7205 6.95064 86.7837 11.0019 91.8909 16.1091C96.9981 21.2164 101.049 27.2795 103.813 33.9524C106.577 40.6253 108 47.7773 108 55L53 55L-2 55Z" fill="#6F09BC"/>
<path d="M-2 110C-1.99999 102.777 -0.577379 95.6253 2.18663 88.9524C4.95065 82.2795 9.00192 76.2163 14.1091 71.1091C19.2164 66.0019 25.2795 61.9506 31.9524 59.1866C38.6253 56.4226 45.7773 55 53 55C60.2227 55 67.3747 56.4226 74.0476 59.1866C80.7205 61.9506 86.7837 66.0019 91.8909 71.1091C96.9981 76.2164 101.049 82.2795 103.813 88.9524C106.577 95.6253 108 102.777 108 110L53 110L-2 110Z" fill="#FA3992"/>
<path d="M548 330C548 322.777 549.423 315.625 552.187 308.952C554.951 302.279 559.002 296.216 564.109 291.109C569.216 286.002 575.28 281.951 581.952 279.187C588.625 276.423 595.777 275 603 275C610.223 275 617.375 276.423 624.048 279.187C630.721 281.951 636.784 286.002 641.891 291.109C646.998 296.216 651.049 302.28 653.813 308.952C656.577 315.625 658 322.777 658 330L603 330L548 330Z" fill="#FA3992"/>
<path d="M548 110C555.223 110 562.375 111.423 569.048 114.187C575.72 116.951 581.784 121.002 586.891 126.109C591.998 131.216 596.049 137.279 598.813 143.952C601.577 150.625 603 157.777 603 165C603 172.223 601.577 179.375 598.813 186.048C596.049 192.72 591.998 198.784 586.891 203.891C581.784 208.998 575.72 213.049 569.048 215.813C562.375 218.577 555.223 220 548 220L548 165L548 110Z" fill="#FA3992"/>
<path d="M218 330C225.223 330 232.375 331.423 239.048 334.187C245.72 336.951 251.784 341.002 256.891 346.109C261.998 351.216 266.049 357.279 268.813 363.952C271.577 370.625 273 377.777 273 385C273 392.223 271.577 399.375 268.813 406.048C266.049 412.72 261.998 418.784 256.891 423.891C251.784 428.998 245.72 433.049 239.048 435.813C232.375 438.577 225.223 440 218 440L218 385L218 330Z" fill="#6F09BC"/>
<path d="M713 440C705.777 440 698.625 438.577 691.952 435.813C685.28 433.049 679.216 428.998 674.109 423.891C669.002 418.784 664.951 412.72 662.187 406.048C659.423 399.375 658 392.223 658 385C658 377.777 659.423 370.625 662.187 363.952C664.951 357.28 669.002 351.216 674.109 346.109C679.216 341.002 685.28 336.951 691.952 334.187C698.625 331.423 705.777 330 713 330L713 385L713 440Z" fill="#6F09BC"/>
<circle cx="108" cy="165" r="55" transform="rotate(90 108 165)" fill="#6F09BC"/>
<path d="M53 440C45.7773 440 38.6253 438.577 31.9524 435.813C25.2795 433.049 19.2163 428.998 14.1091 423.891C9.00191 418.784 4.95063 412.72 2.18662 406.048C-0.577384 399.375 -2 392.223 -2 385C-2 377.777 -0.577384 370.625 2.18663 363.952C4.95064 357.28 9.00191 351.216 14.1091 346.109C19.2164 341.002 25.2795 336.951 31.9524 334.187C38.6253 331.423 45.7773 330 53 330L53 385L53 440Z" fill="#6F09BC"/>
<path d="M493 440C485.777 440 478.625 438.577 471.952 435.813C465.28 433.049 459.216 428.998 454.109 423.891C449.002 418.784 444.951 412.72 442.187 406.048C439.423 399.375 438 392.223 438 385C438 377.777 439.423 370.625 442.187 363.952C444.951 357.28 449.002 351.216 454.109 346.109C459.216 341.002 465.28 336.951 471.952 334.187C478.625 331.423 485.777 330 493 330L493 385L493 440Z" fill="#6F09BC"/>
<path d="M548 330C540.777 330 533.625 328.577 526.952 325.813C520.28 323.049 514.216 318.998 509.109 313.891C504.002 308.784 499.951 302.72 497.187 296.048C494.423 289.375 493 282.223 493 275C493 267.777 494.423 260.625 497.187 253.952C499.951 247.28 504.002 241.216 509.109 236.109C514.216 231.002 520.28 226.951 526.952 224.187C533.625 221.423 540.777 220 548 220L548 275L548 330Z" fill="#6F09BC"/>
<path d="M658 110C650.777 110 643.625 108.577 636.952 105.813C630.28 103.049 624.216 98.9981 619.109 93.8909C614.002 88.7837 609.951 82.7205 607.187 76.0476C604.423 69.3747 603 62.2227 603 55C603 47.7773 604.423 40.6253 607.187 33.9524C609.951 27.2795 614.002 21.2163 619.109 16.1091C624.216 11.0019 630.28 6.95063 636.952 4.18662C643.625 1.42262 650.777 1.1057e-07 658 6.55869e-07L658 55L658 110Z" fill="#6F09BC"/>
<path d="M108 440C100.777 440 93.6253 438.577 86.9524 435.813C80.2795 433.049 74.2163 428.998 69.1091 423.891C64.0019 418.784 59.9506 412.72 57.1866 406.048C54.4226 399.375 53 392.223 53 385C53 377.777 54.4226 370.625 57.1866 363.952C59.9506 357.28 64.0019 351.216 69.1091 346.109C74.2164 341.002 80.2795 336.951 86.9524 334.187C93.6253 331.423 100.777 330 108 330L108 385L108 440Z" fill="#FA3992"/>
<path d="M548 440C540.777 440 533.625 438.577 526.952 435.813C520.28 433.049 514.216 428.998 509.109 423.891C504.002 418.784 499.951 412.72 497.187 406.048C494.423 399.375 493 392.223 493 385C493 377.777 494.423 370.625 497.187 363.952C499.951 357.28 504.002 351.216 509.109 346.109C514.216 341.002 520.28 336.951 526.952 334.187C533.625 331.423 540.777 330 548 330L548 385L548 440Z" fill="#FA3992"/>
<path d="M163 110C155.777 110 148.625 108.577 141.952 105.813C135.28 103.049 129.216 98.9981 124.109 93.8909C119.002 88.7837 114.951 82.7205 112.187 76.0476C109.423 69.3747 108 62.2227 108 55C108 47.7773 109.423 40.6253 112.187 33.9524C114.951 27.2795 119.002 21.2163 124.109 16.1091C129.216 11.0019 135.28 6.95063 141.952 4.18662C148.625 1.42262 155.777 1.1057e-07 163 6.55869e-07L163 55L163 110Z" fill="#FA3992"/>
<path d="M438 110C430.777 110 423.625 108.577 416.952 105.813C410.28 103.049 404.216 98.9981 399.109 93.8909C394.002 88.7837 389.951 82.7205 387.187 76.0476C384.423 69.3747 383 62.2227 383 55C383 47.7773 384.423 40.6253 387.187 33.9524C389.951 27.2795 394.002 21.2163 399.109 16.1091C404.216 11.0019 410.28 6.95063 416.952 4.18662C423.625 1.42262 430.777 1.1057e-07 438 6.55869e-07L438 55L438 110Z" fill="#FA3992"/>
<path d="M603 110C610.223 110 617.375 111.423 624.048 114.187C630.72 116.951 636.784 121.002 641.891 126.109C646.998 131.216 651.049 137.279 653.813 143.952C656.577 150.625 658 157.777 658 165C658 172.223 656.577 179.375 653.813 186.048C651.049 192.72 646.998 198.784 641.891 203.891C636.784 208.998 630.72 213.049 624.048 215.813C617.375 218.577 610.223 220 603 220L603 165L603 110Z" fill="#6F09BC"/>
<path d="M658 110C665.223 110 672.375 111.423 679.048 114.187C685.72 116.951 691.784 121.002 696.891 126.109C701.998 131.216 706.049 137.279 708.813 143.952C711.577 150.625 713 157.777 713 165C713 172.223 711.577 179.375 708.813 186.048C706.049 192.72 701.998 198.784 696.891 203.891C691.784 208.998 685.72 213.049 679.048 215.813C672.375 218.577 665.223 220 658 220L658 165L658 110Z" fill="#FA3992"/>
<path d="M328 -2.40413e-06C335.223 -2.71984e-06 342.375 1.42261 349.048 4.18662C355.72 6.95063 361.784 11.0019 366.891 16.1091C371.998 21.2163 376.049 27.2795 378.813 33.9524C381.577 40.6253 383 47.7773 383 55C383 62.2227 381.577 69.3747 378.813 76.0476C376.049 82.7205 371.998 88.7836 366.891 93.8909C361.784 98.9981 355.72 103.049 349.048 105.813C342.375 108.577 335.223 110 328 110L328 55L328 -2.40413e-06Z" fill="#6F09BC"/>
<path d="M-2 110C5.2227 110 12.3747 111.423 19.0476 114.187C25.7205 116.951 31.7836 121.002 36.8909 126.109C41.9981 131.216 46.0494 137.279 48.8134 143.952C51.5774 150.625 53 157.777 53 165C53 172.223 51.5774 179.375 48.8134 186.048C46.0494 192.72 41.9981 198.784 36.8909 203.891C31.7836 208.998 25.7205 213.049 19.0476 215.813C12.3747 218.577 5.2227 220 -2 220L-2 165L-2 110Z" fill="#FA3992"/>
<path d="M273 330C280.223 330 287.375 331.423 294.048 334.187C300.72 336.951 306.784 341.002 311.891 346.109C316.998 351.216 321.049 357.279 323.813 363.952C326.577 370.625 328 377.777 328 385C328 392.223 326.577 399.375 323.813 406.048C321.049 412.72 316.998 418.784 311.891 423.891C306.784 428.998 300.72 433.049 294.048 435.813C287.375 438.577 280.223 440 273 440L273 385L273 330Z" fill="#FA3992"/>
<path d="M603 330C610.223 330 617.375 331.423 624.048 334.187C630.72 336.951 636.784 341.002 641.891 346.109C646.998 351.216 651.049 357.279 653.813 363.952C656.577 370.625 658 377.777 658 385C658 392.223 656.577 399.375 653.813 406.048C651.049 412.72 646.998 418.784 641.891 423.891C636.784 428.998 630.72 433.049 624.048 435.813C617.375 438.577 610.223 440 603 440L603 385L603 330Z" fill="#6F09BC"/>
<path d="M548 330C555.223 330 562.375 331.423 569.048 334.187C575.72 336.951 581.784 341.002 586.891 346.109C591.998 351.216 596.049 357.279 598.813 363.952C601.577 370.625 603 377.777 603 385C603 392.223 601.577 399.375 598.813 406.048C596.049 412.72 591.998 418.784 586.891 423.891C581.784 428.998 575.72 433.049 569.048 435.813C562.375 438.577 555.223 440 548 440L548 385L548 330Z" fill="#FA3992"/>
<path d="M658 110C658 102.777 659.423 95.6253 662.187 88.9524C664.951 82.2795 669.002 76.2163 674.109 71.1091C679.216 66.0019 685.28 61.9506 691.952 59.1866C698.625 56.4226 705.777 55 713 55C720.223 55 727.375 56.4226 734.048 59.1866C740.721 61.9506 746.784 66.0019 751.891 71.1091C756.998 76.2164 761.049 82.2795 763.813 88.9524C766.577 95.6253 768 102.777 768 110L713 110L658 110Z" fill="#FA3992"/>
</g>
<mask id="mask1_947_6237" style="mask-type:alpha" maskUnits="userSpaceOnUse" x="0" y="0" width="690" height="375">
<path d="M0 0H590C645.228 0 690 44.7715 690 100V275C690 330.228 645.228 375 590 375H0V0Z" fill="#777777"/>
</mask>
<g mask="url(#mask1_947_6237)">
<rect x="120" y="33" width="449" height="284" rx="20" fill="#3C0BA3"/>
<rect x="120" y="322" width="449" height="284" rx="20" fill="#3C0BA3"/>
<rect x="140" y="342" width="41" height="25" rx="5" fill="#6F09BC"/>
<rect x="140" y="372" width="41" height="25" rx="5" fill="#6F09BC"/>
<rect x="186" y="342" width="41" height="25" rx="5" fill="#6F09BC"/>
<rect x="186" y="372" width="41" height="25" rx="5" fill="#6F09BC"/>
<rect x="232" y="342" width="41" height="25" rx="5" fill="#6F09BC"/>
<rect x="232" y="372" width="41" height="25" rx="5" fill="#6F09BC"/>
<rect x="278" y="342" width="40" height="25" rx="5" fill="#6F09BC"/>
<rect x="278" y="372" width="40" height="25" rx="5" fill="#6F09BC"/>
<rect x="324" y="342" width="41" height="25" rx="5" fill="#6F09BC"/>
<rect x="324" y="372" width="41" height="25" rx="5" fill="#6F09BC"/>
<rect x="371" y="342" width="40" height="25" rx="5" fill="#6F09BC"/>
<rect x="371" y="372" width="40" height="25" rx="5" fill="#6F09BC"/>
<rect x="416" y="342" width="41" height="25" rx="5" fill="#6F09BC"/>
<rect x="416" y="372" width="41" height="25" rx="5" fill="#6F09BC"/>
<rect x="462" y="342" width="41" height="25" rx="5" fill="#6F09BC"/>
<rect x="462" y="372" width="41" height="25" rx="5" fill="#6F09BC"/>
<rect x="508" y="342" width="41" height="25" rx="5" fill="#6F09BC"/>
<rect x="508" y="372" width="41" height="25" rx="5" fill="#6F09BC"/>
<rect x="130" y="48" width="429" height="244" rx="20" fill="#67D3F2"/>
<circle cx="367" cy="41" r="3" fill="#67D3F2"/>
<rect x="331" y="39" width="28" height="3" rx="1.5" fill="#67D3F2"/>
<rect x="281" y="106" width="59" height="59" fill="#5773F1"/>
<rect x="281" y="175" width="59" height="59" fill="#5773F1"/>
<rect x="350" y="106" width="59" height="59" fill="#5773F1"/>
<rect x="350" y="175" width="59" height="59" fill="#5773F1"/>
</g>
</svg>
