<svg width="694" height="597" viewBox="0 0 694 597" fill="none" xmlns="http://www.w3.org/2000/svg">
<path d="M94.5 427.5C101.778 423.613 105.796 409.109 105.796 409.109L130.148 417.126C124.189 433.492 109.401 471.037 102.99 465.784C95.7304 459.837 36.4016 458.524 26.125 451.999C17.6201 446.599 22.3289 429.694 27.3966 432.52C35.7264 437.165 87.222 431.387 94.5 427.5Z" fill="url(#paint0_linear_1023_6073)"/>
<path d="M147.025 526.649C152.647 520.665 162.845 492.572 162.845 492.572L191.03 511.15C180.06 530.978 187.816 545.154 179.391 546.078C169.851 547.124 125.888 589.034 113.745 591.851C103.695 594.182 94.9551 578.857 100.662 577.191C110.041 574.454 141.403 532.633 147.025 526.649Z" fill="url(#paint1_linear_1023_6073)"/>
<path d="M71.7008 415.437C125.801 322.229 218.638 279.54 366.673 323.147C395.116 323.335 455.756 332.836 458.814 370.312C401.399 435.194 276.062 417.698 216.264 545.613C211.169 538.504 164.704 491.627 122.772 488.024C158.103 416.857 266.26 361.94 361.678 354.156C225.824 349.186 190.735 398.703 149.065 435.212C123.844 421.216 107.084 412.551 71.7008 415.437Z" fill="url(#paint2_linear_1023_6073)"/>
<path d="M241 145C241 237.5 322.224 272.625 386.848 240.765" stroke="#3C0BA3" stroke-width="28"/>
<path d="M413.702 204.9L371 225.222L388.798 262.619L413.479 250.873C412.379 265.735 401.464 295.943 366.674 323.151C398.454 362.199 459.77 369.735 459.77 369.735C459.77 369.735 540.046 289 534 262.619C526.211 228.637 487.512 223.996 487.512 223.996C470.566 214.801 433.644 195.408 413.702 204.9Z" fill="url(#paint3_linear_1023_6073)"/>
<path d="M356.764 182.768C356.764 275.268 437.988 310.392 502.611 278.532" stroke="url(#paint4_linear_1023_6073)" stroke-width="28"/>
<path d="M466 229.113L468.534 204.944L503 200L500.973 231.31L497.139 237.099C488.227 250.558 467.334 245.2 466 229.113Z" fill="#3C0BA3"/>
<path d="M551.622 162.059C594.99 159.702 601.53 208.99 544.655 182.771C533.956 176.074 538.859 164.896 551.622 162.059Z" fill="#FA3992"/>
<path d="M442.654 150.835C399.573 145.321 402.041 95.6633 453.246 131.721C462.561 140.24 455.72 150.349 442.654 150.835Z" fill="#3C0BA3"/>
<path d="M551.402 174.313C566.435 142.209 566.054 105.567 509.183 82.3712C461.172 62.7884 436.611 87.976 434.661 147.484C424.601 177.894 449.754 200.974 478.381 208.612C524.557 220.932 541.808 194.8 551.402 174.313Z" fill="#5773F1"/>
<path fill-rule="evenodd" clip-rule="evenodd" d="M497.015 78.2254C485.924 92.9399 471.595 122.881 475.697 150.271C476.03 152.494 474.649 155.576 472.923 159.425C467.962 170.491 460.155 187.906 482.07 209.531C525.486 219.521 542.068 194.246 551.401 174.314C566.434 142.21 566.054 105.568 509.183 82.3721C504.944 80.6434 500.889 79.2635 497.015 78.2254Z" fill="url(#paint5_linear_1023_6073)"/>
<path d="M443.508 150.324C448.536 159.308 461.983 163.143 465.863 160.131C469.743 157.119 469.063 144.399 463.415 136.907C457.672 129.287 446.893 126.943 442.703 129.941C440.266 132.554 439.344 142.885 443.508 150.324Z" fill="#D9D9D9"/>
<path d="M519.638 170.607C530.168 167.032 538.352 154.467 535.064 148.79C531.776 143.112 513.251 138.482 502.238 145.575C491.226 152.669 489.038 162.571 491.848 167.428C494.659 172.285 509.109 174.182 519.638 170.607Z" fill="white"/>
<path d="M500.921 131.768C497.689 132.516 492.631 135.53 493.66 139.068C494.688 142.606 501.932 141.855 505.436 140.083C508.94 138.31 510.777 135.685 509.856 133.532C508.936 131.38 504.152 131.02 500.921 131.768Z" fill="#6F09BC"/>
<path d="M455.645 41.8907C543.185 42.0955 574.6 71.2198 563.986 102.004C595.279 101.709 580.824 169.493 560.25 164.004C539.677 158.515 542.73 129.473 547.036 113.334C533.077 127.858 505.608 135.416 474.675 127.163C418.187 112.092 393.414 69.9462 445.239 80.8923C417.895 59.1886 439.328 41.8526 455.645 41.8907Z" fill="url(#paint6_linear_1023_6073)"/>
<rect width="5.56796" height="11.1359" rx="2.78398" transform="matrix(-0.940553 0.339646 0.339646 0.940553 527.793 172.807)" fill="#6F09BC"/>
<rect width="5.56796" height="11.1359" rx="2.78398" transform="matrix(-0.887685 -0.460452 -0.460452 0.887685 460.62 166.443)" fill="#6F09BC"/>
<rect width="5.56796" height="12.0639" rx="2.78398" transform="matrix(-0.996412 0.0846399 0.0846399 0.996412 513.58 178.67)" fill="#6F09BC"/>
<rect width="5.56796" height="12.0639" rx="2.78398" transform="matrix(-0.738264 -0.674512 -0.674512 0.738264 448.05 161.236)" fill="#6F09BC"/>
<rect width="5.56796" height="11.1359" rx="2.78398" transform="matrix(-0.984366 -0.176134 -0.176134 0.984366 498.515 176.74)" fill="#6F09BC"/>
<path fill-rule="evenodd" clip-rule="evenodd" d="M434.669 147.246C434.666 147.325 434.664 147.404 434.661 147.484C433.827 150.003 433.236 152.473 432.868 154.887C433.102 154.815 433.33 154.71 433.547 154.571L438.239 151.573C439.534 150.745 439.913 149.023 439.085 147.728C438.257 146.432 436.536 146.053 435.24 146.881L434.669 147.246Z" fill="#6F09BC"/>
<path fill-rule="evenodd" clip-rule="evenodd" d="M491.269 159.095C492.724 162.23 495.529 164.425 498.863 164.619C503.98 164.916 508.405 160.387 508.747 154.503C508.994 150.251 507.041 146.455 504.007 144.564C503.4 144.87 502.809 145.206 502.238 145.574C495.909 149.65 492.495 154.654 491.269 159.095Z" fill="#3C0BA3"/>
<ellipse cx="8.35193" cy="14.3839" rx="8.35193" ry="14.3839" transform="matrix(0.998316 0.0580179 0.0580179 -0.998316 461.613 197.777)" fill="#3C0BA3"/>
<path fill-rule="evenodd" clip-rule="evenodd" d="M453.551 129.791C455.648 131.866 456.895 135.015 456.694 138.464C456.352 144.348 451.927 148.877 446.811 148.58C444.961 148.472 443.275 147.749 441.891 146.591C439.676 139.789 440.654 132.137 442.704 129.941C444.988 128.306 449.233 128.259 453.551 129.791Z" fill="#3C0BA3"/>
<path d="M504.94 248.627C515.313 243.811 527.627 248.317 532.443 258.69C537.259 269.063 532.754 281.377 522.38 286.193L481.44 305.2L464 267.635L504.94 248.627Z" fill="#67D3F2"/>
<path d="M311.765 143.268C307.265 152.267 323.265 182.764 342.766 182.764C352.266 183.097 367.566 183.564 370.766 182.764C374.766 181.765 394.265 167.262 388.766 161.763C381.486 154.483 379.765 170.266 360.765 170.266C347.765 170.266 352.265 145.268 342.765 139.768C333.265 134.267 316.265 134.268 311.765 143.268Z" fill="#5773F1"/>
<path d="M196.765 106.268C192.265 115.267 208.265 145.764 227.766 145.764C237.266 146.097 252.566 146.564 255.766 145.764C259.766 144.765 279.265 130.262 273.766 124.763C266.486 117.483 264.765 133.266 245.765 133.266C232.765 133.266 237.265 108.268 227.765 102.768C218.265 97.2675 201.265 97.2679 196.765 106.268Z" fill="#3C0BA3"/>
<circle cx="303.5" cy="53.5" r="53.5" fill="#67D3F2"/>
<circle cx="546.5" cy="409.5" r="43.5" fill="#67D3F2"/>
<circle cx="43.5" cy="295.5" r="43.5" fill="#67D3F2"/>
<circle cx="649" cy="472" r="32" fill="#67D3F2"/>
<circle cx="164" cy="241" r="32" fill="#67D3F2"/>
<circle cx="642" cy="304" r="52" fill="#67D3F2"/>
<path d="M316 23H304V84L330 58H316V23Z" fill="#FA3992"/>
<path d="M556.692 385H547V434L568 413.115H556.692V385Z" fill="#FA3992"/>
<path d="M53.6923 271H44V320L65 299.115H53.6923V271Z" fill="#FA3992"/>
<path d="M656.385 454H649V490L665 474.656H656.385V454Z" fill="#FA3992"/>
<path d="M171.385 223H164V259L180 243.656H171.385V223Z" fill="#FA3992"/>
<path d="M654.538 275H643V333L668 308.279H654.538V275Z" fill="#FA3992"/>
<path d="M292 23H304V84L278 58H292V23Z" fill="#FA3992"/>
<path d="M537.308 385H547V434L526 413.115H537.308V385Z" fill="#FA3992"/>
<path d="M34.3077 271H44V320L23 299.115H34.3077V271Z" fill="#FA3992"/>
<path d="M642.077 454H649V490L634 474.656H642.077V454Z" fill="#FA3992"/>
<path d="M157.077 223H164V259L149 243.656H157.077V223Z" fill="#FA3992"/>
<path d="M631 275H643V333L617 308.279H631V275Z" fill="#FA3992"/>
<defs>
<linearGradient id="paint0_linear_1023_6073" x1="140.5" y1="473" x2="45" y2="408" gradientUnits="userSpaceOnUse">
<stop stop-color="#3C0BA3"/>
<stop offset="1" stop-color="#5773F1"/>
</linearGradient>
<linearGradient id="paint1_linear_1023_6073" x1="215.5" y1="568.5" x2="120.5" y2="507.5" gradientUnits="userSpaceOnUse">
<stop stop-color="#3C0BA3"/>
<stop offset="1" stop-color="#5773F1"/>
</linearGradient>
<linearGradient id="paint2_linear_1023_6073" x1="153.5" y1="262" x2="343.387" y2="455.957" gradientUnits="userSpaceOnUse">
<stop offset="0.667021" stop-color="#6F09BC"/>
<stop offset="1" stop-color="#3C0BA3"/>
</linearGradient>
<linearGradient id="paint3_linear_1023_6073" x1="414.5" y1="104" x2="564.5" y2="329" gradientUnits="userSpaceOnUse">
<stop offset="0.448389" stop-color="#67D3F2"/>
<stop offset="1" stop-color="#5773F1"/>
</linearGradient>
<linearGradient id="paint4_linear_1023_6073" x1="376" y1="203.5" x2="536" y2="309.5" gradientUnits="userSpaceOnUse">
<stop stop-color="#5773F1"/>
<stop offset="1" stop-color="#3C0BA3"/>
</linearGradient>
<linearGradient id="paint5_linear_1023_6073" x1="495.149" y1="135.413" x2="634.351" y2="225.087" gradientUnits="userSpaceOnUse">
<stop offset="0.199397" stop-color="#FA3992"/>
<stop offset="0.953347" stop-color="#6F09BC"/>
</linearGradient>
<linearGradient id="paint6_linear_1023_6073" x1="516.091" y1="48.1923" x2="592" y2="146.5" gradientUnits="userSpaceOnUse">
<stop stop-color="#6F09BC"/>
<stop offset="1" stop-color="#3C0BA3"/>
</linearGradient>
</defs>
</svg>
