<svg width="42" height="41" viewBox="0 0 42 41" fill="none" xmlns="http://www.w3.org/2000/svg">
<g id="facebook_svgrepo.com" clip-path="url(#clip0_297_3061)">
<g id="7935ec95c421cee6d86eb22ecd11b7e3">
<path id="Vector" d="M23.1717 10.0449C23.1717 10.4542 23.1717 11.7885 23.1717 13.6842H29.8522L29.1279 19.4941H23.1717C23.1717 28.4541 23.1717 40.4609 23.1717 40.4609H15.2659C15.2659 40.4609 15.2659 28.613 15.2659 19.4941H11.1465V13.6842H15.2659C15.2659 11.3801 15.2659 9.74173 15.2659 9.28556C15.2659 7.11212 15.0981 6.08087 16.0447 4.39665C16.9918 2.71251 19.6632 0.486418 24.2836 0.540012C28.9052 0.595559 30.8532 1.02931 30.8532 1.02931L29.8522 7.22126C29.8522 7.22126 26.9011 6.46103 25.4525 6.73197C24.0059 7.00298 23.1717 7.87236 23.1717 10.0449Z" fill="white"/>
</g>
</g>
<defs>
<clipPath id="clip0_297_3061">
<rect width="41" height="40" fill="white" transform="translate(0.5 0.5)"/>
</clipPath>
</defs>
</svg>
