<svg width="18" height="18" viewBox="0 0 18 18" fill="none" xmlns="http://www.w3.org/2000/svg">
<path fill-rule="evenodd" clip-rule="evenodd" d="M0.666992 3.16602C0.666992 1.78531 1.78628 0.666016 3.16699 0.666016H14.8337C16.2144 0.666016 17.3337 1.78531 17.3337 3.16602V4.14232C17.3337 4.80537 17.0702 5.44125 16.6014 5.91009L11.7444 10.7671C11.5882 10.9234 11.5003 11.1353 11.5003 11.3563V13.309C11.5003 13.972 11.2369 14.6079 10.7681 15.0768L8.93307 16.9118C8.03533 17.8095 6.50033 17.1737 6.50033 15.9041V11.3563C6.50033 11.1353 6.41253 10.9234 6.25625 10.7671L1.39923 5.91009C0.930384 5.44125 0.666992 4.80537 0.666992 4.14232V3.16602Z" fill="white"/>
</svg>
