<svg width="41" height="41" viewBox="0 0 41 41" fill="none" xmlns="http://www.w3.org/2000/svg">
<g id="google-178_svgrepo.com" clip-path="url(#clip0_297_3056)">
<g id="Page-1">
<g id="Dribbble-Light-Preview">
<g id="icons">
<path id="google-[#178]" fill-rule="evenodd" clip-rule="evenodd" d="M40.1431 16.5078H20.9226C20.9226 18.5067 20.9226 22.5041 20.9103 24.5029H32.0481C31.6213 26.5018 30.1081 29.3008 27.97 30.71C27.97 30.71 27.9659 30.7217 27.9618 30.7197C25.1191 32.5967 21.3678 33.0226 18.5823 32.4629C14.2163 31.5954 10.761 28.429 9.35802 24.4072C9.36619 24.4012 9.37234 24.3458 9.37847 24.3418C8.50035 21.8472 8.50035 18.5067 9.37847 16.5078H9.37642C10.5078 12.8339 14.0672 9.48195 18.4394 8.56447C21.9559 7.81889 25.9238 8.626 28.842 11.3565C29.23 10.9767 34.2127 6.11162 34.5864 5.71584C24.6168 -3.31308 8.6535 -0.136961 2.68029 11.5225H2.67824C2.67824 11.5225 2.6803 11.523 2.66805 11.5449C-0.286908 17.2717 -0.164384 24.0197 2.68846 29.4727C2.6803 29.4787 2.67417 29.4823 2.66805 29.4883C5.25338 34.5055 9.95843 38.3532 15.6274 39.8184C21.6496 41.3975 29.3137 40.3182 34.4476 35.6748L34.4537 35.6807C38.8035 31.7629 41.5113 25.089 40.1431 16.5078Z" fill="white"/>
</g>
</g>
</g>
</g>
<defs>
<clipPath id="clip0_297_3056">
<rect width="40" height="40" fill="white" transform="translate(0.5 0.5)"/>
</clipPath>
</defs>
</svg>
