<svg width="713" height="561" viewBox="0 0 713 561" fill="none" xmlns="http://www.w3.org/2000/svg">
<ellipse cx="356.5" cy="467.5" rx="356.5" ry="93.5" fill="#1A1A1A"/>
<path d="M224.5 219C245.002 249.5 320.495 297.492 380.792 255.411C384.021 248.335 376.201 233.108 361.393 234.9C329.503 255.411 276.999 241.5 248.003 210.006C221.643 181.376 224.503 146.506 276.999 133.504C283.503 126.506 299 110.327 272.756 113.493C210.499 121.004 194.28 174.044 224.5 219Z" fill="url(#paint0_radial_500_7429)"/>
<path d="M436.325 421.329C538.327 356.331 473.825 245.828 463.325 230.328C421.325 226.162 340.026 225.529 350.826 246.329C364.326 272.329 345.825 314.329 314.325 351.329C296.973 371.711 380.618 456.828 436.325 421.329Z" fill="url(#paint1_radial_500_7429)"/>
<path d="M371.955 271.325C359.103 268.685 348.266 264.223 334.645 254.907C331.233 252.573 326.384 254.938 326.052 259.059C324.52 278.044 319.03 300.252 312.044 318.285C310.984 321.02 312.401 324.126 315.224 324.923C331.703 329.573 344.189 329.652 362.738 328.082C364.518 327.932 366.091 326.837 366.787 325.191C372.524 311.618 377.213 291.544 375.907 275.582C375.731 273.436 374.065 271.759 371.955 271.325Z" fill="#6F09BC"/>
<path d="M336.779 134.888C335.136 135.098 333.974 136.6 334.184 138.244C334.394 139.887 335.896 141.049 337.54 140.84L336.779 134.888ZM381.19 122.58L383.295 124.717C384.124 123.9 384.406 122.677 384.018 121.58C383.63 120.483 382.643 119.709 381.485 119.595L381.19 122.58ZM349.975 91.9834L349.79 88.9891C348.811 89.0497 347.924 89.5844 347.414 90.4212C346.904 91.2581 346.834 92.2915 347.228 93.1891L349.975 91.9834ZM390.976 44.7454C392.493 53.4509 400.779 59.2786 409.485 57.7619C418.19 56.2453 424.018 47.9587 422.501 39.2533C420.985 30.5478 412.698 24.7202 403.993 26.2368C395.287 27.7534 389.46 36.04 390.976 44.7454ZM337.54 140.84C354.215 138.709 365.533 134.805 372.754 131.36C376.363 129.638 378.941 128.034 380.647 126.831C381.5 126.23 382.133 125.729 382.568 125.365C382.786 125.182 382.953 125.034 383.074 124.925C383.134 124.87 383.182 124.825 383.219 124.79C383.237 124.773 383.253 124.758 383.266 124.746C383.272 124.74 383.278 124.734 383.283 124.729C383.285 124.727 383.287 124.725 383.289 124.723C383.291 124.722 383.292 124.72 383.293 124.72C383.294 124.718 383.295 124.717 381.19 122.58C379.084 120.443 379.085 120.442 379.087 120.441C379.087 120.44 379.088 120.439 379.089 120.438C379.09 120.437 379.091 120.436 379.093 120.435C379.095 120.433 379.096 120.431 379.097 120.43C379.099 120.429 379.098 120.43 379.094 120.434C379.086 120.441 379.067 120.459 379.037 120.486C378.976 120.542 378.87 120.636 378.715 120.765C378.406 121.024 377.904 121.423 377.189 121.928C375.759 122.936 373.473 124.369 370.171 125.945C363.568 129.095 352.872 132.832 336.779 134.888L337.54 140.84ZM381.19 122.58C381.485 119.595 381.487 119.595 381.489 119.595C381.489 119.595 381.491 119.595 381.492 119.595C381.495 119.596 381.497 119.596 381.498 119.596C381.502 119.596 381.504 119.597 381.506 119.597C381.508 119.597 381.506 119.597 381.5 119.596C381.488 119.595 381.459 119.591 381.414 119.584C381.324 119.571 381.168 119.546 380.953 119.503C380.524 119.417 379.858 119.261 379.003 118.987C377.293 118.439 374.821 117.421 371.953 115.553C366.246 111.836 358.813 104.655 352.722 90.7776L347.228 93.1891C353.761 108.072 361.936 116.189 368.679 120.581C372.037 122.767 375.002 124.005 377.172 124.701C378.257 125.048 379.142 125.26 379.779 125.387C380.097 125.45 380.353 125.493 380.541 125.52C380.635 125.534 380.712 125.544 380.771 125.552C380.801 125.555 380.826 125.558 380.847 125.56C380.857 125.562 380.866 125.563 380.874 125.563C380.878 125.564 380.882 125.564 380.885 125.565C380.887 125.565 380.889 125.565 380.89 125.565C380.893 125.565 380.895 125.566 381.19 122.58ZM350.161 94.9776C364.303 94.1021 378.854 88.7457 390.045 79.7233C401.268 70.675 409.219 57.8333 409.737 42.0981L403.74 41.9006C403.29 55.5679 396.417 66.8789 386.279 75.0523C376.109 83.2517 362.761 88.1861 349.79 88.9891L350.161 94.9776Z" fill="#67D3F2"/>
<path d="M482 180C482 225.287 445.287 262 400 262C354.713 262 314.5 233.287 314.5 188C314.5 142.713 354.713 98 400 98C445.287 98 482 134.713 482 180Z" fill="url(#paint2_radial_500_7429)"/>
<path fill-rule="evenodd" clip-rule="evenodd" d="M410.833 98.709C451 104.01 482 138.385 482 180C482 199.874 474.93 218.097 463.167 232.29C423 226.989 392 192.615 392 151C392 131.125 399.07 112.902 410.833 98.709Z" fill="url(#paint3_radial_500_7429)"/>
<path d="M413.741 106.131C403.285 118.747 397 134.945 397 152.612C397 189.603 424.555 220.158 460.259 224.87" stroke="#3C0BA3" stroke-width="6" stroke-linecap="round" stroke-linejoin="round" stroke-dasharray="0.22 30"/>
<ellipse cx="455.916" cy="153.355" rx="9.5" ry="12.5" transform="rotate(-25.186 455.916 153.355)" fill="#FA3992"/>
<path d="M456.136 150.003C454.481 149.928 453.078 151.209 453.003 152.864C452.928 154.519 454.209 155.922 455.864 155.997L456.136 150.003ZM502 145.5L503.708 147.967C504.665 147.304 505.152 146.148 504.958 145C504.764 143.853 503.924 142.921 502.803 142.609L502 145.5ZM476.5 110L476.831 107.018C475.857 106.91 474.891 107.285 474.245 108.021C473.598 108.758 473.353 109.764 473.587 110.716L476.5 110ZM525 70.5C525 79.3366 532.163 86.5 541 86.5C549.837 86.5 557 79.3366 557 70.5C557 61.6634 549.837 54.5 541 54.5C532.163 54.5 525 61.6634 525 70.5ZM455.864 155.997C472.657 156.76 484.478 154.856 492.183 152.702C496.034 151.625 498.849 150.487 500.736 149.595C501.679 149.149 502.389 148.764 502.88 148.48C503.126 148.338 503.316 148.221 503.454 148.134C503.522 148.09 503.578 148.054 503.62 148.026C503.641 148.012 503.659 148 503.674 147.99C503.681 147.985 503.687 147.981 503.693 147.977C503.696 147.975 503.698 147.973 503.701 147.971C503.702 147.97 503.704 147.969 503.704 147.969C503.706 147.968 503.708 147.967 502 145.5C500.292 143.033 500.294 143.032 500.295 143.031C500.296 143.031 500.297 143.03 500.298 143.03C500.3 143.028 500.301 143.027 500.302 143.027C500.305 143.025 500.306 143.024 500.307 143.023C500.309 143.022 500.308 143.023 500.303 143.026C500.294 143.032 500.273 143.046 500.238 143.068C500.169 143.112 500.048 143.187 499.874 143.288C499.525 143.49 498.962 143.797 498.17 144.171C496.589 144.919 494.091 145.938 490.567 146.923C483.522 148.894 472.343 150.74 456.136 150.003L455.864 155.997ZM502 145.5C502.803 142.609 502.805 142.61 502.807 142.611C502.807 142.611 502.809 142.611 502.81 142.612C502.813 142.612 502.815 142.613 502.816 142.613C502.82 142.614 502.822 142.615 502.823 142.615C502.826 142.616 502.824 142.615 502.818 142.614C502.807 142.61 502.779 142.602 502.735 142.587C502.648 142.559 502.5 142.507 502.295 142.428C501.887 142.27 501.258 142.002 500.462 141.585C498.872 140.752 496.612 139.324 494.107 136.992C489.122 132.35 483.032 124 479.413 109.284L473.587 110.716C477.468 126.5 484.128 135.9 490.018 141.383C492.951 144.113 495.659 145.842 497.678 146.9C498.687 147.428 499.523 147.789 500.128 148.023C500.431 148.14 500.676 148.226 500.857 148.286C500.947 148.315 501.021 148.338 501.078 148.356C501.107 148.364 501.131 148.372 501.151 148.377C501.161 148.38 501.169 148.383 501.177 148.385C501.181 148.386 501.185 148.387 501.188 148.388C501.19 148.388 501.192 148.389 501.193 148.389C501.195 148.39 501.197 148.391 502 145.5ZM476.169 112.982C490.252 114.546 505.506 111.767 518.079 104.799C530.689 97.8112 540.726 86.5246 543.937 71.1119L538.063 69.8881C535.274 83.2754 526.561 93.2388 515.171 99.551C503.744 105.883 489.748 108.454 476.831 107.018L476.169 112.982Z" fill="#67D3F2"/>
<path fill-rule="evenodd" clip-rule="evenodd" d="M364.504 255.734C355.2 252.258 346.7 247.398 339.452 241.309C336.017 234.676 333.338 227.269 332.836 218.803C332.62 215.162 336.594 213.1 339.822 214.799C345.023 217.537 350.657 220.137 355.508 221.687C358.37 222.602 360.327 225.578 360.076 228.572C359.4 236.614 361.075 246.301 364.504 255.734Z" fill="white"/>
<path fill-rule="evenodd" clip-rule="evenodd" d="M395.664 261.888C392.811 254.678 390.833 244.232 390.209 234.396C390.004 231.15 393.074 228.717 396.308 229.074C403.292 229.844 411.468 229.671 417.595 229.363C420.686 229.207 423.22 231.808 422.993 234.894C422.433 242.5 422.228 250.932 423.322 258.637C415.93 260.826 408.102 262.001 400 262.001C398.546 262.001 397.1 261.963 395.664 261.888Z" fill="white"/>
<path d="M426.815 278.452C412.663 279.255 395.864 277.109 382.729 273.989C379.205 273.152 375.612 276.074 375.377 279.688C374.54 292.539 369.82 311.753 365.653 323.876C364.78 326.414 365.942 329.245 368.408 330.303C384.338 337.135 396.249 340.89 417.777 345.17C420.217 345.655 422.646 344.242 423.439 341.885C431.845 316.907 434.422 303.529 432.287 282.928C432.006 280.214 429.539 278.298 426.815 278.452Z" fill="#3C0BA3"/>
<ellipse cx="370.114" cy="389.437" rx="67.9892" ry="27.7794" transform="rotate(33.1498 370.114 389.437)" fill="url(#paint4_linear_500_7429)"/>
<path d="M308 459.512C339.5 443.012 384 404.014 384 404.014C384 404.014 398.5 403.012 396.5 418.014C371.5 444.512 354.5 454.012 323 474.512C291.5 495.012 256 531.014 256 531.014L243.5 515.012C243.5 515.012 276.5 476.012 308 459.512Z" fill="url(#paint5_linear_500_7429)"/>
<path d="M242 391.338C287 386.082 335.224 376.311 335.224 376.311C335.224 376.311 348.424 382.394 339.466 394.594C304.814 405.833 259.5 409.862 222 413.338C184.5 416.814 144.281 428.9 144.281 428.9L141 408.862C141 408.862 197 396.594 242 391.338Z" fill="url(#paint6_linear_500_7429)"/>
<path d="M228.5 460.5L197 457.5L229 517.001L251.5 536.501L261 526.513L228.5 460.5Z" fill="#6F09BC"/>
<path d="M223 460L197 457.512L227 536.512H251.5L223 460Z" fill="#3C0BA3"/>
<path d="M153 427.5L121 337.338L91 334.838L86 337.338L142.5 429.838L153 427.5Z" fill="#6F09BC"/>
<path d="M115.5 340.338L86 337.338L112 425.838L142.5 429.838L115.5 340.338Z" fill="#3C0BA3"/>
<path d="M560.494 340.51C550.575 294.884 507.698 251.226 461.138 265.645C460.391 265.876 459.685 266.281 459.228 266.916C454.97 272.831 456.966 287.024 468.844 291.363C470.183 291.852 471.681 291.508 472.91 290.784C510.237 268.819 560.063 349.915 534.997 374C507.487 400.434 470.006 364.146 444.517 339.469L444.444 339.398C443.512 338.496 442.269 337.972 440.977 338.089C434.439 338.677 430.26 342.137 427.728 346.813C426.86 348.417 427.271 350.424 428.46 351.807C513.412 450.663 572.609 396.235 560.494 340.51Z" fill="url(#paint7_radial_500_7429)"/>
<path d="M411.435 298.675C411.264 298.113 411.061 297.561 410.825 297.022C410.58 296.488 410.303 295.969 409.997 295.467L412.145 291.239C412.243 291.051 412.27 290.831 412.219 290.621C412.167 290.412 412.043 290.226 411.868 290.102L406.125 285.828C405.956 285.698 405.748 285.635 405.54 285.65C405.331 285.666 405.138 285.758 404.995 285.911L401.763 289.344C400.644 289.063 399.498 288.929 398.353 288.945L395.803 284.859C395.69 284.678 395.518 284.543 395.318 284.481C395.118 284.418 394.904 284.431 394.716 284.517L388.325 287.382C388.136 287.464 387.984 287.615 387.898 287.806C387.811 287.997 387.797 288.215 387.857 288.42L389.21 293.043C388.434 293.885 387.772 294.83 387.239 295.853L382.51 295.989C382.301 295.994 382.103 296.077 381.954 296.222C381.804 296.367 381.712 296.565 381.697 296.777L381.065 303.908C381.042 304.122 381.097 304.338 381.22 304.516C381.343 304.693 381.524 304.82 381.73 304.872L386.308 306.085C386.479 306.647 386.682 307.199 386.918 307.738C387.163 308.272 387.439 308.792 387.745 309.293L385.605 313.518C385.507 313.706 385.481 313.926 385.532 314.136C385.583 314.345 385.708 314.531 385.882 314.655L391.626 318.929C391.795 319.059 392.003 319.122 392.211 319.107C392.419 319.091 392.613 318.999 392.756 318.846L395.988 315.413C397.106 315.694 398.252 315.828 399.397 315.812L401.948 319.898C402.06 320.079 402.233 320.214 402.433 320.276C402.633 320.339 402.846 320.326 403.034 320.24L409.41 317.382C409.599 317.3 409.751 317.149 409.837 316.958C409.923 316.767 409.938 316.548 409.878 316.344L408.525 311.721C409.301 310.878 409.963 309.934 410.496 308.911L415.209 308.782C415.418 308.777 415.616 308.694 415.766 308.549C415.916 308.404 416.007 308.206 416.023 307.994L416.654 300.863C416.677 300.649 416.622 300.433 416.499 300.255C416.377 300.078 416.195 299.951 415.989 299.899L411.435 298.675ZM401.456 308.137C400.353 308.634 399.122 308.781 397.92 308.561C396.717 308.342 395.598 307.764 394.703 306.902C393.807 306.04 393.177 304.932 392.89 303.718C392.604 302.504 392.675 301.239 393.094 300.083C393.513 298.927 394.261 297.932 395.244 297.224C396.227 296.516 397.401 296.126 398.617 296.104C399.833 296.083 401.036 296.43 402.074 297.102C403.112 297.774 403.939 298.741 404.45 299.88C404.79 300.635 404.982 301.448 405.015 302.272C405.049 303.096 404.923 303.915 404.645 304.682C404.367 305.449 403.942 306.149 403.395 306.742C402.848 307.334 402.189 307.809 401.456 308.137Z" fill="#FA3992"/>
<path d="M153.33 151.471C153.612 149.252 153.763 147.018 153.783 144.781C153.763 142.544 153.612 140.31 153.33 138.092L167.327 126.753C167.959 126.254 168.391 125.531 168.54 124.722C168.689 123.914 168.545 123.077 168.135 122.372L154.882 98.5907C154.498 97.8774 153.875 97.334 153.131 97.0629C152.387 96.7918 151.572 96.8118 150.841 97.119L134.322 104.009C130.885 101.295 127.126 99.0468 123.138 97.3197L120.649 79.1579C120.539 78.3542 120.15 77.6193 119.556 77.0901C118.961 76.5608 118.2 76.2734 117.416 76.2814L90.844 76.2814C90.0596 76.2734 89.2992 76.5608 88.7044 77.0901C88.1097 77.6193 87.7212 78.3542 87.6114 79.1579L85.1223 97.3197C81.1284 99.036 77.3683 101.285 73.9375 104.009L57.3543 97.119C56.6232 96.8118 55.8088 96.7918 55.0645 97.0629C54.3202 97.334 53.6974 97.8774 53.3136 98.5907L40.0599 122.372C39.65 123.077 39.5059 123.914 39.655 124.722C39.8041 125.531 40.236 126.254 40.8681 126.753L54.8329 138.092C54.5524 140.31 54.4012 142.544 54.3803 144.781C54.4001 147.018 54.5513 149.252 54.8329 151.471L40.8681 162.809C40.236 163.309 39.8041 164.032 39.655 164.84C39.5059 165.649 39.65 166.486 40.0599 167.191L53.3136 190.972C53.6974 191.685 54.3202 192.229 55.0645 192.5C55.8088 192.771 56.6232 192.751 57.3543 192.443L73.8729 185.553C77.3101 188.268 81.0689 190.516 85.0577 192.243L87.5468 210.405C87.6565 211.208 88.045 211.943 88.6398 212.472C89.2345 213.002 89.995 213.289 90.7794 213.281L117.287 213.281C118.071 213.289 118.831 213.002 119.426 212.472C120.021 211.943 120.409 211.208 120.519 210.405L123.008 192.243C127.002 190.526 130.762 188.278 134.193 185.553L150.712 192.443C151.443 192.751 152.257 192.771 153.002 192.5C153.746 192.229 154.369 191.685 154.752 190.972L168.006 167.191C168.416 166.486 168.56 165.649 168.411 164.84C168.262 164.032 167.83 163.309 167.198 162.809L153.33 151.471ZM104.098 168.796C99.5058 168.803 95.0152 167.4 91.1941 164.765C87.3729 162.131 84.393 158.382 82.6313 153.995C80.8697 149.607 80.4054 144.777 81.2973 140.117C82.1892 135.456 84.3972 131.174 87.6419 127.812C90.8866 124.45 95.0222 122.159 99.5254 121.23C104.029 120.301 108.697 120.774 112.94 122.591C117.183 124.408 120.81 127.486 123.362 131.436C125.913 135.386 127.275 140.03 127.275 144.781C127.28 147.933 126.683 151.055 125.52 153.969C124.357 156.882 122.651 159.53 120.498 161.76C118.346 163.991 115.789 165.76 112.975 166.968C110.161 168.175 107.144 168.796 104.098 168.796Z" fill="#67D3F2"/>
<path d="M71.9971 77.9679C72.3638 76.7656 72.6593 75.5423 72.8817 74.3047C73.0821 73.0633 73.2089 71.8112 73.2615 70.5554L82.1411 65.6051C82.5409 65.3885 82.8501 65.029 83.0097 64.5953C83.1693 64.1616 83.1679 63.6842 83.006 63.2545L77.8599 48.8177C77.7132 48.386 77.4171 48.0257 77.0276 47.8047C76.638 47.5837 76.1818 47.5172 75.7449 47.6179L65.8792 49.8636C64.2183 48.0327 62.3339 46.4296 60.2721 45.0932L60.5999 34.7939C60.6146 34.3382 60.4673 33.8941 60.1856 33.5443C59.9038 33.1945 59.5068 32.9629 59.0685 32.8927L44.2457 30.3644C43.8089 30.2853 43.3575 30.3722 42.9757 30.6088C42.5939 30.8454 42.3078 31.2157 42.1706 31.6505L39.0658 41.4761C36.6756 42.047 34.3656 42.9351 32.1943 44.1181L23.5948 38.7228C23.216 38.483 22.7636 38.3945 22.3227 38.4738C21.8819 38.5532 21.4832 38.795 21.2016 39.1537L11.5609 51.0683C11.2657 51.42 11.1061 51.87 11.1129 52.332C11.1197 52.7941 11.2923 53.2358 11.5977 53.5728L18.3162 61.1835C17.9501 62.3859 17.6547 63.6092 17.4316 64.8467C17.2313 66.0881 17.1045 67.3402 17.0519 68.596L8.19034 73.5493C7.79053 73.766 7.48126 74.1255 7.3217 74.5592C7.16213 74.9929 7.16347 75.4703 7.32546 75.9L12.4715 90.3367C12.6182 90.7685 12.9143 91.1288 13.3038 91.3498C13.6934 91.5708 14.1496 91.6372 14.5865 91.5366L24.4522 89.2909C26.1131 91.1218 27.9975 92.7249 30.0593 94.0613L29.7315 104.361C29.7168 104.816 29.8641 105.26 30.1458 105.61C30.4276 105.96 30.8246 106.192 31.2629 106.262L46.0497 108.784C46.4865 108.863 46.9378 108.776 47.3196 108.54C47.7014 108.303 47.9875 107.933 48.1247 107.498L51.2296 97.6723C53.6197 97.1014 55.9297 96.2132 58.101 95.0302L66.6645 100.419C67.0433 100.659 67.4957 100.748 67.9365 100.668C68.3773 100.589 68.7761 100.347 69.0576 99.9885L78.6983 88.0739C78.9936 87.7221 79.1531 87.2722 79.1463 86.8101C79.1396 86.3481 78.967 85.9063 78.6616 85.5694L71.9971 77.9679ZM42.8962 82.8826C40.3341 82.4494 37.9617 81.2449 36.0791 79.4215C34.1965 77.5981 32.8884 75.2379 32.3204 72.6393C31.7523 70.0408 31.9497 67.3208 32.8877 64.8235C33.8257 62.3261 35.462 60.1637 37.5897 58.6098C39.7175 57.0558 42.2409 56.1803 44.8407 56.0939C47.4406 56.0074 50 56.714 52.1952 58.1242C54.3904 59.5345 56.1227 61.5849 57.1729 64.0162C58.2231 66.4474 58.544 69.1502 58.095 71.7826C57.7995 73.5294 57.1718 75.2024 56.2478 76.7059C55.3238 78.2094 54.1216 79.514 52.71 80.5449C51.2983 81.5759 49.705 82.313 48.0211 82.7141C46.3371 83.1152 44.5957 83.1725 42.8962 82.8826Z" fill="#FA3992"/>
<path d="M108.474 31.3177C108.591 30.4031 108.654 29.482 108.662 28.5596C108.654 27.6372 108.591 26.7161 108.474 25.8015L114.285 21.1265C114.547 20.9205 114.727 20.6224 114.789 20.2891C114.85 19.9558 114.791 19.6107 114.62 19.3199L109.118 9.5148C108.959 9.22069 108.701 8.99665 108.392 8.88488C108.083 8.77311 107.744 8.78134 107.441 8.90801L100.584 11.7489C99.1566 10.6297 97.5963 9.70284 95.9404 8.99076L94.9071 1.50246C94.8615 1.17111 94.7002 0.868088 94.4533 0.649883C94.2064 0.431679 93.8908 0.31318 93.5651 0.316473L82.5343 0.316473C82.2086 0.31318 81.8929 0.431679 81.646 0.649883C81.3991 0.868088 81.2379 1.17111 81.1923 1.50246L80.159 8.99076C78.501 9.69841 76.9401 10.6256 75.5158 11.7489L68.6316 8.90801C68.3281 8.78134 67.99 8.77311 67.681 8.88488C67.3721 8.99665 67.1135 9.22069 66.9542 9.5148L61.4521 19.3199C61.282 19.6107 61.2222 19.9558 61.284 20.2891C61.3459 20.6224 61.5252 20.9205 61.7876 21.1265L67.5849 25.8015C67.4684 26.7162 67.4057 27.6372 67.397 28.5596C67.4052 29.482 67.468 30.4031 67.5849 31.3177L61.7876 35.9927C61.5252 36.1987 61.3459 36.4969 61.284 36.8302C61.2222 37.1635 61.282 37.5085 61.4521 37.7993L66.9542 47.6044C67.1135 47.8985 67.3721 48.1226 67.681 48.2343C67.99 48.3461 68.3281 48.3379 68.6316 48.2112L75.489 45.3703C76.9159 46.4895 78.4763 47.4164 80.1322 48.1285L81.1655 55.6168C81.211 55.9481 81.3723 56.2511 81.6192 56.4693C81.8661 56.6875 82.1818 56.806 82.5074 56.8027L93.5115 56.8027C93.8371 56.806 94.1528 56.6875 94.3997 56.4693C94.6466 56.2511 94.8078 55.9481 94.8534 55.6168L95.8867 48.1285C97.5447 47.4208 99.1056 46.4936 100.53 45.3703L107.387 48.2112C107.691 48.3379 108.029 48.3461 108.338 48.2343C108.647 48.1226 108.905 47.8985 109.065 47.6044L114.567 37.7993C114.737 37.5085 114.797 37.1635 114.735 36.8302C114.673 36.4969 114.494 36.1987 114.231 35.9927L108.474 31.3177ZM88.0363 38.4613C86.13 38.464 84.2658 37.8856 82.6796 36.7992C81.0933 35.7129 79.8562 34.1674 79.1249 32.3584C78.3936 30.5493 78.2009 28.558 78.5711 26.6364C78.9414 24.7147 79.858 22.9491 81.205 21.563C82.5519 20.1768 84.2688 19.2324 86.1382 18.8492C88.0076 18.4661 89.9456 18.6613 91.707 19.4104C93.4684 20.1594 94.974 21.4285 96.0333 23.0571C97.0927 24.6857 97.6581 26.6007 97.6581 28.5596C97.6599 29.8593 97.4123 31.1465 96.9295 32.3478C96.4468 33.549 95.7383 34.6407 94.8447 35.5603C93.951 36.4799 92.8897 37.2095 91.7215 37.7073C90.5532 38.205 89.301 38.4613 88.0363 38.4613Z" fill="#6F09BC"/>
<path d="M420.38 321.319C420.325 321.139 420.259 320.962 420.184 320.789C420.105 320.617 420.016 320.45 419.918 320.289L420.608 318.931C420.639 318.871 420.648 318.8 420.631 318.733C420.615 318.666 420.575 318.606 420.519 318.566L418.674 317.194C418.62 317.152 418.553 317.132 418.486 317.137C418.42 317.141 418.357 317.171 418.311 317.22L417.273 318.323C416.914 318.233 416.546 318.19 416.179 318.195L415.36 316.882C415.323 316.824 415.268 316.781 415.204 316.761C415.14 316.741 415.071 316.745 415.011 316.773L412.958 317.693C412.897 317.719 412.849 317.768 412.821 317.829C412.793 317.89 412.789 317.96 412.808 318.026L413.242 319.511C412.993 319.781 412.78 320.085 412.609 320.413L411.091 320.457C411.024 320.458 410.96 320.485 410.912 320.532C410.864 320.578 410.834 320.642 410.829 320.71L410.627 323C410.619 323.069 410.637 323.138 410.676 323.195C410.716 323.252 410.774 323.293 410.84 323.309L412.31 323.699C412.365 323.88 412.431 324.057 412.506 324.23C412.585 324.402 412.674 324.568 412.772 324.729L412.085 326.086C412.053 326.146 412.045 326.217 412.061 326.284C412.078 326.352 412.118 326.411 412.174 326.451L414.018 327.824C414.072 327.865 414.139 327.886 414.206 327.881C414.273 327.876 414.335 327.846 414.381 327.797L415.419 326.695C415.778 326.785 416.146 326.828 416.514 326.823L417.333 328.135C417.369 328.193 417.424 328.236 417.489 328.257C417.553 328.277 417.622 328.272 417.682 328.245L419.729 327.327C419.79 327.301 419.839 327.252 419.867 327.191C419.894 327.129 419.899 327.059 419.88 326.994L419.445 325.509C419.694 325.238 419.907 324.935 420.078 324.607L421.592 324.565C421.659 324.564 421.722 324.537 421.771 324.49C421.819 324.444 421.848 324.38 421.853 324.312L422.056 322.022C422.063 321.953 422.045 321.884 422.006 321.827C421.967 321.77 421.908 321.729 421.842 321.712L420.38 321.319ZM417.175 324.358C416.821 324.518 416.425 324.565 416.039 324.494C415.653 324.424 415.294 324.238 415.006 323.961C414.719 323.685 414.516 323.329 414.424 322.939C414.332 322.549 414.355 322.143 414.489 321.772C414.624 321.4 414.864 321.081 415.18 320.853C415.496 320.626 415.873 320.501 416.263 320.494C416.654 320.487 417.04 320.598 417.373 320.814C417.707 321.03 417.972 321.34 418.136 321.706C418.246 321.949 418.307 322.21 418.318 322.475C418.329 322.739 418.288 323.002 418.199 323.248C418.11 323.495 417.973 323.72 417.798 323.91C417.622 324.1 417.41 324.253 417.175 324.358Z" fill="#FA3992"/>
<path d="M384.053 280.916C384.019 280.804 383.979 280.694 383.932 280.587C383.883 280.481 383.828 280.377 383.767 280.277L384.195 279.436C384.214 279.398 384.219 279.355 384.209 279.313C384.199 279.271 384.174 279.234 384.14 279.209L382.996 278.359C382.963 278.333 382.921 278.32 382.88 278.323C382.838 278.326 382.8 278.345 382.771 278.375L382.128 279.058C381.905 279.003 381.677 278.976 381.449 278.979L380.942 278.166C380.919 278.13 380.885 278.103 380.845 278.09C380.805 278.078 380.763 278.081 380.725 278.098L379.453 278.668C379.416 278.684 379.385 278.714 379.368 278.752C379.351 278.79 379.348 278.834 379.36 278.875L379.629 279.795C379.475 279.962 379.343 280.151 379.237 280.354L378.296 280.381C378.254 280.382 378.215 280.399 378.185 280.428C378.155 280.456 378.137 280.496 378.134 280.538L378.008 281.958C378.004 282 378.015 282.043 378.039 282.078C378.063 282.114 378.1 282.139 378.141 282.149L379.052 282.391C379.086 282.503 379.126 282.613 379.173 282.72C379.222 282.826 379.277 282.93 379.338 283.029L378.912 283.87C378.892 283.908 378.887 283.951 378.897 283.993C378.907 284.035 378.932 284.072 378.967 284.097L380.11 284.947C380.144 284.973 380.185 284.986 380.227 284.983C380.268 284.98 380.307 284.961 380.335 284.931L380.979 284.248C381.201 284.303 381.429 284.33 381.657 284.327L382.165 285.14C382.187 285.176 382.222 285.203 382.261 285.216C382.301 285.228 382.344 285.225 382.381 285.208L383.65 284.639C383.688 284.623 383.718 284.593 383.735 284.555C383.752 284.517 383.755 284.474 383.743 284.433L383.474 283.513C383.628 283.345 383.76 283.157 383.866 282.953L384.804 282.928C384.846 282.927 384.885 282.91 384.915 282.881C384.945 282.852 384.963 282.813 384.966 282.771L385.092 281.351C385.097 281.309 385.086 281.266 385.061 281.23C385.037 281.195 385.001 281.17 384.96 281.159L384.053 280.916ZM382.067 282.799C381.847 282.898 381.602 282.927 381.363 282.884C381.124 282.84 380.901 282.725 380.723 282.553C380.545 282.382 380.419 282.161 380.362 281.92C380.305 281.678 380.319 281.426 380.402 281.196C380.486 280.966 380.635 280.768 380.831 280.627C381.026 280.486 381.26 280.408 381.502 280.404C381.744 280.4 381.983 280.469 382.19 280.603C382.397 280.736 382.561 280.929 382.663 281.156C382.73 281.306 382.769 281.468 382.775 281.632C382.782 281.796 382.757 281.959 382.702 282.111C382.646 282.264 382.562 282.403 382.453 282.521C382.344 282.639 382.213 282.734 382.067 282.799Z" fill="#FA3992"/>
<path d="M383.988 320.879C384.025 320.587 384.045 320.294 384.048 320C384.045 319.706 384.025 319.413 383.988 319.121L385.833 317.631C385.916 317.566 385.973 317.471 385.992 317.365C386.012 317.258 385.993 317.148 385.939 317.056L384.192 313.931C384.142 313.837 384.06 313.766 383.962 313.73C383.864 313.695 383.756 313.697 383.66 313.738L381.483 314.643C381.03 314.286 380.535 313.991 380.009 313.764L379.681 311.378C379.667 311.272 379.615 311.176 379.537 311.106C379.459 311.037 379.358 310.999 379.255 311H375.753C375.65 310.999 375.55 311.037 375.471 311.106C375.393 311.176 375.342 311.272 375.327 311.378L374.999 313.764C374.473 313.99 373.978 314.285 373.525 314.643L371.34 313.738C371.244 313.697 371.136 313.695 371.038 313.73C370.94 313.766 370.858 313.837 370.808 313.931L369.061 317.056C369.007 317.148 368.988 317.258 369.008 317.365C369.027 317.471 369.084 317.566 369.167 317.631L371.008 319.121C370.971 319.413 370.951 319.706 370.948 320C370.951 320.294 370.971 320.587 371.008 320.879L369.167 322.369C369.084 322.434 369.027 322.529 369.008 322.635C368.988 322.742 369.007 322.852 369.061 322.944L370.808 326.069C370.858 326.163 370.94 326.234 371.038 326.27C371.136 326.305 371.244 326.303 371.34 326.262L373.517 325.357C373.97 325.714 374.465 326.009 374.991 326.236L375.319 328.622C375.333 328.728 375.385 328.824 375.463 328.894C375.541 328.963 375.642 329.001 375.745 329H379.238C379.341 329.001 379.442 328.963 379.52 328.894C379.598 328.824 379.65 328.728 379.664 328.622L379.992 326.236C380.518 326.01 381.014 325.715 381.466 325.357L383.643 326.262C383.739 326.303 383.847 326.305 383.945 326.27C384.043 326.234 384.125 326.163 384.175 326.069L385.922 322.944C385.976 322.852 385.995 322.742 385.975 322.635C385.956 322.529 385.899 322.434 385.816 322.369L383.988 320.879ZM377.5 323.155C376.895 323.156 376.303 322.972 375.8 322.626C375.296 322.279 374.903 321.787 374.671 321.211C374.439 320.634 374.378 319.999 374.495 319.387C374.613 318.775 374.904 318.212 375.331 317.77C375.759 317.329 376.304 317.028 376.897 316.906C377.491 316.784 378.106 316.846 378.665 317.084C379.224 317.323 379.702 317.728 380.039 318.247C380.375 318.766 380.554 319.376 380.554 320C380.555 320.414 380.476 320.824 380.323 321.207C380.17 321.59 379.945 321.938 379.661 322.231C379.378 322.524 379.041 322.756 378.67 322.915C378.299 323.074 377.901 323.155 377.5 323.155Z" fill="#FA3992"/>
<path fill-rule="evenodd" clip-rule="evenodd" d="M298.587 161.676C303.387 163.599 308.531 164.442 313.656 164.169C316.414 164.022 318.182 161.355 317.649 158.646L315.612 148.294C315.079 145.586 312.408 143.909 309.676 143.521C306.005 143.001 302.521 141.117 300.051 137.97C294.97 131.498 296.098 122.133 302.57 117.052C309.043 111.972 318.408 113.1 323.489 119.572C323.569 119.674 323.648 119.778 323.726 119.882C325.375 122.097 328.127 123.645 330.762 122.819L340.824 119.665C343.459 118.839 344.957 116.012 343.769 113.519C341.561 108.887 338.364 104.77 334.38 101.471C329.108 97.1044 322.684 94.358 315.885 93.5634C309.085 92.7689 302.201 93.9602 296.064 96.9934C289.927 100.027 284.8 104.772 281.301 110.656C277.803 116.541 276.083 123.312 276.35 130.153C276.617 136.993 278.858 143.61 282.805 149.204C286.751 154.798 292.232 159.13 298.587 161.676Z" fill="#67D3F2"/>
<path fill-rule="evenodd" clip-rule="evenodd" d="M436.804 291.633C432.815 288.342 428.169 285.977 423.204 284.681C420.532 283.983 418.037 285.986 417.722 288.729L416.518 299.211C416.204 301.953 418.239 304.362 420.724 305.561C424.064 307.173 426.81 310.025 428.208 313.774C431.083 321.484 427.163 330.064 419.453 332.938C411.744 335.813 403.164 331.893 400.289 324.183C400.244 324.061 400.2 323.939 400.158 323.816C399.26 321.204 397.107 318.894 394.346 318.88L383.801 318.829C381.04 318.815 378.754 321.053 379.129 323.789C379.825 328.874 381.621 333.767 384.414 338.12C388.11 343.882 393.396 348.45 399.633 351.273C405.87 354.095 412.791 355.051 419.559 354.025C426.328 353 432.654 350.036 437.775 345.493C442.895 340.949 446.591 335.02 448.414 328.422C450.238 321.823 450.112 314.838 448.052 308.31C445.992 301.781 442.085 295.989 436.804 291.633Z" fill="#67D3F2"/>
<mask id="mask0_500_7429" style="mask-type:alpha" maskUnits="userSpaceOnUse" x="141" y="376" width="202" height="53">
<path d="M242 391.338C287 386.082 335.224 376.311 335.224 376.311C335.224 376.311 348.424 382.394 339.466 394.594C304.814 405.833 259.5 409.862 222 413.338C184.5 416.814 144.281 428.9 144.281 428.9L141 408.862C141 408.862 197 396.594 242 391.338Z" fill="url(#paint8_linear_500_7429)"/>
</mask>
<g mask="url(#mask0_500_7429)">
<path d="M157.117 401C170.261 408.227 171.906 417.69 165.402 429.52" stroke="#6F09BC" stroke-width="5"/>
<path d="M184.117 395C197.261 402.227 198.906 411.69 192.402 423.52" stroke="#6F09BC" stroke-width="5"/>
<path d="M211.117 389C224.261 396.227 225.906 405.69 219.402 417.52" stroke="#6F09BC" stroke-width="5"/>
<path d="M242.117 386C255.261 393.227 256.906 402.69 250.402 414.52" stroke="#6F09BC" stroke-width="5"/>
<path d="M273.117 383C286.261 390.227 287.906 399.69 281.402 411.52" stroke="#6F09BC" stroke-width="5"/>
<path d="M306.117 378C319.261 385.227 320.906 394.69 314.402 406.52" stroke="#6F09BC" stroke-width="5"/>
</g>
<mask id="mask1_500_7429" style="mask-type:alpha" maskUnits="userSpaceOnUse" x="243" y="404" width="154" height="128">
<path d="M308 459.512C339.5 443.012 384 404.014 384 404.014C384 404.014 398.5 403.012 396.5 418.014C371.5 444.512 354.5 454.012 323 474.512C291.5 495.012 256 531.014 256 531.014L243.5 515.012C243.5 515.012 276.5 476.012 308 459.512Z" fill="#FA3992"/>
</mask>
<g mask="url(#mask1_500_7429)">
<path d="M257.5 494.5C272.5 494.5 278.5 502 278.5 515.5" stroke="#6F09BC" stroke-width="5"/>
<path d="M277 476C292 476 298 483.5 298 497" stroke="#6F09BC" stroke-width="5"/>
<path d="M298 461C313 461 319 468.5 319 482" stroke="#6F09BC" stroke-width="5"/>
<path d="M320 445C335 445 341 452.5 341 466" stroke="#6F09BC" stroke-width="5"/>
<path d="M343 430C358 430 364 437.5 364 451" stroke="#6F09BC" stroke-width="5"/>
<path d="M363 414C378 414 384 421.5 384 435" stroke="#6F09BC" stroke-width="5"/>
</g>
<mask id="mask2_500_7429" style="mask-type:alpha" maskUnits="userSpaceOnUse" x="427" y="262" width="136" height="145">
<path d="M560.494 340.51C550.575 294.884 507.698 251.226 461.138 265.645C460.391 265.876 459.685 266.281 459.228 266.916C454.97 272.831 456.966 287.024 468.844 291.363C470.183 291.852 471.681 291.508 472.91 290.784C510.237 268.819 560.063 349.915 534.997 374C507.487 400.434 470.006 364.146 444.517 339.469L444.444 339.398C443.512 338.496 442.269 337.972 440.977 338.089C434.439 338.677 430.26 342.137 427.728 346.813C426.86 348.417 427.271 350.424 428.46 351.807C513.412 450.663 572.609 396.235 560.494 340.51Z" fill="url(#paint9_linear_500_7429)"/>
</mask>
<g mask="url(#mask2_500_7429)">
<path d="M493.85 291.699C483.243 281.093 484.304 271.547 493.85 262.001" stroke="#6F09BC" stroke-width="5"/>
<path d="M514.136 304.219C509.753 289.873 515.173 281.944 528.083 277.999" stroke="#6F09BC" stroke-width="5"/>
<path d="M529.36 322.357C529.103 307.36 536.499 301.232 549.997 301.001" stroke="#6F09BC" stroke-width="5"/>
<path d="M538 347.285C541.882 332.796 550.68 328.942 563.72 332.436" stroke="#6F09BC" stroke-width="5"/>
<path d="M534 369.465C547.005 361.99 555.944 365.502 562.672 377.207" stroke="#6F09BC" stroke-width="5"/>
<path d="M518.942 379C531.281 387.53 531.951 397.111 524.274 408.216" stroke="#6F09BC" stroke-width="5"/>
<path d="M491.625 374C496.963 388.018 492.09 396.294 479.474 401.099" stroke="#6F09BC" stroke-width="5"/>
<path d="M460.625 351C465.963 365.018 461.09 373.294 448.474 378.099" stroke="#6F09BC" stroke-width="5"/>
</g>
<mask id="mask3_500_7429" style="mask-type:alpha" maskUnits="userSpaceOnUse" x="209" y="113" width="173" height="159">
<path d="M224.5 219C245.002 249.5 320.495 297.492 380.792 255.411C384.021 248.335 376.201 233.108 361.393 234.9C329.503 255.411 276.999 241.5 248.003 210.006C221.643 181.376 224.503 146.506 276.999 133.504C283.503 126.506 299 110.327 272.756 113.493C210.499 121.004 194.28 174.044 224.5 219Z" fill="#FA3992"/>
</mask>
<g mask="url(#mask3_500_7429)">
<path d="M325.425 242C337.049 253.624 335.833 264.14 325.274 274.698" stroke="#6F09BC" stroke-width="5"/>
<path d="M291.834 235C300.39 249.037 296.729 258.97 283.979 266.741" stroke="#6F09BC" stroke-width="5"/>
<path d="M264.605 221C268.386 236.999 261.825 245.306 247.293 248.74" stroke="#6F09BC" stroke-width="5"/>
<path d="M243.11 198.33C240.046 214.481 230.67 219.396 216 216.612" stroke="#6F09BC" stroke-width="5"/>
<path d="M235.365 174.303C220.288 180.854 210.951 175.866 205 162.171" stroke="#6F09BC" stroke-width="5"/>
<path d="M255.584 146.225C239.452 143.06 234.597 133.653 237.471 119.001" stroke="#6F09BC" stroke-width="5"/>
</g>
<defs>
<radialGradient id="paint0_radial_500_7429" cx="0" cy="0" r="1" gradientUnits="userSpaceOnUse" gradientTransform="translate(316.635 183.708) rotate(118.557) scale(109.06 123.843)">
<stop offset="0.696037" stop-color="#FA3992"/>
<stop offset="1" stop-color="#6F09BC"/>
</radialGradient>
<radialGradient id="paint1_radial_500_7429" cx="0" cy="0" r="1" gradientUnits="userSpaceOnUse" gradientTransform="translate(396 287) rotate(-8.91893) scale(138.677 251.325)">
<stop offset="0.549545" stop-color="#5773F1"/>
<stop offset="0.768186" stop-color="#411CB0"/>
<stop offset="0.91468" stop-color="#3C0BA3"/>
</radialGradient>
<radialGradient id="paint2_radial_500_7429" cx="0" cy="0" r="1" gradientUnits="userSpaceOnUse" gradientTransform="translate(382 152.5) rotate(72.6962) scale(136.163 139.068)">
<stop offset="0.608649" stop-color="#6F09BC"/>
<stop offset="1" stop-color="#3C0BA3"/>
</radialGradient>
<radialGradient id="paint3_radial_500_7429" cx="0" cy="0" r="1" gradientUnits="userSpaceOnUse" gradientTransform="translate(401 160.5) rotate(49.2119) scale(182.928 192.136)">
<stop offset="0.359117" stop-color="#5773F1"/>
<stop offset="0.698854" stop-color="#3C0BA3"/>
</radialGradient>
<linearGradient id="paint4_linear_500_7429" x1="349.571" y1="311.559" x2="369.168" y2="454.03" gradientUnits="userSpaceOnUse">
<stop stop-color="#6F09BC"/>
<stop offset="0.755" stop-color="#3C0BA3"/>
</linearGradient>
<linearGradient id="paint5_linear_500_7429" x1="262.51" y1="441.846" x2="306.406" y2="499.692" gradientUnits="userSpaceOnUse">
<stop offset="0.765332" stop-color="#FA3992"/>
<stop offset="1" stop-color="#6F09BC"/>
</linearGradient>
<linearGradient id="paint6_linear_500_7429" x1="198" y1="348" x2="211.5" y2="426.5" gradientUnits="userSpaceOnUse">
<stop offset="0.765332" stop-color="#FA3992"/>
<stop offset="1" stop-color="#6F09BC"/>
</linearGradient>
<radialGradient id="paint7_radial_500_7429" cx="0" cy="0" r="1" gradientUnits="userSpaceOnUse" gradientTransform="translate(463.374 338.202) rotate(31.6466) scale(131.125 146.115)">
<stop offset="0.665353" stop-color="#FA3992"/>
<stop offset="1" stop-color="#6F09BC"/>
</radialGradient>
<linearGradient id="paint8_linear_500_7429" x1="272.927" y1="342.196" x2="206.751" y2="463.094" gradientUnits="userSpaceOnUse">
<stop stop-color="#FA3992"/>
<stop offset="1" stop-color="#942256"/>
</linearGradient>
<linearGradient id="paint9_linear_500_7429" x1="443.32" y1="305.673" x2="496.346" y2="357.516" gradientUnits="userSpaceOnUse">
<stop offset="0.765332" stop-color="#FA3992"/>
<stop offset="1" stop-color="#6F09BC"/>
</linearGradient>
</defs>
</svg>
