<svg width="41" height="41" viewBox="0 0 41 41" fill="none" xmlns="http://www.w3.org/2000/svg">
<g id="play-station-logo_svgrepo.com" clip-path="url(#clip0_297_3117)">
<g id="Group">
<path id="Vector" d="M14.4421 28.8334L14.3947 31.8847C14.3947 31.8847 12.5207 32.8522 8.3374 32.8048C4.15622 32.7553 0.454602 31.5938 0.499924 29.0716C0.547353 26.5515 7.42253 23.789 14.3451 22.6285V26.1647L6.98934 28.1019C6.98934 28.1019 5.73088 29.705 7.42253 29.7503C11.2717 29.8621 14.4421 28.8334 14.4421 28.8334ZM25.1623 20.4499C25.1623 20.4499 26.2194 22.1964 29.0083 21.9044C30.0053 21.799 32.8522 18.2197 31.0256 12.6978C29.2011 7.17597 15.9314 4.94678 15.9314 4.94678V33.4393L22.0361 36.0553L22.132 10.2747L25.1612 11.5342L25.1623 20.4499ZM31.3639 23.6477C31.3639 23.6477 27.3293 23.8459 23.6719 25.4406C23.6382 25.4574 23.6719 28.4466 23.6719 28.4466L32.9502 26.2669L36.2207 27.7204L23.6266 32.1324V35.4735C23.6266 35.4735 37.9999 30.8212 40.1152 29.0305C42.2264 27.2334 35.1615 22.7771 31.3639 23.6477Z" fill="white"/>
</g>
</g>
<defs>
<clipPath id="clip0_297_3117">
<rect width="40" height="40" fill="white" transform="translate(0.5 0.5)"/>
</clipPath>
</defs>
</svg>
