<svg width="41" height="41" viewBox="0 0 41 41" fill="none" xmlns="http://www.w3.org/2000/svg">
<g id="steam_svgrepo.com" clip-path="url(#clip0_297_3081)">
<path id="Vector" d="M23.335 15.4065C23.335 13.3486 25.0452 11.6802 27.1532 11.6802C29.2611 11.6802 30.9713 13.3486 30.9713 15.4052C30.9713 17.463 29.2625 19.1302 27.1532 19.1302C27.1532 19.1302 27.1532 19.1302 27.1518 19.1302C25.0438 19.1302 23.335 17.463 23.335 15.4065C23.335 15.4065 23.3337 15.4065 23.3337 15.4052L23.335 15.4065ZM32.2215 15.4144C32.2215 12.6762 29.9463 10.4565 27.1397 10.4565C24.3331 10.4565 22.0578 12.6762 22.0578 15.4144C22.0578 18.1525 24.3331 20.3723 27.1397 20.3723C29.9449 20.3683 32.2175 18.1499 32.2215 15.4144ZM12.9839 30.7104L10.5009 29.7078C11.2077 31.1262 12.6737 32.0867 14.369 32.0867C16.1452 32.0867 17.6706 31.0328 18.3206 29.5302L18.3314 29.5025C18.5405 29.0262 18.6632 28.4709 18.6632 27.8894C18.6632 25.5775 16.7427 23.7038 14.373 23.7038C13.8268 23.7038 13.3049 23.8038 12.8247 23.9841L12.8544 23.9749L15.4209 25.0104C16.57 25.4894 17.3617 26.5841 17.3617 27.8578C17.3617 29.563 15.9442 30.9459 14.1963 30.9459C13.7594 30.9459 13.344 30.8591 12.965 30.7038L12.9852 30.7117L12.9839 30.7104ZM20.465 0.768311C9.86842 0.769626 1.17749 8.72357 0.318383 18.8446L0.312988 18.9157L11.1537 23.2867C12.0546 22.6788 13.17 22.317 14.373 22.317C14.3744 22.317 14.3757 22.317 14.3757 22.317C14.4823 22.317 14.5861 22.3236 14.6927 22.3275L19.5142 15.517V15.4196C19.5183 11.3144 22.9304 7.98805 27.1383 7.98805C31.3489 7.98805 34.7624 11.3183 34.7624 15.4262C34.7624 19.5341 31.3489 22.8644 27.1383 22.8644H26.9616L20.0914 27.6512C20.0914 27.7367 20.0982 27.8236 20.0982 27.913C20.0982 27.9144 20.0982 27.9157 20.0982 27.917C20.0982 30.9986 17.537 33.4973 14.3784 33.4973C11.6177 33.4973 9.31276 31.588 8.77733 29.0499L8.77059 29.0144L1.00891 25.8788C3.49184 34.2275 11.2603 40.2275 20.4637 40.2275C31.6321 40.2275 40.6858 31.3946 40.6858 20.4986C40.6858 9.60252 31.6321 0.769626 20.4637 0.769626L20.465 0.768311Z" fill="white"/>
</g>
<defs>
<clipPath id="clip0_297_3081">
<rect width="41" height="40" fill="white" transform="translate(0 0.5)"/>
</clipPath>
</defs>
</svg>
