<svg width="40" height="41" viewBox="0 0 40 41" fill="none" xmlns="http://www.w3.org/2000/svg">
<g id="xbox_svgrepo.com" clip-path="url(#clip0_297_3079)">
<path id="Vector" d="M20 6.5855C17.5158 5.10524 14.5973 4.05655 11.4829 3.62629L11.3618 3.61313C11.2697 3.60655 11.1618 3.60261 11.0539 3.60261C10.2473 3.60261 9.49076 3.81313 8.83418 4.18287L8.85655 4.17103C11.9579 2.02103 15.8 0.736816 19.9434 0.736816C19.9539 0.736816 19.9644 0.736816 19.975 0.736816H20C20.0066 0.736816 20.0144 0.736816 20.0237 0.736816C24.1776 0.736816 28.0315 2.02103 31.2092 4.21313L31.1434 4.16971C30.5144 3.81182 29.7605 3.59997 28.9566 3.59997C28.8447 3.59997 28.7342 3.60392 28.625 3.61182L28.6394 3.6105C25.4039 4.05261 22.4855 5.09734 19.8921 6.63287L20 6.57366V6.5855ZM6.25524 6.37892C6.20129 6.39734 6.15392 6.42103 6.1105 6.44997L6.11313 6.44866C2.48418 10.0316 0.236816 15.0066 0.236816 20.5065C0.236816 25.2223 1.88945 29.5526 4.64866 32.95L4.61971 32.9131C2.31182 28.6223 10.5144 16.525 14.6329 11.6513C9.98813 7.01839 7.68945 6.30655 6.71839 6.30655C6.70524 6.30655 6.69076 6.30524 6.67629 6.30524C6.52497 6.30524 6.38024 6.33287 6.24734 6.38418L6.25524 6.38155V6.37892ZM25.3723 11.6513C29.4894 16.5276 37.6973 28.6355 35.3789 32.9158C38.1092 29.5552 39.7631 25.225 39.7631 20.5079C39.7631 15.0066 37.5144 10.0316 33.8855 6.44997L33.8829 6.44734C33.8447 6.41971 33.8 6.39603 33.7513 6.37892L33.7473 6.37761C33.6158 6.33024 33.4631 6.30392 33.3052 6.30392C33.2987 6.30392 33.2908 6.30392 33.2842 6.30392C32.3092 6.30392 30.0158 7.01971 25.3723 11.6513ZM6.99208 35.3763C10.4487 38.4105 15.0092 40.2631 20.0026 40.2631C24.996 40.2631 29.5566 38.4118 33.0355 35.3579L33.0131 35.3776C36.1039 32.2289 25.9052 21.0342 20 16.575C14.1013 21.0355 3.89471 32.2276 6.99208 35.3763Z" fill="white"/>
</g>
<defs>
<clipPath id="clip0_297_3079">
<rect width="40" height="40" fill="white" transform="translate(0 0.5)"/>
</clipPath>
</defs>
</svg>
