<svg width="40" height="40" viewBox="0 0 40 40" fill="none" xmlns="http://www.w3.org/2000/svg">
<g clip-path="url(#clip0_1102_300)">
<path fill-rule="evenodd" clip-rule="evenodd" d="M0 8C0 3.58172 3.58172 0 8 0H32C36.4182 0 40 3.58172 40 8V32C40 36.4182 36.4182 40 32 40H8C3.58172 40 0 36.4182 0 32V8ZM8 4C5.79086 4 4 5.79086 4 8V32C4 34.2092 5.79086 36 8 36H20V22H18C16.8954 22 16 21.1046 16 20C16 18.8954 16.8954 18 18 18H20V15C20 11.134 23.134 8 27 8H28.2C29.3046 8 30.2 8.89544 30.2 10C30.2 11.1046 29.3046 12 28.2 12H27C25.3432 12 24 13.3431 24 15V18H28.2C29.3046 18 30.2 18.8954 30.2 20C30.2 21.1046 29.3046 22 28.2 22H24V36H32C34.2092 36 36 34.2092 36 32V8C36 5.79086 34.2092 4 32 4H8Z" fill="white"/>
</g>
<defs>
<clipPath id="clip0_1102_300">
<rect width="40" height="40" fill="white"/>
</clipPath>
</defs>
</svg>
