<svg width="40" height="40" viewBox="0 0 40 40" fill="none" xmlns="http://www.w3.org/2000/svg">
<g clip-path="url(#clip0_1102_296)">
<path fill-rule="evenodd" clip-rule="evenodd" d="M19.9999 30.7147C25.9173 30.7147 30.7142 25.9177 30.7142 20.0004C30.7142 14.0831 25.9173 9.28613 19.9999 9.28613C14.0826 9.28613 9.28564 14.0831 9.28564 20.0004C9.28564 25.9177 14.0826 30.7147 19.9999 30.7147ZM19.9999 27.1433C23.9448 27.1433 27.1428 23.9452 27.1428 20.0004C27.1428 16.0555 23.9448 12.8576 19.9999 12.8576C16.055 12.8576 12.8571 16.0555 12.8571 20.0004C12.8571 23.9452 16.055 27.1433 19.9999 27.1433Z" fill="white"/>
<path d="M30.7144 7.5C29.7282 7.5 28.9287 8.2995 28.9287 9.28571C28.9287 10.2719 29.7282 11.0714 30.7144 11.0714C31.7007 11.0714 32.5001 10.2719 32.5001 9.28571C32.5001 8.2995 31.7007 7.5 30.7144 7.5Z" fill="white"/>
<path fill-rule="evenodd" clip-rule="evenodd" d="M1.18902 5.95647C0 8.29006 0 11.3449 0 17.4545V22.5455C0 28.6551 0 31.71 1.18902 34.0435C2.23491 36.0962 3.90378 37.7651 5.95647 38.8109C8.29006 40 11.3449 40 17.4545 40H22.5455C28.6551 40 31.71 40 34.0435 38.8109C36.0962 37.7651 37.7651 36.0962 38.8109 34.0435C40 31.71 40 28.6551 40 22.5455V17.4545C40 11.3449 40 8.29006 38.8109 5.95647C37.7651 3.90378 36.0962 2.23491 34.0435 1.18902C31.71 0 28.6551 0 22.5455 0H17.4545C11.3449 0 8.29006 0 5.95647 1.18902C3.90378 2.23491 2.23491 3.90378 1.18902 5.95647ZM22.5455 3.63636H17.4545C14.3397 3.63636 12.2223 3.6392 10.5856 3.77291C8.99135 3.90316 8.17607 4.13925 7.60735 4.42904C6.23889 5.12631 5.12631 6.23889 4.42904 7.60735C4.13925 8.17607 3.90316 8.99135 3.77291 10.5856C3.6392 12.2223 3.63636 14.3397 3.63636 17.4545V22.5455C3.63636 25.6604 3.6392 27.7776 3.77291 29.4144C3.90316 31.0087 4.13925 31.824 4.42904 32.3927C5.12631 33.7611 6.23889 34.8736 7.60735 35.5709C8.17607 35.8607 8.99135 36.0969 10.5856 36.2271C12.2223 36.3607 14.3397 36.3636 17.4545 36.3636H22.5455C25.6604 36.3636 27.7776 36.3607 29.4144 36.2271C31.0087 36.0969 31.824 35.8607 32.3927 35.5709C33.7611 34.8736 34.8736 33.7611 35.5709 32.3927C35.8607 31.824 36.0969 31.0087 36.2271 29.4144C36.3607 27.7776 36.3636 25.6604 36.3636 22.5455V17.4545C36.3636 14.3397 36.3607 12.2223 36.2271 10.5856C36.0969 8.99135 35.8607 8.17607 35.5709 7.60735C34.8736 6.23889 33.7611 5.12631 32.3927 4.42904C31.824 4.13925 31.0087 3.90316 29.4144 3.77291C27.7776 3.6392 25.6604 3.63636 22.5455 3.63636Z" fill="white"/>
</g>
<defs>
<clipPath id="clip0_1102_296">
<rect width="40" height="40" fill="white"/>
</clipPath>
</defs>
</svg>
