<svg width="40" height="40" viewBox="0 0 40 40" fill="none" xmlns="http://www.w3.org/2000/svg">
<g clip-path="url(#clip0_1102_305)">
<path fill-rule="evenodd" clip-rule="evenodd" d="M16.6993 8.27713H7.71982L16.6564 20.9742L7.47405 31.7229H11.5796L18.5105 23.6083L24.2204 31.7229H33.1998L23.4334 17.8457L31.6061 8.27713H27.5007L21.5792 15.2115L16.6993 8.27713ZM25.3333 28.5101L13.3333 11.4899H16L28 28.5101H25.3333Z" fill="white"/>
<path fill-rule="evenodd" clip-rule="evenodd" d="M7.12446 0C3.20045 0 0 3.20045 0 7.12446V32.8755C0 36.7995 3.20045 40 7.12446 40H32.8755C36.7995 40 40 36.7995 40 32.8755V7.12446C40 3.20045 36.7995 0 32.8755 0H7.12446ZM7.12446 3.21275H32.8755C35.0472 3.21275 36.7872 4.95283 36.7872 7.12446V32.8755C36.7872 35.0472 35.0472 36.7872 32.8755 36.7872H7.12446C4.95283 36.7872 3.21275 35.0472 3.21275 32.8755V7.12446C3.21275 4.95283 4.95283 3.21275 7.12446 3.21275Z" fill="white"/>
</g>
<defs>
<clipPath id="clip0_1102_305">
<rect width="40" height="40" fill="white"/>
</clipPath>
</defs>
</svg>
