<svg width="40" height="40" viewBox="0 0 40 40" fill="none" xmlns="http://www.w3.org/2000/svg">
<g clip-path="url(#clip0_1102_302)">
<path fill-rule="evenodd" clip-rule="evenodd" d="M15.8271 11.8866C15.3112 11.5918 14.6775 11.5939 14.1636 11.8921C13.6498 12.1903 13.3335 12.7395 13.3335 13.3337V26.667C13.3335 27.2612 13.6498 27.8103 14.1636 28.1085C14.6775 28.4067 15.3112 28.4088 15.8271 28.114L27.4937 21.4473C28.013 21.1507 28.3335 20.5985 28.3335 20.0003C28.3335 19.4022 28.013 18.85 27.4937 18.5533L15.8271 11.8866ZM23.3075 20.0003L16.6668 23.795V16.2056L23.3075 20.0003Z" fill="white"/>
<path fill-rule="evenodd" clip-rule="evenodd" d="M7.12446 0C3.20045 0 0 3.20045 0 7.12446V32.8755C0 36.7995 3.20045 40 7.12446 40H32.8755C36.7995 40 40 36.7995 40 32.8755V7.12446C40 3.20045 36.7995 0 32.8755 0H7.12446ZM7.12446 3.21275H32.8755C35.0472 3.21275 36.7872 4.95283 36.7872 7.12446V32.8755C36.7872 35.0472 35.0472 36.7872 32.8755 36.7872H7.12446C4.95283 36.7872 3.21275 35.0472 3.21275 32.8755V7.12446C3.21275 4.95283 4.95283 3.21275 7.12446 3.21275Z" fill="white"/>
</g>
<defs>
<clipPath id="clip0_1102_302">
<rect width="40" height="40" fill="white"/>
</clipPath>
</defs>
</svg>
